<svg width="1920" height="112" viewBox="0 0 1920 112" fill="none" xmlns="http://www.w3.org/2000/svg">
<path d="M1855.05 49.0853C1855.05 49.0853 1879.03 13.4895 1889.17 16.3775H1889.31C1890.25 16.6449 1891.35 16.939 1892.56 17.2632C1900.14 19.2986 1912.12 22.5138 1920 27.7281L1919.32 112H0V45.5259C10.6808 43.1754 23.6441 43.1754 38.7571 49.0853C38.7571 49.0853 62.7346 13.4895 72.8768 16.3775C73.9806 16.6993 75.2825 17.0543 76.7293 17.4486C88.567 20.6764 110.049 26.5344 111.366 38.205C117.554 34.3088 123.022 30.8116 127.923 27.6768C163.234 5.09023 169.139 1.31173 203.587 2.60927C234.63 3.77881 253.39 17.2312 268.158 27.8186C272.049 30.6094 275.662 33.2014 279.15 35.3171C309.644 26.5863 337.991 28.8028 353.237 35.3171C361.621 38.8994 376.159 39.6384 391.656 40.427C404.344 41.0724 417.674 41.7505 428.802 44.0485C453.451 49.1523 460.774 49.8913 482.537 41.1606C504.299 32.4292 523.241 25.1759 560.988 46.2644C609.617 50.6304 639.372 52.7793 680.815 49.1523C695.421 47.8723 709.307 47.4961 721.671 47.161C744.335 46.5463 761.892 46.0706 769.411 40.4215C781.031 31.6907 826.1 -0.950065 863.111 9.19117C873.352 12.605 882.796 17.2197 891.786 21.6117C903.844 27.5017 915.08 32.9913 926.316 34.6457C945.929 37.5336 969.907 40.4885 974.274 34.6457C974.564 34.2587 974.882 33.8076 975.235 33.3059C980.223 26.2373 992.329 9.08007 1030.96 17.9226C1038.79 19.7007 1046.93 21.8707 1055.27 24.0933C1091 33.6198 1130.34 44.1052 1163.89 28.8028C1195.12 9.19117 1214 9.19117 1226.35 20.0714C1238.71 30.9517 1268.47 29.4742 1301.18 26.5863C1305.98 26.1625 1310.15 25.8171 1313.8 25.5152C1335.02 23.7576 1338.47 23.4714 1344.03 17.8549L1345.02 16.8484C1351.73 9.97549 1363.76 -2.35508 1394.88 0.392761C1427.59 3.28128 1466.08 13.4225 1476.96 34.511C1493.18 33.7599 1506.05 36.2192 1515.63 38.0517C1524.91 39.8244 1531.12 41.0108 1534.32 38.138C1540.84 32.3622 1554 22.9594 1566.29 24.3698C1578.58 25.7803 1593.9 26.5193 1604.04 19.2654C1614.18 12.0121 1644.01 3.28129 1651.26 9.12415C1655.09 12.2137 1657.91 16.9148 1659.72 21.9522C1670.47 19.0643 1684.51 18.594 1701.03 25.8473C1715.08 31.9848 1728.41 38.4713 1740.13 44.1771C1761.75 54.7053 1777.93 62.5775 1783.11 60.7046C1784.58 60.1727 1786.62 58.9252 1789.22 57.3391C1800.7 50.314 1823.05 36.6478 1855.05 49.0853Z" fill="#8E5833"/>
<path d="M1855.05 49.0853C1855.05 49.0853 1879.03 13.4895 1889.17 16.3775H1889.31C1890.26 16.6448 1891.35 16.9386 1892.56 17.2625C1900.14 19.2976 1912.12 22.5133 1920 27.7281L1919.32 112H0V45.5259C10.6808 43.1754 23.6441 43.1754 38.7571 49.0853C38.7571 49.0853 62.7346 13.4895 72.8768 16.3775C73.9806 16.6993 75.2825 17.0543 76.7293 17.4486C88.567 20.6764 110.049 26.5344 111.366 38.205C117.553 34.3096 123.018 30.813 127.919 27.6787C163.233 5.08965 169.141 1.31174 203.587 2.60927C234.63 3.77881 253.39 17.2312 268.158 27.8186C272.049 30.6094 275.662 33.2014 279.15 35.3171C309.644 26.5863 337.991 28.8028 353.237 35.3171C361.621 38.8994 376.159 39.6384 391.656 40.427C404.344 41.0724 417.674 41.7505 428.802 44.0485C453.451 49.1523 460.774 49.8913 482.537 41.1606C504.299 32.4292 523.241 25.1759 560.988 46.2644C609.617 50.6304 639.372 52.7793 680.815 49.1523C695.421 47.8723 709.307 47.4961 721.671 47.161C744.335 46.5463 761.892 46.0706 769.411 40.4215C781.031 31.6907 826.1 -0.950065 863.111 9.19117C873.354 12.6053 882.8 17.2202 891.79 21.6124C903.846 27.5022 915.082 32.9914 926.316 34.6457C945.929 37.5336 969.907 40.4885 974.274 34.6457C974.564 34.2587 974.882 33.8076 975.235 33.3059C980.223 26.2373 992.329 9.08007 1030.96 17.9226C1038.79 19.7007 1046.93 21.8707 1055.27 24.0933C1091 33.6198 1130.34 44.1052 1163.89 28.8028C1195.12 9.19117 1214 9.19117 1226.35 20.0714C1238.71 30.9517 1268.47 29.4742 1301.18 26.5863C1305.98 26.1625 1310.15 25.8164 1313.8 25.5142C1335.02 23.7571 1338.47 23.4709 1344.03 17.8549C1344.35 17.535 1344.68 17.1995 1345.02 16.8484C1351.73 9.97542 1363.76 -2.35483 1394.88 0.392761C1427.59 3.28128 1466.08 13.4225 1476.96 34.511C1493.18 33.7599 1506.05 36.2192 1515.63 38.0517C1524.91 39.8244 1531.12 41.0108 1534.32 38.138C1540.84 32.3622 1554 22.9594 1566.29 24.3698C1578.58 25.7803 1593.9 26.5193 1604.04 19.2654C1614.18 12.0121 1644.01 3.28129 1651.26 9.12415C1655.09 12.2137 1657.91 16.9148 1659.72 21.9522C1670.47 19.0643 1684.51 18.594 1701.03 25.8473C1715.08 31.9848 1728.41 38.4713 1740.13 44.1771C1761.75 54.7053 1777.93 62.5775 1783.11 60.7046C1784.58 60.1727 1786.62 58.9252 1789.22 57.3391C1800.7 50.314 1823.05 36.6478 1855.05 49.0853Z" fill="#8E5833"/>
</svg>
