<svg width="1920" height="66" viewBox="0 0 1920 66" fill="none" xmlns="http://www.w3.org/2000/svg">
<mask id="path-1-inside-1_104_300" fill="white">
<path d="M0 0H170V66H0V0Z"/>
</mask>
<path d="M0 0H170V66H0V0Z" fill="white"/>
<path d="M169 0V66H171V0H169ZM1 66V0H-1V66H1Z" fill="#02050C" mask="url(#path-1-inside-1_104_300)"/>
<path d="M9.056 42V25.2H13.544V31.656H17.6V25.2H22.088V42H17.6V34.872H13.544V42H9.056ZM31.4574 42.264C30.8734 42.264 30.2774 42.192 29.6694 42.048C29.0614 41.912 28.4774 41.692 27.9174 41.388C27.3654 41.084 26.8694 40.688 26.4294 40.2C25.9894 39.704 25.6414 39.108 25.3854 38.412C25.1294 37.716 25.0014 36.904 25.0014 35.976C25.0014 35.056 25.1294 34.248 25.3854 33.552C25.6414 32.856 25.9894 32.264 26.4294 31.776C26.8694 31.288 27.3654 30.892 27.9174 30.588C28.4774 30.284 29.0614 30.064 29.6694 29.928C30.2774 29.784 30.8734 29.712 31.4574 29.712C32.0414 29.712 32.6374 29.784 33.2454 29.928C33.8534 30.064 34.4334 30.284 34.9854 30.588C35.5454 30.892 36.0454 31.288 36.4854 31.776C36.9254 32.264 37.2734 32.856 37.5294 33.552C37.7854 34.248 37.9134 35.056 37.9134 35.976C37.9134 36.904 37.7854 37.716 37.5294 38.412C37.2734 39.108 36.9254 39.704 36.4854 40.2C36.0454 40.688 35.5454 41.084 34.9854 41.388C34.4334 41.692 33.8534 41.912 33.2454 42.048C32.6374 42.192 32.0414 42.264 31.4574 42.264ZM31.4574 39.048C31.7614 39.048 32.0294 38.988 32.2614 38.868C32.5014 38.74 32.7014 38.552 32.8614 38.304C33.0294 38.056 33.1574 37.74 33.2454 37.356C33.3334 36.964 33.3774 36.504 33.3774 35.976C33.3774 35.448 33.3334 34.992 33.2454 34.608C33.1574 34.224 33.0294 33.908 32.8614 33.66C32.7014 33.412 32.5014 33.228 32.2614 33.108C32.0294 32.988 31.7614 32.928 31.4574 32.928C31.1614 32.928 30.8934 32.988 30.6534 33.108C30.4134 33.228 30.2094 33.412 30.0414 33.66C29.8814 33.908 29.7574 34.224 29.6694 34.608C29.5814 34.992 29.5374 35.448 29.5374 35.976C29.5374 36.504 29.5814 36.964 29.6694 37.356C29.7574 37.74 29.8814 38.056 30.0414 38.304C30.2094 38.552 30.4134 38.74 30.6534 38.868C30.8934 38.988 31.1614 39.048 31.4574 39.048ZM51.5113 42L49.1833 30H52.2313L54.9193 42H51.5113ZM42.0312 42L39.7993 30H44.3833L45.8233 42H42.0312ZM44.8393 42L47.5033 30H50.5513L48.2473 42H44.8393ZM53.9113 42L55.3513 30H59.9353L57.7033 42H53.9113ZM78.1366 42V28.44H73.8646V25.2H86.9206V28.44H82.6246V42H78.1366ZM94.9027 42.264C94.3187 42.264 93.7227 42.192 93.1147 42.048C92.5067 41.912 91.9227 41.692 91.3627 41.388C90.8107 41.084 90.3147 40.688 89.8747 40.2C89.4347 39.704 89.0867 39.108 88.8307 38.412C88.5747 37.716 88.4467 36.904 88.4467 35.976C88.4467 35.056 88.5747 34.248 88.8307 33.552C89.0867 32.856 89.4347 32.264 89.8747 31.776C90.3147 31.288 90.8107 30.892 91.3627 30.588C91.9227 30.284 92.5067 30.064 93.1147 29.928C93.7227 29.784 94.3187 29.712 94.9027 29.712C95.4867 29.712 96.0827 29.784 96.6907 29.928C97.2987 30.064 97.8787 30.284 98.4307 30.588C98.9907 30.892 99.4907 31.288 99.9307 31.776C100.371 32.264 100.719 32.856 100.975 33.552C101.231 34.248 101.359 35.056 101.359 35.976C101.359 36.904 101.231 37.716 100.975 38.412C100.719 39.108 100.371 39.704 99.9307 40.2C99.4907 40.688 98.9907 41.084 98.4307 41.388C97.8787 41.692 97.2987 41.912 96.6907 42.048C96.0827 42.192 95.4867 42.264 94.9027 42.264ZM94.9027 39.048C95.2067 39.048 95.4747 38.988 95.7067 38.868C95.9467 38.74 96.1467 38.552 96.3067 38.304C96.4747 38.056 96.6027 37.74 96.6907 37.356C96.7787 36.964 96.8227 36.504 96.8227 35.976C96.8227 35.448 96.7787 34.992 96.6907 34.608C96.6027 34.224 96.4747 33.908 96.3067 33.66C96.1467 33.412 95.9467 33.228 95.7067 33.108C95.4747 32.988 95.2067 32.928 94.9027 32.928C94.6067 32.928 94.3387 32.988 94.0987 33.108C93.8587 33.228 93.6547 33.412 93.4867 33.66C93.3267 33.908 93.2027 34.224 93.1147 34.608C93.0267 34.992 92.9827 35.448 92.9827 35.976C92.9827 36.504 93.0267 36.964 93.1147 37.356C93.2027 37.74 93.3267 38.056 93.4867 38.304C93.6547 38.552 93.8587 38.74 94.0987 38.868C94.3387 38.988 94.6067 39.048 94.9027 39.048ZM116.392 42V25.2H122.752C123.152 25.2 123.612 25.22 124.132 25.26C124.66 25.3 125.192 25.392 125.728 25.536C126.272 25.672 126.772 25.888 127.228 26.184C127.684 26.48 128.052 26.88 128.332 27.384C128.612 27.888 128.752 28.528 128.752 29.304C128.752 29.944 128.664 30.496 128.488 30.96C128.312 31.424 128.08 31.808 127.792 32.112C127.504 32.408 127.196 32.636 126.868 32.796C126.54 32.956 126.224 33.048 125.92 33.072C126.288 33.104 126.672 33.208 127.072 33.384C127.472 33.56 127.844 33.816 128.188 34.152C128.532 34.48 128.812 34.896 129.028 35.4C129.244 35.904 129.352 36.504 129.352 37.2C129.352 38.272 129.132 39.164 128.692 39.876C128.252 40.588 127.652 41.12 126.892 41.472C126.14 41.824 125.288 42 124.336 42H116.392ZM120.88 38.76H122.752C123.2 38.76 123.58 38.708 123.892 38.604C124.204 38.492 124.44 38.3 124.6 38.028C124.76 37.756 124.84 37.368 124.84 36.864C124.84 36.296 124.748 35.876 124.564 35.604C124.388 35.332 124.132 35.156 123.796 35.076C123.46 34.988 123.064 34.944 122.608 34.944H120.88V38.76ZM120.88 31.728H122.128C122.848 31.728 123.408 31.608 123.808 31.368C124.208 31.128 124.408 30.68 124.408 30.024C124.408 29.72 124.36 29.468 124.264 29.268C124.168 29.068 124.024 28.908 123.832 28.788C123.64 28.66 123.4 28.572 123.112 28.524C122.832 28.468 122.504 28.44 122.128 28.44H120.88V31.728ZM135.457 42.24C134.817 42.24 134.249 42.128 133.753 41.904C133.257 41.672 132.837 41.324 132.493 40.86C132.157 40.388 131.901 39.792 131.725 39.072C131.557 38.352 131.473 37.504 131.473 36.528V30H135.961V36.576C135.961 37.224 136.009 37.712 136.105 38.04C136.201 38.36 136.353 38.576 136.561 38.688C136.777 38.8 137.065 38.856 137.425 38.856C137.729 38.856 137.989 38.796 138.205 38.676C138.429 38.556 138.613 38.396 138.757 38.196C138.901 37.996 139.009 37.784 139.081 37.56C139.161 37.328 139.209 37.104 139.225 36.888L140.233 36.912C140.233 37.584 140.129 38.24 139.921 38.88C139.713 39.512 139.405 40.08 138.997 40.584C138.597 41.088 138.101 41.492 137.509 41.796C136.917 42.092 136.233 42.24 135.457 42.24ZM140.161 42L139.129 38.904V30H143.617V39.6L143.005 38.76H144.937V42H140.161ZM150.947 46.8L156.203 30H160.835L155.483 46.8H150.947ZM150.635 42L146.795 30H151.475L155.099 42H150.635Z" fill="#02050C"/>
<mask id="path-4-inside-2_104_300" fill="white">
<path d="M170 0H340V66H170V0Z"/>
</mask>
<path d="M170 0H340V66H170V0Z" fill="white"/>
<path d="M339 0V66H341V0H339ZM171 66V0H169V66H171Z" fill="#02050C" mask="url(#path-4-inside-2_104_300)"/>
<path d="M179.056 42V25.2H183.544V31.656H187.6V25.2H192.088V42H187.6V34.872H183.544V42H179.056ZM201.457 42.264C200.873 42.264 200.277 42.192 199.669 42.048C199.061 41.912 198.477 41.692 197.917 41.388C197.365 41.084 196.869 40.688 196.429 40.2C195.989 39.704 195.641 39.108 195.385 38.412C195.129 37.716 195.001 36.904 195.001 35.976C195.001 35.056 195.129 34.248 195.385 33.552C195.641 32.856 195.989 32.264 196.429 31.776C196.869 31.288 197.365 30.892 197.917 30.588C198.477 30.284 199.061 30.064 199.669 29.928C200.277 29.784 200.873 29.712 201.457 29.712C202.041 29.712 202.637 29.784 203.245 29.928C203.853 30.064 204.433 30.284 204.985 30.588C205.545 30.892 206.045 31.288 206.485 31.776C206.925 32.264 207.273 32.856 207.529 33.552C207.785 34.248 207.913 35.056 207.913 35.976C207.913 36.904 207.785 37.716 207.529 38.412C207.273 39.108 206.925 39.704 206.485 40.2C206.045 40.688 205.545 41.084 204.985 41.388C204.433 41.692 203.853 41.912 203.245 42.048C202.637 42.192 202.041 42.264 201.457 42.264ZM201.457 39.048C201.761 39.048 202.029 38.988 202.261 38.868C202.501 38.74 202.701 38.552 202.861 38.304C203.029 38.056 203.157 37.74 203.245 37.356C203.333 36.964 203.377 36.504 203.377 35.976C203.377 35.448 203.333 34.992 203.245 34.608C203.157 34.224 203.029 33.908 202.861 33.66C202.701 33.412 202.501 33.228 202.261 33.108C202.029 32.988 201.761 32.928 201.457 32.928C201.161 32.928 200.893 32.988 200.653 33.108C200.413 33.228 200.209 33.412 200.041 33.66C199.881 33.908 199.757 34.224 199.669 34.608C199.581 34.992 199.537 35.448 199.537 35.976C199.537 36.504 199.581 36.964 199.669 37.356C199.757 37.74 199.881 38.056 200.041 38.304C200.209 38.552 200.413 38.74 200.653 38.868C200.893 38.988 201.161 39.048 201.457 39.048ZM221.511 42L219.183 30H222.231L224.919 42H221.511ZM212.031 42L209.799 30H214.383L215.823 42H212.031ZM214.839 42L217.503 30H220.551L218.247 42H214.839ZM223.911 42L225.351 30H229.935L227.703 42H223.911ZM248.137 42V28.44H243.865V25.2H256.921V28.44H252.625V42H248.137ZM264.903 42.264C264.319 42.264 263.723 42.192 263.115 42.048C262.507 41.912 261.923 41.692 261.363 41.388C260.811 41.084 260.315 40.688 259.875 40.2C259.435 39.704 259.087 39.108 258.831 38.412C258.575 37.716 258.447 36.904 258.447 35.976C258.447 35.056 258.575 34.248 258.831 33.552C259.087 32.856 259.435 32.264 259.875 31.776C260.315 31.288 260.811 30.892 261.363 30.588C261.923 30.284 262.507 30.064 263.115 29.928C263.723 29.784 264.319 29.712 264.903 29.712C265.487 29.712 266.083 29.784 266.691 29.928C267.299 30.064 267.879 30.284 268.431 30.588C268.991 30.892 269.491 31.288 269.931 31.776C270.371 32.264 270.719 32.856 270.975 33.552C271.231 34.248 271.359 35.056 271.359 35.976C271.359 36.904 271.231 37.716 270.975 38.412C270.719 39.108 270.371 39.704 269.931 40.2C269.491 40.688 268.991 41.084 268.431 41.388C267.879 41.692 267.299 41.912 266.691 42.048C266.083 42.192 265.487 42.264 264.903 42.264ZM264.903 39.048C265.207 39.048 265.475 38.988 265.707 38.868C265.947 38.74 266.147 38.552 266.307 38.304C266.475 38.056 266.603 37.74 266.691 37.356C266.779 36.964 266.823 36.504 266.823 35.976C266.823 35.448 266.779 34.992 266.691 34.608C266.603 34.224 266.475 33.908 266.307 33.66C266.147 33.412 265.947 33.228 265.707 33.108C265.475 32.988 265.207 32.928 264.903 32.928C264.607 32.928 264.339 32.988 264.099 33.108C263.859 33.228 263.655 33.412 263.487 33.66C263.327 33.908 263.203 34.224 263.115 34.608C263.027 34.992 262.983 35.448 262.983 35.976C262.983 36.504 263.027 36.964 263.115 37.356C263.203 37.74 263.327 38.056 263.487 38.304C263.655 38.552 263.859 38.74 264.099 38.868C264.339 38.988 264.607 39.048 264.903 39.048ZM286.392 42V25.2H292.752C293.152 25.2 293.612 25.22 294.132 25.26C294.66 25.3 295.192 25.392 295.728 25.536C296.272 25.672 296.772 25.888 297.228 26.184C297.684 26.48 298.052 26.88 298.332 27.384C298.612 27.888 298.752 28.528 298.752 29.304C298.752 29.944 298.664 30.496 298.488 30.96C298.312 31.424 298.08 31.808 297.792 32.112C297.504 32.408 297.196 32.636 296.868 32.796C296.54 32.956 296.224 33.048 295.92 33.072C296.288 33.104 296.672 33.208 297.072 33.384C297.472 33.56 297.844 33.816 298.188 34.152C298.532 34.48 298.812 34.896 299.028 35.4C299.244 35.904 299.352 36.504 299.352 37.2C299.352 38.272 299.132 39.164 298.692 39.876C298.252 40.588 297.652 41.12 296.892 41.472C296.14 41.824 295.288 42 294.336 42H286.392ZM290.88 38.76H292.752C293.2 38.76 293.58 38.708 293.892 38.604C294.204 38.492 294.44 38.3 294.6 38.028C294.76 37.756 294.84 37.368 294.84 36.864C294.84 36.296 294.748 35.876 294.564 35.604C294.388 35.332 294.132 35.156 293.796 35.076C293.46 34.988 293.064 34.944 292.608 34.944H290.88V38.76ZM290.88 31.728H292.128C292.848 31.728 293.408 31.608 293.808 31.368C294.208 31.128 294.408 30.68 294.408 30.024C294.408 29.72 294.36 29.468 294.264 29.268C294.168 29.068 294.024 28.908 293.832 28.788C293.64 28.66 293.4 28.572 293.112 28.524C292.832 28.468 292.504 28.44 292.128 28.44H290.88V31.728ZM305.457 42.24C304.817 42.24 304.249 42.128 303.753 41.904C303.257 41.672 302.837 41.324 302.493 40.86C302.157 40.388 301.901 39.792 301.725 39.072C301.557 38.352 301.473 37.504 301.473 36.528V30H305.961V36.576C305.961 37.224 306.009 37.712 306.105 38.04C306.201 38.36 306.353 38.576 306.561 38.688C306.777 38.8 307.065 38.856 307.425 38.856C307.729 38.856 307.989 38.796 308.205 38.676C308.429 38.556 308.613 38.396 308.757 38.196C308.901 37.996 309.009 37.784 309.081 37.56C309.161 37.328 309.209 37.104 309.225 36.888L310.233 36.912C310.233 37.584 310.129 38.24 309.921 38.88C309.713 39.512 309.405 40.08 308.997 40.584C308.597 41.088 308.101 41.492 307.509 41.796C306.917 42.092 306.233 42.24 305.457 42.24ZM310.161 42L309.129 38.904V30H313.617V39.6L313.005 38.76H314.937V42H310.161ZM320.947 46.8L326.203 30H330.835L325.483 46.8H320.947ZM320.635 42L316.795 30H321.475L325.099 42H320.635Z" fill="#02050C"/>
<mask id="path-7-inside-3_104_300" fill="white">
<path d="M340 0H510V66H340V0Z"/>
</mask>
<path d="M340 0H510V66H340V0Z" fill="white"/>
<path d="M509 0V66H511V0H509ZM341 66V0H339V66H341Z" fill="#02050C" mask="url(#path-7-inside-3_104_300)"/>
<path d="M349.056 42V25.2H353.544V31.656H357.6V25.2H362.088V42H357.6V34.872H353.544V42H349.056ZM371.457 42.264C370.873 42.264 370.277 42.192 369.669 42.048C369.061 41.912 368.477 41.692 367.917 41.388C367.365 41.084 366.869 40.688 366.429 40.2C365.989 39.704 365.641 39.108 365.385 38.412C365.129 37.716 365.001 36.904 365.001 35.976C365.001 35.056 365.129 34.248 365.385 33.552C365.641 32.856 365.989 32.264 366.429 31.776C366.869 31.288 367.365 30.892 367.917 30.588C368.477 30.284 369.061 30.064 369.669 29.928C370.277 29.784 370.873 29.712 371.457 29.712C372.041 29.712 372.637 29.784 373.245 29.928C373.853 30.064 374.433 30.284 374.985 30.588C375.545 30.892 376.045 31.288 376.485 31.776C376.925 32.264 377.273 32.856 377.529 33.552C377.785 34.248 377.913 35.056 377.913 35.976C377.913 36.904 377.785 37.716 377.529 38.412C377.273 39.108 376.925 39.704 376.485 40.2C376.045 40.688 375.545 41.084 374.985 41.388C374.433 41.692 373.853 41.912 373.245 42.048C372.637 42.192 372.041 42.264 371.457 42.264ZM371.457 39.048C371.761 39.048 372.029 38.988 372.261 38.868C372.501 38.74 372.701 38.552 372.861 38.304C373.029 38.056 373.157 37.74 373.245 37.356C373.333 36.964 373.377 36.504 373.377 35.976C373.377 35.448 373.333 34.992 373.245 34.608C373.157 34.224 373.029 33.908 372.861 33.66C372.701 33.412 372.501 33.228 372.261 33.108C372.029 32.988 371.761 32.928 371.457 32.928C371.161 32.928 370.893 32.988 370.653 33.108C370.413 33.228 370.209 33.412 370.041 33.66C369.881 33.908 369.757 34.224 369.669 34.608C369.581 34.992 369.537 35.448 369.537 35.976C369.537 36.504 369.581 36.964 369.669 37.356C369.757 37.74 369.881 38.056 370.041 38.304C370.209 38.552 370.413 38.74 370.653 38.868C370.893 38.988 371.161 39.048 371.457 39.048ZM391.511 42L389.183 30H392.231L394.919 42H391.511ZM382.031 42L379.799 30H384.383L385.823 42H382.031ZM384.839 42L387.503 30H390.551L388.247 42H384.839ZM393.911 42L395.351 30H399.935L397.703 42H393.911ZM418.137 42V28.44H413.865V25.2H426.921V28.44H422.625V42H418.137ZM434.903 42.264C434.319 42.264 433.723 42.192 433.115 42.048C432.507 41.912 431.923 41.692 431.363 41.388C430.811 41.084 430.315 40.688 429.875 40.2C429.435 39.704 429.087 39.108 428.831 38.412C428.575 37.716 428.447 36.904 428.447 35.976C428.447 35.056 428.575 34.248 428.831 33.552C429.087 32.856 429.435 32.264 429.875 31.776C430.315 31.288 430.811 30.892 431.363 30.588C431.923 30.284 432.507 30.064 433.115 29.928C433.723 29.784 434.319 29.712 434.903 29.712C435.487 29.712 436.083 29.784 436.691 29.928C437.299 30.064 437.879 30.284 438.431 30.588C438.991 30.892 439.491 31.288 439.931 31.776C440.371 32.264 440.719 32.856 440.975 33.552C441.231 34.248 441.359 35.056 441.359 35.976C441.359 36.904 441.231 37.716 440.975 38.412C440.719 39.108 440.371 39.704 439.931 40.2C439.491 40.688 438.991 41.084 438.431 41.388C437.879 41.692 437.299 41.912 436.691 42.048C436.083 42.192 435.487 42.264 434.903 42.264ZM434.903 39.048C435.207 39.048 435.475 38.988 435.707 38.868C435.947 38.74 436.147 38.552 436.307 38.304C436.475 38.056 436.603 37.74 436.691 37.356C436.779 36.964 436.823 36.504 436.823 35.976C436.823 35.448 436.779 34.992 436.691 34.608C436.603 34.224 436.475 33.908 436.307 33.66C436.147 33.412 435.947 33.228 435.707 33.108C435.475 32.988 435.207 32.928 434.903 32.928C434.607 32.928 434.339 32.988 434.099 33.108C433.859 33.228 433.655 33.412 433.487 33.66C433.327 33.908 433.203 34.224 433.115 34.608C433.027 34.992 432.983 35.448 432.983 35.976C432.983 36.504 433.027 36.964 433.115 37.356C433.203 37.74 433.327 38.056 433.487 38.304C433.655 38.552 433.859 38.74 434.099 38.868C434.339 38.988 434.607 39.048 434.903 39.048ZM456.392 42V25.2H462.752C463.152 25.2 463.612 25.22 464.132 25.26C464.66 25.3 465.192 25.392 465.728 25.536C466.272 25.672 466.772 25.888 467.228 26.184C467.684 26.48 468.052 26.88 468.332 27.384C468.612 27.888 468.752 28.528 468.752 29.304C468.752 29.944 468.664 30.496 468.488 30.96C468.312 31.424 468.08 31.808 467.792 32.112C467.504 32.408 467.196 32.636 466.868 32.796C466.54 32.956 466.224 33.048 465.92 33.072C466.288 33.104 466.672 33.208 467.072 33.384C467.472 33.56 467.844 33.816 468.188 34.152C468.532 34.48 468.812 34.896 469.028 35.4C469.244 35.904 469.352 36.504 469.352 37.2C469.352 38.272 469.132 39.164 468.692 39.876C468.252 40.588 467.652 41.12 466.892 41.472C466.14 41.824 465.288 42 464.336 42H456.392ZM460.88 38.76H462.752C463.2 38.76 463.58 38.708 463.892 38.604C464.204 38.492 464.44 38.3 464.6 38.028C464.76 37.756 464.84 37.368 464.84 36.864C464.84 36.296 464.748 35.876 464.564 35.604C464.388 35.332 464.132 35.156 463.796 35.076C463.46 34.988 463.064 34.944 462.608 34.944H460.88V38.76ZM460.88 31.728H462.128C462.848 31.728 463.408 31.608 463.808 31.368C464.208 31.128 464.408 30.68 464.408 30.024C464.408 29.72 464.36 29.468 464.264 29.268C464.168 29.068 464.024 28.908 463.832 28.788C463.64 28.66 463.4 28.572 463.112 28.524C462.832 28.468 462.504 28.44 462.128 28.44H460.88V31.728ZM475.457 42.24C474.817 42.24 474.249 42.128 473.753 41.904C473.257 41.672 472.837 41.324 472.493 40.86C472.157 40.388 471.901 39.792 471.725 39.072C471.557 38.352 471.473 37.504 471.473 36.528V30H475.961V36.576C475.961 37.224 476.009 37.712 476.105 38.04C476.201 38.36 476.353 38.576 476.561 38.688C476.777 38.8 477.065 38.856 477.425 38.856C477.729 38.856 477.989 38.796 478.205 38.676C478.429 38.556 478.613 38.396 478.757 38.196C478.901 37.996 479.009 37.784 479.081 37.56C479.161 37.328 479.209 37.104 479.225 36.888L480.233 36.912C480.233 37.584 480.129 38.24 479.921 38.88C479.713 39.512 479.405 40.08 478.997 40.584C478.597 41.088 478.101 41.492 477.509 41.796C476.917 42.092 476.233 42.24 475.457 42.24ZM480.161 42L479.129 38.904V30H483.617V39.6L483.005 38.76H484.937V42H480.161ZM490.947 46.8L496.203 30H500.835L495.483 46.8H490.947ZM490.635 42L486.795 30H491.475L495.099 42H490.635Z" fill="#02050C"/>
<mask id="path-10-inside-4_104_300" fill="white">
<path d="M510 0H680V66H510V0Z"/>
</mask>
<path d="M510 0H680V66H510V0Z" fill="white"/>
<path d="M679 0V66H681V0H679ZM511 66V0H509V66H511Z" fill="#02050C" mask="url(#path-10-inside-4_104_300)"/>
<path d="M519.056 42V25.2H523.544V31.656H527.6V25.2H532.088V42H527.6V34.872H523.544V42H519.056ZM541.457 42.264C540.873 42.264 540.277 42.192 539.669 42.048C539.061 41.912 538.477 41.692 537.917 41.388C537.365 41.084 536.869 40.688 536.429 40.2C535.989 39.704 535.641 39.108 535.385 38.412C535.129 37.716 535.001 36.904 535.001 35.976C535.001 35.056 535.129 34.248 535.385 33.552C535.641 32.856 535.989 32.264 536.429 31.776C536.869 31.288 537.365 30.892 537.917 30.588C538.477 30.284 539.061 30.064 539.669 29.928C540.277 29.784 540.873 29.712 541.457 29.712C542.041 29.712 542.637 29.784 543.245 29.928C543.853 30.064 544.433 30.284 544.985 30.588C545.545 30.892 546.045 31.288 546.485 31.776C546.925 32.264 547.273 32.856 547.529 33.552C547.785 34.248 547.913 35.056 547.913 35.976C547.913 36.904 547.785 37.716 547.529 38.412C547.273 39.108 546.925 39.704 546.485 40.2C546.045 40.688 545.545 41.084 544.985 41.388C544.433 41.692 543.853 41.912 543.245 42.048C542.637 42.192 542.041 42.264 541.457 42.264ZM541.457 39.048C541.761 39.048 542.029 38.988 542.261 38.868C542.501 38.74 542.701 38.552 542.861 38.304C543.029 38.056 543.157 37.74 543.245 37.356C543.333 36.964 543.377 36.504 543.377 35.976C543.377 35.448 543.333 34.992 543.245 34.608C543.157 34.224 543.029 33.908 542.861 33.66C542.701 33.412 542.501 33.228 542.261 33.108C542.029 32.988 541.761 32.928 541.457 32.928C541.161 32.928 540.893 32.988 540.653 33.108C540.413 33.228 540.209 33.412 540.041 33.66C539.881 33.908 539.757 34.224 539.669 34.608C539.581 34.992 539.537 35.448 539.537 35.976C539.537 36.504 539.581 36.964 539.669 37.356C539.757 37.74 539.881 38.056 540.041 38.304C540.209 38.552 540.413 38.74 540.653 38.868C540.893 38.988 541.161 39.048 541.457 39.048ZM561.511 42L559.183 30H562.231L564.919 42H561.511ZM552.031 42L549.799 30H554.383L555.823 42H552.031ZM554.839 42L557.503 30H560.551L558.247 42H554.839ZM563.911 42L565.351 30H569.935L567.703 42H563.911ZM588.137 42V28.44H583.865V25.2H596.921V28.44H592.625V42H588.137ZM604.903 42.264C604.319 42.264 603.723 42.192 603.115 42.048C602.507 41.912 601.923 41.692 601.363 41.388C600.811 41.084 600.315 40.688 599.875 40.2C599.435 39.704 599.087 39.108 598.831 38.412C598.575 37.716 598.447 36.904 598.447 35.976C598.447 35.056 598.575 34.248 598.831 33.552C599.087 32.856 599.435 32.264 599.875 31.776C600.315 31.288 600.811 30.892 601.363 30.588C601.923 30.284 602.507 30.064 603.115 29.928C603.723 29.784 604.319 29.712 604.903 29.712C605.487 29.712 606.083 29.784 606.691 29.928C607.299 30.064 607.879 30.284 608.431 30.588C608.991 30.892 609.491 31.288 609.931 31.776C610.371 32.264 610.719 32.856 610.975 33.552C611.231 34.248 611.359 35.056 611.359 35.976C611.359 36.904 611.231 37.716 610.975 38.412C610.719 39.108 610.371 39.704 609.931 40.2C609.491 40.688 608.991 41.084 608.431 41.388C607.879 41.692 607.299 41.912 606.691 42.048C606.083 42.192 605.487 42.264 604.903 42.264ZM604.903 39.048C605.207 39.048 605.475 38.988 605.707 38.868C605.947 38.74 606.147 38.552 606.307 38.304C606.475 38.056 606.603 37.74 606.691 37.356C606.779 36.964 606.823 36.504 606.823 35.976C606.823 35.448 606.779 34.992 606.691 34.608C606.603 34.224 606.475 33.908 606.307 33.66C606.147 33.412 605.947 33.228 605.707 33.108C605.475 32.988 605.207 32.928 604.903 32.928C604.607 32.928 604.339 32.988 604.099 33.108C603.859 33.228 603.655 33.412 603.487 33.66C603.327 33.908 603.203 34.224 603.115 34.608C603.027 34.992 602.983 35.448 602.983 35.976C602.983 36.504 603.027 36.964 603.115 37.356C603.203 37.74 603.327 38.056 603.487 38.304C603.655 38.552 603.859 38.74 604.099 38.868C604.339 38.988 604.607 39.048 604.903 39.048ZM626.392 42V25.2H632.752C633.152 25.2 633.612 25.22 634.132 25.26C634.66 25.3 635.192 25.392 635.728 25.536C636.272 25.672 636.772 25.888 637.228 26.184C637.684 26.48 638.052 26.88 638.332 27.384C638.612 27.888 638.752 28.528 638.752 29.304C638.752 29.944 638.664 30.496 638.488 30.96C638.312 31.424 638.08 31.808 637.792 32.112C637.504 32.408 637.196 32.636 636.868 32.796C636.54 32.956 636.224 33.048 635.92 33.072C636.288 33.104 636.672 33.208 637.072 33.384C637.472 33.56 637.844 33.816 638.188 34.152C638.532 34.48 638.812 34.896 639.028 35.4C639.244 35.904 639.352 36.504 639.352 37.2C639.352 38.272 639.132 39.164 638.692 39.876C638.252 40.588 637.652 41.12 636.892 41.472C636.14 41.824 635.288 42 634.336 42H626.392ZM630.88 38.76H632.752C633.2 38.76 633.58 38.708 633.892 38.604C634.204 38.492 634.44 38.3 634.6 38.028C634.76 37.756 634.84 37.368 634.84 36.864C634.84 36.296 634.748 35.876 634.564 35.604C634.388 35.332 634.132 35.156 633.796 35.076C633.46 34.988 633.064 34.944 632.608 34.944H630.88V38.76ZM630.88 31.728H632.128C632.848 31.728 633.408 31.608 633.808 31.368C634.208 31.128 634.408 30.68 634.408 30.024C634.408 29.72 634.36 29.468 634.264 29.268C634.168 29.068 634.024 28.908 633.832 28.788C633.64 28.66 633.4 28.572 633.112 28.524C632.832 28.468 632.504 28.44 632.128 28.44H630.88V31.728ZM645.457 42.24C644.817 42.24 644.249 42.128 643.753 41.904C643.257 41.672 642.837 41.324 642.493 40.86C642.157 40.388 641.901 39.792 641.725 39.072C641.557 38.352 641.473 37.504 641.473 36.528V30H645.961V36.576C645.961 37.224 646.009 37.712 646.105 38.04C646.201 38.36 646.353 38.576 646.561 38.688C646.777 38.8 647.065 38.856 647.425 38.856C647.729 38.856 647.989 38.796 648.205 38.676C648.429 38.556 648.613 38.396 648.757 38.196C648.901 37.996 649.009 37.784 649.081 37.56C649.161 37.328 649.209 37.104 649.225 36.888L650.233 36.912C650.233 37.584 650.129 38.24 649.921 38.88C649.713 39.512 649.405 40.08 648.997 40.584C648.597 41.088 648.101 41.492 647.509 41.796C646.917 42.092 646.233 42.24 645.457 42.24ZM650.161 42L649.129 38.904V30H653.617V39.6L653.005 38.76H654.937V42H650.161ZM660.947 46.8L666.203 30H670.835L665.483 46.8H660.947ZM660.635 42L656.795 30H661.475L665.099 42H660.635Z" fill="#02050C"/>
<mask id="path-13-inside-5_104_300" fill="white">
<path d="M680 0H850V66H680V0Z"/>
</mask>
<path d="M680 0H850V66H680V0Z" fill="white"/>
<path d="M849 0V66H851V0H849ZM681 66V0H679V66H681Z" fill="#02050C" mask="url(#path-13-inside-5_104_300)"/>
<path d="M689.056 42V25.2H693.544V31.656H697.6V25.2H702.088V42H697.6V34.872H693.544V42H689.056ZM711.457 42.264C710.873 42.264 710.277 42.192 709.669 42.048C709.061 41.912 708.477 41.692 707.917 41.388C707.365 41.084 706.869 40.688 706.429 40.2C705.989 39.704 705.641 39.108 705.385 38.412C705.129 37.716 705.001 36.904 705.001 35.976C705.001 35.056 705.129 34.248 705.385 33.552C705.641 32.856 705.989 32.264 706.429 31.776C706.869 31.288 707.365 30.892 707.917 30.588C708.477 30.284 709.061 30.064 709.669 29.928C710.277 29.784 710.873 29.712 711.457 29.712C712.041 29.712 712.637 29.784 713.245 29.928C713.853 30.064 714.433 30.284 714.985 30.588C715.545 30.892 716.045 31.288 716.485 31.776C716.925 32.264 717.273 32.856 717.529 33.552C717.785 34.248 717.913 35.056 717.913 35.976C717.913 36.904 717.785 37.716 717.529 38.412C717.273 39.108 716.925 39.704 716.485 40.2C716.045 40.688 715.545 41.084 714.985 41.388C714.433 41.692 713.853 41.912 713.245 42.048C712.637 42.192 712.041 42.264 711.457 42.264ZM711.457 39.048C711.761 39.048 712.029 38.988 712.261 38.868C712.501 38.74 712.701 38.552 712.861 38.304C713.029 38.056 713.157 37.74 713.245 37.356C713.333 36.964 713.377 36.504 713.377 35.976C713.377 35.448 713.333 34.992 713.245 34.608C713.157 34.224 713.029 33.908 712.861 33.66C712.701 33.412 712.501 33.228 712.261 33.108C712.029 32.988 711.761 32.928 711.457 32.928C711.161 32.928 710.893 32.988 710.653 33.108C710.413 33.228 710.209 33.412 710.041 33.66C709.881 33.908 709.757 34.224 709.669 34.608C709.581 34.992 709.537 35.448 709.537 35.976C709.537 36.504 709.581 36.964 709.669 37.356C709.757 37.74 709.881 38.056 710.041 38.304C710.209 38.552 710.413 38.74 710.653 38.868C710.893 38.988 711.161 39.048 711.457 39.048ZM731.511 42L729.183 30H732.231L734.919 42H731.511ZM722.031 42L719.799 30H724.383L725.823 42H722.031ZM724.839 42L727.503 30H730.551L728.247 42H724.839ZM733.911 42L735.351 30H739.935L737.703 42H733.911ZM758.137 42V28.44H753.865V25.2H766.921V28.44H762.625V42H758.137ZM774.903 42.264C774.319 42.264 773.723 42.192 773.115 42.048C772.507 41.912 771.923 41.692 771.363 41.388C770.811 41.084 770.315 40.688 769.875 40.2C769.435 39.704 769.087 39.108 768.831 38.412C768.575 37.716 768.447 36.904 768.447 35.976C768.447 35.056 768.575 34.248 768.831 33.552C769.087 32.856 769.435 32.264 769.875 31.776C770.315 31.288 770.811 30.892 771.363 30.588C771.923 30.284 772.507 30.064 773.115 29.928C773.723 29.784 774.319 29.712 774.903 29.712C775.487 29.712 776.083 29.784 776.691 29.928C777.299 30.064 777.879 30.284 778.431 30.588C778.991 30.892 779.491 31.288 779.931 31.776C780.371 32.264 780.719 32.856 780.975 33.552C781.231 34.248 781.359 35.056 781.359 35.976C781.359 36.904 781.231 37.716 780.975 38.412C780.719 39.108 780.371 39.704 779.931 40.2C779.491 40.688 778.991 41.084 778.431 41.388C777.879 41.692 777.299 41.912 776.691 42.048C776.083 42.192 775.487 42.264 774.903 42.264ZM774.903 39.048C775.207 39.048 775.475 38.988 775.707 38.868C775.947 38.74 776.147 38.552 776.307 38.304C776.475 38.056 776.603 37.74 776.691 37.356C776.779 36.964 776.823 36.504 776.823 35.976C776.823 35.448 776.779 34.992 776.691 34.608C776.603 34.224 776.475 33.908 776.307 33.66C776.147 33.412 775.947 33.228 775.707 33.108C775.475 32.988 775.207 32.928 774.903 32.928C774.607 32.928 774.339 32.988 774.099 33.108C773.859 33.228 773.655 33.412 773.487 33.66C773.327 33.908 773.203 34.224 773.115 34.608C773.027 34.992 772.983 35.448 772.983 35.976C772.983 36.504 773.027 36.964 773.115 37.356C773.203 37.74 773.327 38.056 773.487 38.304C773.655 38.552 773.859 38.74 774.099 38.868C774.339 38.988 774.607 39.048 774.903 39.048ZM796.392 42V25.2H802.752C803.152 25.2 803.612 25.22 804.132 25.26C804.66 25.3 805.192 25.392 805.728 25.536C806.272 25.672 806.772 25.888 807.228 26.184C807.684 26.48 808.052 26.88 808.332 27.384C808.612 27.888 808.752 28.528 808.752 29.304C808.752 29.944 808.664 30.496 808.488 30.96C808.312 31.424 808.08 31.808 807.792 32.112C807.504 32.408 807.196 32.636 806.868 32.796C806.54 32.956 806.224 33.048 805.92 33.072C806.288 33.104 806.672 33.208 807.072 33.384C807.472 33.56 807.844 33.816 808.188 34.152C808.532 34.48 808.812 34.896 809.028 35.4C809.244 35.904 809.352 36.504 809.352 37.2C809.352 38.272 809.132 39.164 808.692 39.876C808.252 40.588 807.652 41.12 806.892 41.472C806.14 41.824 805.288 42 804.336 42H796.392ZM800.88 38.76H802.752C803.2 38.76 803.58 38.708 803.892 38.604C804.204 38.492 804.44 38.3 804.6 38.028C804.76 37.756 804.84 37.368 804.84 36.864C804.84 36.296 804.748 35.876 804.564 35.604C804.388 35.332 804.132 35.156 803.796 35.076C803.46 34.988 803.064 34.944 802.608 34.944H800.88V38.76ZM800.88 31.728H802.128C802.848 31.728 803.408 31.608 803.808 31.368C804.208 31.128 804.408 30.68 804.408 30.024C804.408 29.72 804.36 29.468 804.264 29.268C804.168 29.068 804.024 28.908 803.832 28.788C803.64 28.66 803.4 28.572 803.112 28.524C802.832 28.468 802.504 28.44 802.128 28.44H800.88V31.728ZM815.457 42.24C814.817 42.24 814.249 42.128 813.753 41.904C813.257 41.672 812.837 41.324 812.493 40.86C812.157 40.388 811.901 39.792 811.725 39.072C811.557 38.352 811.473 37.504 811.473 36.528V30H815.961V36.576C815.961 37.224 816.009 37.712 816.105 38.04C816.201 38.36 816.353 38.576 816.561 38.688C816.777 38.8 817.065 38.856 817.425 38.856C817.729 38.856 817.989 38.796 818.205 38.676C818.429 38.556 818.613 38.396 818.757 38.196C818.901 37.996 819.009 37.784 819.081 37.56C819.161 37.328 819.209 37.104 819.225 36.888L820.233 36.912C820.233 37.584 820.129 38.24 819.921 38.88C819.713 39.512 819.405 40.08 818.997 40.584C818.597 41.088 818.101 41.492 817.509 41.796C816.917 42.092 816.233 42.24 815.457 42.24ZM820.161 42L819.129 38.904V30H823.617V39.6L823.005 38.76H824.937V42H820.161ZM830.947 46.8L836.203 30H840.835L835.483 46.8H830.947ZM830.635 42L826.795 30H831.475L835.099 42H830.635Z" fill="#02050C"/>
<mask id="path-16-inside-6_104_300" fill="white">
<path d="M850 0H1020V66H850V0Z"/>
</mask>
<path d="M850 0H1020V66H850V0Z" fill="white"/>
<path d="M1019 0V66H1021V0H1019ZM851 66V0H849V66H851Z" fill="#02050C" mask="url(#path-16-inside-6_104_300)"/>
<path d="M859.056 42V25.2H863.544V31.656H867.6V25.2H872.088V42H867.6V34.872H863.544V42H859.056ZM881.457 42.264C880.873 42.264 880.277 42.192 879.669 42.048C879.061 41.912 878.477 41.692 877.917 41.388C877.365 41.084 876.869 40.688 876.429 40.2C875.989 39.704 875.641 39.108 875.385 38.412C875.129 37.716 875.001 36.904 875.001 35.976C875.001 35.056 875.129 34.248 875.385 33.552C875.641 32.856 875.989 32.264 876.429 31.776C876.869 31.288 877.365 30.892 877.917 30.588C878.477 30.284 879.061 30.064 879.669 29.928C880.277 29.784 880.873 29.712 881.457 29.712C882.041 29.712 882.637 29.784 883.245 29.928C883.853 30.064 884.433 30.284 884.985 30.588C885.545 30.892 886.045 31.288 886.485 31.776C886.925 32.264 887.273 32.856 887.529 33.552C887.785 34.248 887.913 35.056 887.913 35.976C887.913 36.904 887.785 37.716 887.529 38.412C887.273 39.108 886.925 39.704 886.485 40.2C886.045 40.688 885.545 41.084 884.985 41.388C884.433 41.692 883.853 41.912 883.245 42.048C882.637 42.192 882.041 42.264 881.457 42.264ZM881.457 39.048C881.761 39.048 882.029 38.988 882.261 38.868C882.501 38.74 882.701 38.552 882.861 38.304C883.029 38.056 883.157 37.74 883.245 37.356C883.333 36.964 883.377 36.504 883.377 35.976C883.377 35.448 883.333 34.992 883.245 34.608C883.157 34.224 883.029 33.908 882.861 33.66C882.701 33.412 882.501 33.228 882.261 33.108C882.029 32.988 881.761 32.928 881.457 32.928C881.161 32.928 880.893 32.988 880.653 33.108C880.413 33.228 880.209 33.412 880.041 33.66C879.881 33.908 879.757 34.224 879.669 34.608C879.581 34.992 879.537 35.448 879.537 35.976C879.537 36.504 879.581 36.964 879.669 37.356C879.757 37.74 879.881 38.056 880.041 38.304C880.209 38.552 880.413 38.74 880.653 38.868C880.893 38.988 881.161 39.048 881.457 39.048ZM901.511 42L899.183 30H902.231L904.919 42H901.511ZM892.031 42L889.799 30H894.383L895.823 42H892.031ZM894.839 42L897.503 30H900.551L898.247 42H894.839ZM903.911 42L905.351 30H909.935L907.703 42H903.911ZM928.137 42V28.44H923.865V25.2H936.921V28.44H932.625V42H928.137ZM944.903 42.264C944.319 42.264 943.723 42.192 943.115 42.048C942.507 41.912 941.923 41.692 941.363 41.388C940.811 41.084 940.315 40.688 939.875 40.2C939.435 39.704 939.087 39.108 938.831 38.412C938.575 37.716 938.447 36.904 938.447 35.976C938.447 35.056 938.575 34.248 938.831 33.552C939.087 32.856 939.435 32.264 939.875 31.776C940.315 31.288 940.811 30.892 941.363 30.588C941.923 30.284 942.507 30.064 943.115 29.928C943.723 29.784 944.319 29.712 944.903 29.712C945.487 29.712 946.083 29.784 946.691 29.928C947.299 30.064 947.879 30.284 948.431 30.588C948.991 30.892 949.491 31.288 949.931 31.776C950.371 32.264 950.719 32.856 950.975 33.552C951.231 34.248 951.359 35.056 951.359 35.976C951.359 36.904 951.231 37.716 950.975 38.412C950.719 39.108 950.371 39.704 949.931 40.2C949.491 40.688 948.991 41.084 948.431 41.388C947.879 41.692 947.299 41.912 946.691 42.048C946.083 42.192 945.487 42.264 944.903 42.264ZM944.903 39.048C945.207 39.048 945.475 38.988 945.707 38.868C945.947 38.74 946.147 38.552 946.307 38.304C946.475 38.056 946.603 37.74 946.691 37.356C946.779 36.964 946.823 36.504 946.823 35.976C946.823 35.448 946.779 34.992 946.691 34.608C946.603 34.224 946.475 33.908 946.307 33.66C946.147 33.412 945.947 33.228 945.707 33.108C945.475 32.988 945.207 32.928 944.903 32.928C944.607 32.928 944.339 32.988 944.099 33.108C943.859 33.228 943.655 33.412 943.487 33.66C943.327 33.908 943.203 34.224 943.115 34.608C943.027 34.992 942.983 35.448 942.983 35.976C942.983 36.504 943.027 36.964 943.115 37.356C943.203 37.74 943.327 38.056 943.487 38.304C943.655 38.552 943.859 38.74 944.099 38.868C944.339 38.988 944.607 39.048 944.903 39.048ZM966.392 42V25.2H972.752C973.152 25.2 973.612 25.22 974.132 25.26C974.66 25.3 975.192 25.392 975.728 25.536C976.272 25.672 976.772 25.888 977.228 26.184C977.684 26.48 978.052 26.88 978.332 27.384C978.612 27.888 978.752 28.528 978.752 29.304C978.752 29.944 978.664 30.496 978.488 30.96C978.312 31.424 978.08 31.808 977.792 32.112C977.504 32.408 977.196 32.636 976.868 32.796C976.54 32.956 976.224 33.048 975.92 33.072C976.288 33.104 976.672 33.208 977.072 33.384C977.472 33.56 977.844 33.816 978.188 34.152C978.532 34.48 978.812 34.896 979.028 35.4C979.244 35.904 979.352 36.504 979.352 37.2C979.352 38.272 979.132 39.164 978.692 39.876C978.252 40.588 977.652 41.12 976.892 41.472C976.14 41.824 975.288 42 974.336 42H966.392ZM970.88 38.76H972.752C973.2 38.76 973.58 38.708 973.892 38.604C974.204 38.492 974.44 38.3 974.6 38.028C974.76 37.756 974.84 37.368 974.84 36.864C974.84 36.296 974.748 35.876 974.564 35.604C974.388 35.332 974.132 35.156 973.796 35.076C973.46 34.988 973.064 34.944 972.608 34.944H970.88V38.76ZM970.88 31.728H972.128C972.848 31.728 973.408 31.608 973.808 31.368C974.208 31.128 974.408 30.68 974.408 30.024C974.408 29.72 974.36 29.468 974.264 29.268C974.168 29.068 974.024 28.908 973.832 28.788C973.64 28.66 973.4 28.572 973.112 28.524C972.832 28.468 972.504 28.44 972.128 28.44H970.88V31.728ZM985.457 42.24C984.817 42.24 984.249 42.128 983.753 41.904C983.257 41.672 982.837 41.324 982.493 40.86C982.157 40.388 981.901 39.792 981.725 39.072C981.557 38.352 981.473 37.504 981.473 36.528V30H985.961V36.576C985.961 37.224 986.009 37.712 986.105 38.04C986.201 38.36 986.353 38.576 986.561 38.688C986.777 38.8 987.065 38.856 987.425 38.856C987.729 38.856 987.989 38.796 988.205 38.676C988.429 38.556 988.613 38.396 988.757 38.196C988.901 37.996 989.009 37.784 989.081 37.56C989.161 37.328 989.209 37.104 989.225 36.888L990.233 36.912C990.233 37.584 990.129 38.24 989.921 38.88C989.713 39.512 989.405 40.08 988.997 40.584C988.597 41.088 988.101 41.492 987.509 41.796C986.917 42.092 986.233 42.24 985.457 42.24ZM990.161 42L989.129 38.904V30H993.617V39.6L993.005 38.76H994.937V42H990.161ZM1000.95 46.8L1006.2 30H1010.83L1005.48 46.8H1000.95ZM1000.63 42L996.795 30H1001.47L1005.1 42H1000.63Z" fill="#02050C"/>
<mask id="path-19-inside-7_104_300" fill="white">
<path d="M1020 0H1190V66H1020V0Z"/>
</mask>
<path d="M1020 0H1190V66H1020V0Z" fill="white"/>
<path d="M1189 0V66H1191V0H1189ZM1021 66V0H1019V66H1021Z" fill="#02050C" mask="url(#path-19-inside-7_104_300)"/>
<path d="M1029.06 42V25.2H1033.54V31.656H1037.6V25.2H1042.09V42H1037.6V34.872H1033.54V42H1029.06ZM1051.46 42.264C1050.87 42.264 1050.28 42.192 1049.67 42.048C1049.06 41.912 1048.48 41.692 1047.92 41.388C1047.37 41.084 1046.87 40.688 1046.43 40.2C1045.99 39.704 1045.64 39.108 1045.39 38.412C1045.13 37.716 1045 36.904 1045 35.976C1045 35.056 1045.13 34.248 1045.39 33.552C1045.64 32.856 1045.99 32.264 1046.43 31.776C1046.87 31.288 1047.37 30.892 1047.92 30.588C1048.48 30.284 1049.06 30.064 1049.67 29.928C1050.28 29.784 1050.87 29.712 1051.46 29.712C1052.04 29.712 1052.64 29.784 1053.25 29.928C1053.85 30.064 1054.43 30.284 1054.99 30.588C1055.55 30.892 1056.05 31.288 1056.49 31.776C1056.93 32.264 1057.27 32.856 1057.53 33.552C1057.79 34.248 1057.91 35.056 1057.91 35.976C1057.91 36.904 1057.79 37.716 1057.53 38.412C1057.27 39.108 1056.93 39.704 1056.49 40.2C1056.05 40.688 1055.55 41.084 1054.99 41.388C1054.43 41.692 1053.85 41.912 1053.25 42.048C1052.64 42.192 1052.04 42.264 1051.46 42.264ZM1051.46 39.048C1051.76 39.048 1052.03 38.988 1052.26 38.868C1052.5 38.74 1052.7 38.552 1052.86 38.304C1053.03 38.056 1053.16 37.74 1053.25 37.356C1053.33 36.964 1053.38 36.504 1053.38 35.976C1053.38 35.448 1053.33 34.992 1053.25 34.608C1053.16 34.224 1053.03 33.908 1052.86 33.66C1052.7 33.412 1052.5 33.228 1052.26 33.108C1052.03 32.988 1051.76 32.928 1051.46 32.928C1051.16 32.928 1050.89 32.988 1050.65 33.108C1050.41 33.228 1050.21 33.412 1050.04 33.66C1049.88 33.908 1049.76 34.224 1049.67 34.608C1049.58 34.992 1049.54 35.448 1049.54 35.976C1049.54 36.504 1049.58 36.964 1049.67 37.356C1049.76 37.74 1049.88 38.056 1050.04 38.304C1050.21 38.552 1050.41 38.74 1050.65 38.868C1050.89 38.988 1051.16 39.048 1051.46 39.048ZM1071.51 42L1069.18 30H1072.23L1074.92 42H1071.51ZM1062.03 42L1059.8 30H1064.38L1065.82 42H1062.03ZM1064.84 42L1067.5 30H1070.55L1068.25 42H1064.84ZM1073.91 42L1075.35 30H1079.94L1077.7 42H1073.91ZM1098.14 42V28.44H1093.86V25.2H1106.92V28.44H1102.62V42H1098.14ZM1114.9 42.264C1114.32 42.264 1113.72 42.192 1113.11 42.048C1112.51 41.912 1111.92 41.692 1111.36 41.388C1110.81 41.084 1110.31 40.688 1109.87 40.2C1109.43 39.704 1109.09 39.108 1108.83 38.412C1108.57 37.716 1108.45 36.904 1108.45 35.976C1108.45 35.056 1108.57 34.248 1108.83 33.552C1109.09 32.856 1109.43 32.264 1109.87 31.776C1110.31 31.288 1110.81 30.892 1111.36 30.588C1111.92 30.284 1112.51 30.064 1113.11 29.928C1113.72 29.784 1114.32 29.712 1114.9 29.712C1115.49 29.712 1116.08 29.784 1116.69 29.928C1117.3 30.064 1117.88 30.284 1118.43 30.588C1118.99 30.892 1119.49 31.288 1119.93 31.776C1120.37 32.264 1120.72 32.856 1120.97 33.552C1121.23 34.248 1121.36 35.056 1121.36 35.976C1121.36 36.904 1121.23 37.716 1120.97 38.412C1120.72 39.108 1120.37 39.704 1119.93 40.2C1119.49 40.688 1118.99 41.084 1118.43 41.388C1117.88 41.692 1117.3 41.912 1116.69 42.048C1116.08 42.192 1115.49 42.264 1114.9 42.264ZM1114.9 39.048C1115.21 39.048 1115.47 38.988 1115.71 38.868C1115.95 38.74 1116.15 38.552 1116.31 38.304C1116.47 38.056 1116.6 37.74 1116.69 37.356C1116.78 36.964 1116.82 36.504 1116.82 35.976C1116.82 35.448 1116.78 34.992 1116.69 34.608C1116.6 34.224 1116.47 33.908 1116.31 33.66C1116.15 33.412 1115.95 33.228 1115.71 33.108C1115.47 32.988 1115.21 32.928 1114.9 32.928C1114.61 32.928 1114.34 32.988 1114.1 33.108C1113.86 33.228 1113.65 33.412 1113.49 33.66C1113.33 33.908 1113.2 34.224 1113.11 34.608C1113.03 34.992 1112.98 35.448 1112.98 35.976C1112.98 36.504 1113.03 36.964 1113.11 37.356C1113.2 37.74 1113.33 38.056 1113.49 38.304C1113.65 38.552 1113.86 38.74 1114.1 38.868C1114.34 38.988 1114.61 39.048 1114.9 39.048ZM1136.39 42V25.2H1142.75C1143.15 25.2 1143.61 25.22 1144.13 25.26C1144.66 25.3 1145.19 25.392 1145.73 25.536C1146.27 25.672 1146.77 25.888 1147.23 26.184C1147.68 26.48 1148.05 26.88 1148.33 27.384C1148.61 27.888 1148.75 28.528 1148.75 29.304C1148.75 29.944 1148.66 30.496 1148.49 30.96C1148.31 31.424 1148.08 31.808 1147.79 32.112C1147.5 32.408 1147.2 32.636 1146.87 32.796C1146.54 32.956 1146.22 33.048 1145.92 33.072C1146.29 33.104 1146.67 33.208 1147.07 33.384C1147.47 33.56 1147.84 33.816 1148.19 34.152C1148.53 34.48 1148.81 34.896 1149.03 35.4C1149.24 35.904 1149.35 36.504 1149.35 37.2C1149.35 38.272 1149.13 39.164 1148.69 39.876C1148.25 40.588 1147.65 41.12 1146.89 41.472C1146.14 41.824 1145.29 42 1144.34 42H1136.39ZM1140.88 38.76H1142.75C1143.2 38.76 1143.58 38.708 1143.89 38.604C1144.2 38.492 1144.44 38.3 1144.6 38.028C1144.76 37.756 1144.84 37.368 1144.84 36.864C1144.84 36.296 1144.75 35.876 1144.56 35.604C1144.39 35.332 1144.13 35.156 1143.8 35.076C1143.46 34.988 1143.06 34.944 1142.61 34.944H1140.88V38.76ZM1140.88 31.728H1142.13C1142.85 31.728 1143.41 31.608 1143.81 31.368C1144.21 31.128 1144.41 30.68 1144.41 30.024C1144.41 29.72 1144.36 29.468 1144.26 29.268C1144.17 29.068 1144.02 28.908 1143.83 28.788C1143.64 28.66 1143.4 28.572 1143.11 28.524C1142.83 28.468 1142.5 28.44 1142.13 28.44H1140.88V31.728ZM1155.46 42.24C1154.82 42.24 1154.25 42.128 1153.75 41.904C1153.26 41.672 1152.84 41.324 1152.49 40.86C1152.16 40.388 1151.9 39.792 1151.73 39.072C1151.56 38.352 1151.47 37.504 1151.47 36.528V30H1155.96V36.576C1155.96 37.224 1156.01 37.712 1156.11 38.04C1156.2 38.36 1156.35 38.576 1156.56 38.688C1156.78 38.8 1157.07 38.856 1157.43 38.856C1157.73 38.856 1157.99 38.796 1158.21 38.676C1158.43 38.556 1158.61 38.396 1158.76 38.196C1158.9 37.996 1159.01 37.784 1159.08 37.56C1159.16 37.328 1159.21 37.104 1159.23 36.888L1160.23 36.912C1160.23 37.584 1160.13 38.24 1159.92 38.88C1159.71 39.512 1159.41 40.08 1159 40.584C1158.6 41.088 1158.1 41.492 1157.51 41.796C1156.92 42.092 1156.23 42.24 1155.46 42.24ZM1160.16 42L1159.13 38.904V30H1163.62V39.6L1163.01 38.76H1164.94V42H1160.16ZM1170.95 46.8L1176.2 30H1180.83L1175.48 46.8H1170.95ZM1170.63 42L1166.79 30H1171.47L1175.1 42H1170.63Z" fill="#02050C"/>
<mask id="path-22-inside-8_104_300" fill="white">
<path d="M1190 0H1360V66H1190V0Z"/>
</mask>
<path d="M1190 0H1360V66H1190V0Z" fill="white"/>
<path d="M1359 0V66H1361V0H1359ZM1191 66V0H1189V66H1191Z" fill="#02050C" mask="url(#path-22-inside-8_104_300)"/>
<path d="M1199.06 42V25.2H1203.54V31.656H1207.6V25.2H1212.09V42H1207.6V34.872H1203.54V42H1199.06ZM1221.46 42.264C1220.87 42.264 1220.28 42.192 1219.67 42.048C1219.06 41.912 1218.48 41.692 1217.92 41.388C1217.37 41.084 1216.87 40.688 1216.43 40.2C1215.99 39.704 1215.64 39.108 1215.39 38.412C1215.13 37.716 1215 36.904 1215 35.976C1215 35.056 1215.13 34.248 1215.39 33.552C1215.64 32.856 1215.99 32.264 1216.43 31.776C1216.87 31.288 1217.37 30.892 1217.92 30.588C1218.48 30.284 1219.06 30.064 1219.67 29.928C1220.28 29.784 1220.87 29.712 1221.46 29.712C1222.04 29.712 1222.64 29.784 1223.25 29.928C1223.85 30.064 1224.43 30.284 1224.99 30.588C1225.55 30.892 1226.05 31.288 1226.49 31.776C1226.93 32.264 1227.27 32.856 1227.53 33.552C1227.79 34.248 1227.91 35.056 1227.91 35.976C1227.91 36.904 1227.79 37.716 1227.53 38.412C1227.27 39.108 1226.93 39.704 1226.49 40.2C1226.05 40.688 1225.55 41.084 1224.99 41.388C1224.43 41.692 1223.85 41.912 1223.25 42.048C1222.64 42.192 1222.04 42.264 1221.46 42.264ZM1221.46 39.048C1221.76 39.048 1222.03 38.988 1222.26 38.868C1222.5 38.74 1222.7 38.552 1222.86 38.304C1223.03 38.056 1223.16 37.74 1223.25 37.356C1223.33 36.964 1223.38 36.504 1223.38 35.976C1223.38 35.448 1223.33 34.992 1223.25 34.608C1223.16 34.224 1223.03 33.908 1222.86 33.66C1222.7 33.412 1222.5 33.228 1222.26 33.108C1222.03 32.988 1221.76 32.928 1221.46 32.928C1221.16 32.928 1220.89 32.988 1220.65 33.108C1220.41 33.228 1220.21 33.412 1220.04 33.66C1219.88 33.908 1219.76 34.224 1219.67 34.608C1219.58 34.992 1219.54 35.448 1219.54 35.976C1219.54 36.504 1219.58 36.964 1219.67 37.356C1219.76 37.74 1219.88 38.056 1220.04 38.304C1220.21 38.552 1220.41 38.74 1220.65 38.868C1220.89 38.988 1221.16 39.048 1221.46 39.048ZM1241.51 42L1239.18 30H1242.23L1244.92 42H1241.51ZM1232.03 42L1229.8 30H1234.38L1235.82 42H1232.03ZM1234.84 42L1237.5 30H1240.55L1238.25 42H1234.84ZM1243.91 42L1245.35 30H1249.94L1247.7 42H1243.91ZM1268.14 42V28.44H1263.86V25.2H1276.92V28.44H1272.62V42H1268.14ZM1284.9 42.264C1284.32 42.264 1283.72 42.192 1283.11 42.048C1282.51 41.912 1281.92 41.692 1281.36 41.388C1280.81 41.084 1280.31 40.688 1279.87 40.2C1279.43 39.704 1279.09 39.108 1278.83 38.412C1278.57 37.716 1278.45 36.904 1278.45 35.976C1278.45 35.056 1278.57 34.248 1278.83 33.552C1279.09 32.856 1279.43 32.264 1279.87 31.776C1280.31 31.288 1280.81 30.892 1281.36 30.588C1281.92 30.284 1282.51 30.064 1283.11 29.928C1283.72 29.784 1284.32 29.712 1284.9 29.712C1285.49 29.712 1286.08 29.784 1286.69 29.928C1287.3 30.064 1287.88 30.284 1288.43 30.588C1288.99 30.892 1289.49 31.288 1289.93 31.776C1290.37 32.264 1290.72 32.856 1290.97 33.552C1291.23 34.248 1291.36 35.056 1291.36 35.976C1291.36 36.904 1291.23 37.716 1290.97 38.412C1290.72 39.108 1290.37 39.704 1289.93 40.2C1289.49 40.688 1288.99 41.084 1288.43 41.388C1287.88 41.692 1287.3 41.912 1286.69 42.048C1286.08 42.192 1285.49 42.264 1284.9 42.264ZM1284.9 39.048C1285.21 39.048 1285.47 38.988 1285.71 38.868C1285.95 38.74 1286.15 38.552 1286.31 38.304C1286.47 38.056 1286.6 37.74 1286.69 37.356C1286.78 36.964 1286.82 36.504 1286.82 35.976C1286.82 35.448 1286.78 34.992 1286.69 34.608C1286.6 34.224 1286.47 33.908 1286.31 33.66C1286.15 33.412 1285.95 33.228 1285.71 33.108C1285.47 32.988 1285.21 32.928 1284.9 32.928C1284.61 32.928 1284.34 32.988 1284.1 33.108C1283.86 33.228 1283.65 33.412 1283.49 33.66C1283.33 33.908 1283.2 34.224 1283.11 34.608C1283.03 34.992 1282.98 35.448 1282.98 35.976C1282.98 36.504 1283.03 36.964 1283.11 37.356C1283.2 37.74 1283.33 38.056 1283.49 38.304C1283.65 38.552 1283.86 38.74 1284.1 38.868C1284.34 38.988 1284.61 39.048 1284.9 39.048ZM1306.39 42V25.2H1312.75C1313.15 25.2 1313.61 25.22 1314.13 25.26C1314.66 25.3 1315.19 25.392 1315.73 25.536C1316.27 25.672 1316.77 25.888 1317.23 26.184C1317.68 26.48 1318.05 26.88 1318.33 27.384C1318.61 27.888 1318.75 28.528 1318.75 29.304C1318.75 29.944 1318.66 30.496 1318.49 30.96C1318.31 31.424 1318.08 31.808 1317.79 32.112C1317.5 32.408 1317.2 32.636 1316.87 32.796C1316.54 32.956 1316.22 33.048 1315.92 33.072C1316.29 33.104 1316.67 33.208 1317.07 33.384C1317.47 33.56 1317.84 33.816 1318.19 34.152C1318.53 34.48 1318.81 34.896 1319.03 35.4C1319.24 35.904 1319.35 36.504 1319.35 37.2C1319.35 38.272 1319.13 39.164 1318.69 39.876C1318.25 40.588 1317.65 41.12 1316.89 41.472C1316.14 41.824 1315.29 42 1314.34 42H1306.39ZM1310.88 38.76H1312.75C1313.2 38.76 1313.58 38.708 1313.89 38.604C1314.2 38.492 1314.44 38.3 1314.6 38.028C1314.76 37.756 1314.84 37.368 1314.84 36.864C1314.84 36.296 1314.75 35.876 1314.56 35.604C1314.39 35.332 1314.13 35.156 1313.8 35.076C1313.46 34.988 1313.06 34.944 1312.61 34.944H1310.88V38.76ZM1310.88 31.728H1312.13C1312.85 31.728 1313.41 31.608 1313.81 31.368C1314.21 31.128 1314.41 30.68 1314.41 30.024C1314.41 29.72 1314.36 29.468 1314.26 29.268C1314.17 29.068 1314.02 28.908 1313.83 28.788C1313.64 28.66 1313.4 28.572 1313.11 28.524C1312.83 28.468 1312.5 28.44 1312.13 28.44H1310.88V31.728ZM1325.46 42.24C1324.82 42.24 1324.25 42.128 1323.75 41.904C1323.26 41.672 1322.84 41.324 1322.49 40.86C1322.16 40.388 1321.9 39.792 1321.73 39.072C1321.56 38.352 1321.47 37.504 1321.47 36.528V30H1325.96V36.576C1325.96 37.224 1326.01 37.712 1326.11 38.04C1326.2 38.36 1326.35 38.576 1326.56 38.688C1326.78 38.8 1327.07 38.856 1327.43 38.856C1327.73 38.856 1327.99 38.796 1328.21 38.676C1328.43 38.556 1328.61 38.396 1328.76 38.196C1328.9 37.996 1329.01 37.784 1329.08 37.56C1329.16 37.328 1329.21 37.104 1329.23 36.888L1330.23 36.912C1330.23 37.584 1330.13 38.24 1329.92 38.88C1329.71 39.512 1329.41 40.08 1329 40.584C1328.6 41.088 1328.1 41.492 1327.51 41.796C1326.92 42.092 1326.23 42.24 1325.46 42.24ZM1330.16 42L1329.13 38.904V30H1333.62V39.6L1333.01 38.76H1334.94V42H1330.16ZM1340.95 46.8L1346.2 30H1350.83L1345.48 46.8H1340.95ZM1340.63 42L1336.79 30H1341.47L1345.1 42H1340.63Z" fill="#02050C"/>
<mask id="path-25-inside-9_104_300" fill="white">
<path d="M1360 0H1530V66H1360V0Z"/>
</mask>
<path d="M1360 0H1530V66H1360V0Z" fill="white"/>
<path d="M1529 0V66H1531V0H1529ZM1361 66V0H1359V66H1361Z" fill="#02050C" mask="url(#path-25-inside-9_104_300)"/>
<path d="M1369.06 42V25.2H1373.54V31.656H1377.6V25.2H1382.09V42H1377.6V34.872H1373.54V42H1369.06ZM1391.46 42.264C1390.87 42.264 1390.28 42.192 1389.67 42.048C1389.06 41.912 1388.48 41.692 1387.92 41.388C1387.37 41.084 1386.87 40.688 1386.43 40.2C1385.99 39.704 1385.64 39.108 1385.39 38.412C1385.13 37.716 1385 36.904 1385 35.976C1385 35.056 1385.13 34.248 1385.39 33.552C1385.64 32.856 1385.99 32.264 1386.43 31.776C1386.87 31.288 1387.37 30.892 1387.92 30.588C1388.48 30.284 1389.06 30.064 1389.67 29.928C1390.28 29.784 1390.87 29.712 1391.46 29.712C1392.04 29.712 1392.64 29.784 1393.25 29.928C1393.85 30.064 1394.43 30.284 1394.99 30.588C1395.55 30.892 1396.05 31.288 1396.49 31.776C1396.93 32.264 1397.27 32.856 1397.53 33.552C1397.79 34.248 1397.91 35.056 1397.91 35.976C1397.91 36.904 1397.79 37.716 1397.53 38.412C1397.27 39.108 1396.93 39.704 1396.49 40.2C1396.05 40.688 1395.55 41.084 1394.99 41.388C1394.43 41.692 1393.85 41.912 1393.25 42.048C1392.64 42.192 1392.04 42.264 1391.46 42.264ZM1391.46 39.048C1391.76 39.048 1392.03 38.988 1392.26 38.868C1392.5 38.74 1392.7 38.552 1392.86 38.304C1393.03 38.056 1393.16 37.74 1393.25 37.356C1393.33 36.964 1393.38 36.504 1393.38 35.976C1393.38 35.448 1393.33 34.992 1393.25 34.608C1393.16 34.224 1393.03 33.908 1392.86 33.66C1392.7 33.412 1392.5 33.228 1392.26 33.108C1392.03 32.988 1391.76 32.928 1391.46 32.928C1391.16 32.928 1390.89 32.988 1390.65 33.108C1390.41 33.228 1390.21 33.412 1390.04 33.66C1389.88 33.908 1389.76 34.224 1389.67 34.608C1389.58 34.992 1389.54 35.448 1389.54 35.976C1389.54 36.504 1389.58 36.964 1389.67 37.356C1389.76 37.74 1389.88 38.056 1390.04 38.304C1390.21 38.552 1390.41 38.74 1390.65 38.868C1390.89 38.988 1391.16 39.048 1391.46 39.048ZM1411.51 42L1409.18 30H1412.23L1414.92 42H1411.51ZM1402.03 42L1399.8 30H1404.38L1405.82 42H1402.03ZM1404.84 42L1407.5 30H1410.55L1408.25 42H1404.84ZM1413.91 42L1415.35 30H1419.94L1417.7 42H1413.91ZM1438.14 42V28.44H1433.86V25.2H1446.92V28.44H1442.62V42H1438.14ZM1454.9 42.264C1454.32 42.264 1453.72 42.192 1453.11 42.048C1452.51 41.912 1451.92 41.692 1451.36 41.388C1450.81 41.084 1450.31 40.688 1449.87 40.2C1449.43 39.704 1449.09 39.108 1448.83 38.412C1448.57 37.716 1448.45 36.904 1448.45 35.976C1448.45 35.056 1448.57 34.248 1448.83 33.552C1449.09 32.856 1449.43 32.264 1449.87 31.776C1450.31 31.288 1450.81 30.892 1451.36 30.588C1451.92 30.284 1452.51 30.064 1453.11 29.928C1453.72 29.784 1454.32 29.712 1454.9 29.712C1455.49 29.712 1456.08 29.784 1456.69 29.928C1457.3 30.064 1457.88 30.284 1458.43 30.588C1458.99 30.892 1459.49 31.288 1459.93 31.776C1460.37 32.264 1460.72 32.856 1460.97 33.552C1461.23 34.248 1461.36 35.056 1461.36 35.976C1461.36 36.904 1461.23 37.716 1460.97 38.412C1460.72 39.108 1460.37 39.704 1459.93 40.2C1459.49 40.688 1458.99 41.084 1458.43 41.388C1457.88 41.692 1457.3 41.912 1456.69 42.048C1456.08 42.192 1455.49 42.264 1454.9 42.264ZM1454.9 39.048C1455.21 39.048 1455.47 38.988 1455.71 38.868C1455.95 38.74 1456.15 38.552 1456.31 38.304C1456.47 38.056 1456.6 37.74 1456.69 37.356C1456.78 36.964 1456.82 36.504 1456.82 35.976C1456.82 35.448 1456.78 34.992 1456.69 34.608C1456.6 34.224 1456.47 33.908 1456.31 33.66C1456.15 33.412 1455.95 33.228 1455.71 33.108C1455.47 32.988 1455.21 32.928 1454.9 32.928C1454.61 32.928 1454.34 32.988 1454.1 33.108C1453.86 33.228 1453.65 33.412 1453.49 33.66C1453.33 33.908 1453.2 34.224 1453.11 34.608C1453.03 34.992 1452.98 35.448 1452.98 35.976C1452.98 36.504 1453.03 36.964 1453.11 37.356C1453.2 37.74 1453.33 38.056 1453.49 38.304C1453.65 38.552 1453.86 38.74 1454.1 38.868C1454.34 38.988 1454.61 39.048 1454.9 39.048ZM1476.39 42V25.2H1482.75C1483.15 25.2 1483.61 25.22 1484.13 25.26C1484.66 25.3 1485.19 25.392 1485.73 25.536C1486.27 25.672 1486.77 25.888 1487.23 26.184C1487.68 26.48 1488.05 26.88 1488.33 27.384C1488.61 27.888 1488.75 28.528 1488.75 29.304C1488.75 29.944 1488.66 30.496 1488.49 30.96C1488.31 31.424 1488.08 31.808 1487.79 32.112C1487.5 32.408 1487.2 32.636 1486.87 32.796C1486.54 32.956 1486.22 33.048 1485.92 33.072C1486.29 33.104 1486.67 33.208 1487.07 33.384C1487.47 33.56 1487.84 33.816 1488.19 34.152C1488.53 34.48 1488.81 34.896 1489.03 35.4C1489.24 35.904 1489.35 36.504 1489.35 37.2C1489.35 38.272 1489.13 39.164 1488.69 39.876C1488.25 40.588 1487.65 41.12 1486.89 41.472C1486.14 41.824 1485.29 42 1484.34 42H1476.39ZM1480.88 38.76H1482.75C1483.2 38.76 1483.58 38.708 1483.89 38.604C1484.2 38.492 1484.44 38.3 1484.6 38.028C1484.76 37.756 1484.84 37.368 1484.84 36.864C1484.84 36.296 1484.75 35.876 1484.56 35.604C1484.39 35.332 1484.13 35.156 1483.8 35.076C1483.46 34.988 1483.06 34.944 1482.61 34.944H1480.88V38.76ZM1480.88 31.728H1482.13C1482.85 31.728 1483.41 31.608 1483.81 31.368C1484.21 31.128 1484.41 30.68 1484.41 30.024C1484.41 29.72 1484.36 29.468 1484.26 29.268C1484.17 29.068 1484.02 28.908 1483.83 28.788C1483.64 28.66 1483.4 28.572 1483.11 28.524C1482.83 28.468 1482.5 28.44 1482.13 28.44H1480.88V31.728ZM1495.46 42.24C1494.82 42.24 1494.25 42.128 1493.75 41.904C1493.26 41.672 1492.84 41.324 1492.49 40.86C1492.16 40.388 1491.9 39.792 1491.73 39.072C1491.56 38.352 1491.47 37.504 1491.47 36.528V30H1495.96V36.576C1495.96 37.224 1496.01 37.712 1496.11 38.04C1496.2 38.36 1496.35 38.576 1496.56 38.688C1496.78 38.8 1497.07 38.856 1497.43 38.856C1497.73 38.856 1497.99 38.796 1498.21 38.676C1498.43 38.556 1498.61 38.396 1498.76 38.196C1498.9 37.996 1499.01 37.784 1499.08 37.56C1499.16 37.328 1499.21 37.104 1499.23 36.888L1500.23 36.912C1500.23 37.584 1500.13 38.24 1499.92 38.88C1499.71 39.512 1499.41 40.08 1499 40.584C1498.6 41.088 1498.1 41.492 1497.51 41.796C1496.92 42.092 1496.23 42.24 1495.46 42.24ZM1500.16 42L1499.13 38.904V30H1503.62V39.6L1503.01 38.76H1504.94V42H1500.16ZM1510.95 46.8L1516.2 30H1520.83L1515.48 46.8H1510.95ZM1510.63 42L1506.79 30H1511.47L1515.1 42H1510.63Z" fill="#02050C"/>
<mask id="path-28-inside-10_104_300" fill="white">
<path d="M1530 0H1700V66H1530V0Z"/>
</mask>
<path d="M1530 0H1700V66H1530V0Z" fill="white"/>
<path d="M1699 0V66H1701V0H1699ZM1531 66V0H1529V66H1531Z" fill="#02050C" mask="url(#path-28-inside-10_104_300)"/>
<path d="M1539.06 42V25.2H1543.54V31.656H1547.6V25.2H1552.09V42H1547.6V34.872H1543.54V42H1539.06ZM1561.46 42.264C1560.87 42.264 1560.28 42.192 1559.67 42.048C1559.06 41.912 1558.48 41.692 1557.92 41.388C1557.37 41.084 1556.87 40.688 1556.43 40.2C1555.99 39.704 1555.64 39.108 1555.39 38.412C1555.13 37.716 1555 36.904 1555 35.976C1555 35.056 1555.13 34.248 1555.39 33.552C1555.64 32.856 1555.99 32.264 1556.43 31.776C1556.87 31.288 1557.37 30.892 1557.92 30.588C1558.48 30.284 1559.06 30.064 1559.67 29.928C1560.28 29.784 1560.87 29.712 1561.46 29.712C1562.04 29.712 1562.64 29.784 1563.25 29.928C1563.85 30.064 1564.43 30.284 1564.99 30.588C1565.55 30.892 1566.05 31.288 1566.49 31.776C1566.93 32.264 1567.27 32.856 1567.53 33.552C1567.79 34.248 1567.91 35.056 1567.91 35.976C1567.91 36.904 1567.79 37.716 1567.53 38.412C1567.27 39.108 1566.93 39.704 1566.49 40.2C1566.05 40.688 1565.55 41.084 1564.99 41.388C1564.43 41.692 1563.85 41.912 1563.25 42.048C1562.64 42.192 1562.04 42.264 1561.46 42.264ZM1561.46 39.048C1561.76 39.048 1562.03 38.988 1562.26 38.868C1562.5 38.74 1562.7 38.552 1562.86 38.304C1563.03 38.056 1563.16 37.74 1563.25 37.356C1563.33 36.964 1563.38 36.504 1563.38 35.976C1563.38 35.448 1563.33 34.992 1563.25 34.608C1563.16 34.224 1563.03 33.908 1562.86 33.66C1562.7 33.412 1562.5 33.228 1562.26 33.108C1562.03 32.988 1561.76 32.928 1561.46 32.928C1561.16 32.928 1560.89 32.988 1560.65 33.108C1560.41 33.228 1560.21 33.412 1560.04 33.66C1559.88 33.908 1559.76 34.224 1559.67 34.608C1559.58 34.992 1559.54 35.448 1559.54 35.976C1559.54 36.504 1559.58 36.964 1559.67 37.356C1559.76 37.74 1559.88 38.056 1560.04 38.304C1560.21 38.552 1560.41 38.74 1560.65 38.868C1560.89 38.988 1561.16 39.048 1561.46 39.048ZM1581.51 42L1579.18 30H1582.23L1584.92 42H1581.51ZM1572.03 42L1569.8 30H1574.38L1575.82 42H1572.03ZM1574.84 42L1577.5 30H1580.55L1578.25 42H1574.84ZM1583.91 42L1585.35 30H1589.94L1587.7 42H1583.91ZM1608.14 42V28.44H1603.86V25.2H1616.92V28.44H1612.62V42H1608.14ZM1624.9 42.264C1624.32 42.264 1623.72 42.192 1623.11 42.048C1622.51 41.912 1621.92 41.692 1621.36 41.388C1620.81 41.084 1620.31 40.688 1619.87 40.2C1619.43 39.704 1619.09 39.108 1618.83 38.412C1618.57 37.716 1618.45 36.904 1618.45 35.976C1618.45 35.056 1618.57 34.248 1618.83 33.552C1619.09 32.856 1619.43 32.264 1619.87 31.776C1620.31 31.288 1620.81 30.892 1621.36 30.588C1621.92 30.284 1622.51 30.064 1623.11 29.928C1623.72 29.784 1624.32 29.712 1624.9 29.712C1625.49 29.712 1626.08 29.784 1626.69 29.928C1627.3 30.064 1627.88 30.284 1628.43 30.588C1628.99 30.892 1629.49 31.288 1629.93 31.776C1630.37 32.264 1630.72 32.856 1630.97 33.552C1631.23 34.248 1631.36 35.056 1631.36 35.976C1631.36 36.904 1631.23 37.716 1630.97 38.412C1630.72 39.108 1630.37 39.704 1629.93 40.2C1629.49 40.688 1628.99 41.084 1628.43 41.388C1627.88 41.692 1627.3 41.912 1626.69 42.048C1626.08 42.192 1625.49 42.264 1624.9 42.264ZM1624.9 39.048C1625.21 39.048 1625.47 38.988 1625.71 38.868C1625.95 38.74 1626.15 38.552 1626.31 38.304C1626.47 38.056 1626.6 37.74 1626.69 37.356C1626.78 36.964 1626.82 36.504 1626.82 35.976C1626.82 35.448 1626.78 34.992 1626.69 34.608C1626.6 34.224 1626.47 33.908 1626.31 33.66C1626.15 33.412 1625.95 33.228 1625.71 33.108C1625.47 32.988 1625.21 32.928 1624.9 32.928C1624.61 32.928 1624.34 32.988 1624.1 33.108C1623.86 33.228 1623.65 33.412 1623.49 33.66C1623.33 33.908 1623.2 34.224 1623.11 34.608C1623.03 34.992 1622.98 35.448 1622.98 35.976C1622.98 36.504 1623.03 36.964 1623.11 37.356C1623.2 37.74 1623.33 38.056 1623.49 38.304C1623.65 38.552 1623.86 38.74 1624.1 38.868C1624.34 38.988 1624.61 39.048 1624.9 39.048ZM1646.39 42V25.2H1652.75C1653.15 25.2 1653.61 25.22 1654.13 25.26C1654.66 25.3 1655.19 25.392 1655.73 25.536C1656.27 25.672 1656.77 25.888 1657.23 26.184C1657.68 26.48 1658.05 26.88 1658.33 27.384C1658.61 27.888 1658.75 28.528 1658.75 29.304C1658.75 29.944 1658.66 30.496 1658.49 30.96C1658.31 31.424 1658.08 31.808 1657.79 32.112C1657.5 32.408 1657.2 32.636 1656.87 32.796C1656.54 32.956 1656.22 33.048 1655.92 33.072C1656.29 33.104 1656.67 33.208 1657.07 33.384C1657.47 33.56 1657.84 33.816 1658.19 34.152C1658.53 34.48 1658.81 34.896 1659.03 35.4C1659.24 35.904 1659.35 36.504 1659.35 37.2C1659.35 38.272 1659.13 39.164 1658.69 39.876C1658.25 40.588 1657.65 41.12 1656.89 41.472C1656.14 41.824 1655.29 42 1654.34 42H1646.39ZM1650.88 38.76H1652.75C1653.2 38.76 1653.58 38.708 1653.89 38.604C1654.2 38.492 1654.44 38.3 1654.6 38.028C1654.76 37.756 1654.84 37.368 1654.84 36.864C1654.84 36.296 1654.75 35.876 1654.56 35.604C1654.39 35.332 1654.13 35.156 1653.8 35.076C1653.46 34.988 1653.06 34.944 1652.61 34.944H1650.88V38.76ZM1650.88 31.728H1652.13C1652.85 31.728 1653.41 31.608 1653.81 31.368C1654.21 31.128 1654.41 30.68 1654.41 30.024C1654.41 29.72 1654.36 29.468 1654.26 29.268C1654.17 29.068 1654.02 28.908 1653.83 28.788C1653.64 28.66 1653.4 28.572 1653.11 28.524C1652.83 28.468 1652.5 28.44 1652.13 28.44H1650.88V31.728ZM1665.46 42.24C1664.82 42.24 1664.25 42.128 1663.75 41.904C1663.26 41.672 1662.84 41.324 1662.49 40.86C1662.16 40.388 1661.9 39.792 1661.73 39.072C1661.56 38.352 1661.47 37.504 1661.47 36.528V30H1665.96V36.576C1665.96 37.224 1666.01 37.712 1666.11 38.04C1666.2 38.36 1666.35 38.576 1666.56 38.688C1666.78 38.8 1667.07 38.856 1667.43 38.856C1667.73 38.856 1667.99 38.796 1668.21 38.676C1668.43 38.556 1668.61 38.396 1668.76 38.196C1668.9 37.996 1669.01 37.784 1669.08 37.56C1669.16 37.328 1669.21 37.104 1669.23 36.888L1670.23 36.912C1670.23 37.584 1670.13 38.24 1669.92 38.88C1669.71 39.512 1669.41 40.08 1669 40.584C1668.6 41.088 1668.1 41.492 1667.51 41.796C1666.92 42.092 1666.23 42.24 1665.46 42.24ZM1670.16 42L1669.13 38.904V30H1673.62V39.6L1673.01 38.76H1674.94V42H1670.16ZM1680.95 46.8L1686.2 30H1690.83L1685.48 46.8H1680.95ZM1680.63 42L1676.79 30H1681.47L1685.1 42H1680.63Z" fill="#02050C"/>
<mask id="path-31-inside-11_104_300" fill="white">
<path d="M1700 0H1870V66H1700V0Z"/>
</mask>
<path d="M1700 0H1870V66H1700V0Z" fill="white"/>
<path d="M1869 0V66H1871V0H1869ZM1701 66V0H1699V66H1701Z" fill="#02050C" mask="url(#path-31-inside-11_104_300)"/>
<path d="M1709.06 42V25.2H1713.54V31.656H1717.6V25.2H1722.09V42H1717.6V34.872H1713.54V42H1709.06ZM1731.46 42.264C1730.87 42.264 1730.28 42.192 1729.67 42.048C1729.06 41.912 1728.48 41.692 1727.92 41.388C1727.37 41.084 1726.87 40.688 1726.43 40.2C1725.99 39.704 1725.64 39.108 1725.39 38.412C1725.13 37.716 1725 36.904 1725 35.976C1725 35.056 1725.13 34.248 1725.39 33.552C1725.64 32.856 1725.99 32.264 1726.43 31.776C1726.87 31.288 1727.37 30.892 1727.92 30.588C1728.48 30.284 1729.06 30.064 1729.67 29.928C1730.28 29.784 1730.87 29.712 1731.46 29.712C1732.04 29.712 1732.64 29.784 1733.25 29.928C1733.85 30.064 1734.43 30.284 1734.99 30.588C1735.55 30.892 1736.05 31.288 1736.49 31.776C1736.93 32.264 1737.27 32.856 1737.53 33.552C1737.79 34.248 1737.91 35.056 1737.91 35.976C1737.91 36.904 1737.79 37.716 1737.53 38.412C1737.27 39.108 1736.93 39.704 1736.49 40.2C1736.05 40.688 1735.55 41.084 1734.99 41.388C1734.43 41.692 1733.85 41.912 1733.25 42.048C1732.64 42.192 1732.04 42.264 1731.46 42.264ZM1731.46 39.048C1731.76 39.048 1732.03 38.988 1732.26 38.868C1732.5 38.74 1732.7 38.552 1732.86 38.304C1733.03 38.056 1733.16 37.74 1733.25 37.356C1733.33 36.964 1733.38 36.504 1733.38 35.976C1733.38 35.448 1733.33 34.992 1733.25 34.608C1733.16 34.224 1733.03 33.908 1732.86 33.66C1732.7 33.412 1732.5 33.228 1732.26 33.108C1732.03 32.988 1731.76 32.928 1731.46 32.928C1731.16 32.928 1730.89 32.988 1730.65 33.108C1730.41 33.228 1730.21 33.412 1730.04 33.66C1729.88 33.908 1729.76 34.224 1729.67 34.608C1729.58 34.992 1729.54 35.448 1729.54 35.976C1729.54 36.504 1729.58 36.964 1729.67 37.356C1729.76 37.74 1729.88 38.056 1730.04 38.304C1730.21 38.552 1730.41 38.74 1730.65 38.868C1730.89 38.988 1731.16 39.048 1731.46 39.048ZM1751.51 42L1749.18 30H1752.23L1754.92 42H1751.51ZM1742.03 42L1739.8 30H1744.38L1745.82 42H1742.03ZM1744.84 42L1747.5 30H1750.55L1748.25 42H1744.84ZM1753.91 42L1755.35 30H1759.94L1757.7 42H1753.91ZM1778.14 42V28.44H1773.86V25.2H1786.92V28.44H1782.62V42H1778.14ZM1794.9 42.264C1794.32 42.264 1793.72 42.192 1793.11 42.048C1792.51 41.912 1791.92 41.692 1791.36 41.388C1790.81 41.084 1790.31 40.688 1789.87 40.2C1789.43 39.704 1789.09 39.108 1788.83 38.412C1788.57 37.716 1788.45 36.904 1788.45 35.976C1788.45 35.056 1788.57 34.248 1788.83 33.552C1789.09 32.856 1789.43 32.264 1789.87 31.776C1790.31 31.288 1790.81 30.892 1791.36 30.588C1791.92 30.284 1792.51 30.064 1793.11 29.928C1793.72 29.784 1794.32 29.712 1794.9 29.712C1795.49 29.712 1796.08 29.784 1796.69 29.928C1797.3 30.064 1797.88 30.284 1798.43 30.588C1798.99 30.892 1799.49 31.288 1799.93 31.776C1800.37 32.264 1800.72 32.856 1800.97 33.552C1801.23 34.248 1801.36 35.056 1801.36 35.976C1801.36 36.904 1801.23 37.716 1800.97 38.412C1800.72 39.108 1800.37 39.704 1799.93 40.2C1799.49 40.688 1798.99 41.084 1798.43 41.388C1797.88 41.692 1797.3 41.912 1796.69 42.048C1796.08 42.192 1795.49 42.264 1794.9 42.264ZM1794.9 39.048C1795.21 39.048 1795.47 38.988 1795.71 38.868C1795.95 38.74 1796.15 38.552 1796.31 38.304C1796.47 38.056 1796.6 37.74 1796.69 37.356C1796.78 36.964 1796.82 36.504 1796.82 35.976C1796.82 35.448 1796.78 34.992 1796.69 34.608C1796.6 34.224 1796.47 33.908 1796.31 33.66C1796.15 33.412 1795.95 33.228 1795.71 33.108C1795.47 32.988 1795.21 32.928 1794.9 32.928C1794.61 32.928 1794.34 32.988 1794.1 33.108C1793.86 33.228 1793.65 33.412 1793.49 33.66C1793.33 33.908 1793.2 34.224 1793.11 34.608C1793.03 34.992 1792.98 35.448 1792.98 35.976C1792.98 36.504 1793.03 36.964 1793.11 37.356C1793.2 37.74 1793.33 38.056 1793.49 38.304C1793.65 38.552 1793.86 38.74 1794.1 38.868C1794.34 38.988 1794.61 39.048 1794.9 39.048ZM1816.39 42V25.2H1822.75C1823.15 25.2 1823.61 25.22 1824.13 25.26C1824.66 25.3 1825.19 25.392 1825.73 25.536C1826.27 25.672 1826.77 25.888 1827.23 26.184C1827.68 26.48 1828.05 26.88 1828.33 27.384C1828.61 27.888 1828.75 28.528 1828.75 29.304C1828.75 29.944 1828.66 30.496 1828.49 30.96C1828.31 31.424 1828.08 31.808 1827.79 32.112C1827.5 32.408 1827.2 32.636 1826.87 32.796C1826.54 32.956 1826.22 33.048 1825.92 33.072C1826.29 33.104 1826.67 33.208 1827.07 33.384C1827.47 33.56 1827.84 33.816 1828.19 34.152C1828.53 34.48 1828.81 34.896 1829.03 35.4C1829.24 35.904 1829.35 36.504 1829.35 37.2C1829.35 38.272 1829.13 39.164 1828.69 39.876C1828.25 40.588 1827.65 41.12 1826.89 41.472C1826.14 41.824 1825.29 42 1824.34 42H1816.39ZM1820.88 38.76H1822.75C1823.2 38.76 1823.58 38.708 1823.89 38.604C1824.2 38.492 1824.44 38.3 1824.6 38.028C1824.76 37.756 1824.84 37.368 1824.84 36.864C1824.84 36.296 1824.75 35.876 1824.56 35.604C1824.39 35.332 1824.13 35.156 1823.8 35.076C1823.46 34.988 1823.06 34.944 1822.61 34.944H1820.88V38.76ZM1820.88 31.728H1822.13C1822.85 31.728 1823.41 31.608 1823.81 31.368C1824.21 31.128 1824.41 30.68 1824.41 30.024C1824.41 29.72 1824.36 29.468 1824.26 29.268C1824.17 29.068 1824.02 28.908 1823.83 28.788C1823.64 28.66 1823.4 28.572 1823.11 28.524C1822.83 28.468 1822.5 28.44 1822.13 28.44H1820.88V31.728ZM1835.46 42.24C1834.82 42.24 1834.25 42.128 1833.75 41.904C1833.26 41.672 1832.84 41.324 1832.49 40.86C1832.16 40.388 1831.9 39.792 1831.73 39.072C1831.56 38.352 1831.47 37.504 1831.47 36.528V30H1835.96V36.576C1835.96 37.224 1836.01 37.712 1836.11 38.04C1836.2 38.36 1836.35 38.576 1836.56 38.688C1836.78 38.8 1837.07 38.856 1837.43 38.856C1837.73 38.856 1837.99 38.796 1838.21 38.676C1838.43 38.556 1838.61 38.396 1838.76 38.196C1838.9 37.996 1839.01 37.784 1839.08 37.56C1839.16 37.328 1839.21 37.104 1839.23 36.888L1840.23 36.912C1840.23 37.584 1840.13 38.24 1839.92 38.88C1839.71 39.512 1839.41 40.08 1839 40.584C1838.6 41.088 1838.1 41.492 1837.51 41.796C1836.92 42.092 1836.23 42.24 1835.46 42.24ZM1840.16 42L1839.13 38.904V30H1843.62V39.6L1843.01 38.76H1844.94V42H1840.16ZM1850.95 46.8L1856.2 30H1860.83L1855.48 46.8H1850.95ZM1850.63 42L1846.79 30H1851.47L1855.1 42H1850.63Z" fill="#02050C"/>
<mask id="path-34-inside-12_104_300" fill="white">
<path d="M1870 0H2040V66H1870V0Z"/>
</mask>
<path d="M1870 0H2040V66H1870V0Z" fill="white"/>
<path d="M2039 0V66H2041V0H2039ZM1871 66V0H1869V66H1871Z" fill="#02050C" mask="url(#path-34-inside-12_104_300)"/>
<path d="M1879.06 42V25.2H1883.54V31.656H1887.6V25.2H1892.09V42H1887.6V34.872H1883.54V42H1879.06ZM1901.46 42.264C1900.87 42.264 1900.28 42.192 1899.67 42.048C1899.06 41.912 1898.48 41.692 1897.92 41.388C1897.37 41.084 1896.87 40.688 1896.43 40.2C1895.99 39.704 1895.64 39.108 1895.39 38.412C1895.13 37.716 1895 36.904 1895 35.976C1895 35.056 1895.13 34.248 1895.39 33.552C1895.64 32.856 1895.99 32.264 1896.43 31.776C1896.87 31.288 1897.37 30.892 1897.92 30.588C1898.48 30.284 1899.06 30.064 1899.67 29.928C1900.28 29.784 1900.87 29.712 1901.46 29.712C1902.04 29.712 1902.64 29.784 1903.25 29.928C1903.85 30.064 1904.43 30.284 1904.99 30.588C1905.55 30.892 1906.05 31.288 1906.49 31.776C1906.93 32.264 1907.27 32.856 1907.53 33.552C1907.79 34.248 1907.91 35.056 1907.91 35.976C1907.91 36.904 1907.79 37.716 1907.53 38.412C1907.27 39.108 1906.93 39.704 1906.49 40.2C1906.05 40.688 1905.55 41.084 1904.99 41.388C1904.43 41.692 1903.85 41.912 1903.25 42.048C1902.64 42.192 1902.04 42.264 1901.46 42.264ZM1901.46 39.048C1901.76 39.048 1902.03 38.988 1902.26 38.868C1902.5 38.74 1902.7 38.552 1902.86 38.304C1903.03 38.056 1903.16 37.74 1903.25 37.356C1903.33 36.964 1903.38 36.504 1903.38 35.976C1903.38 35.448 1903.33 34.992 1903.25 34.608C1903.16 34.224 1903.03 33.908 1902.86 33.66C1902.7 33.412 1902.5 33.228 1902.26 33.108C1902.03 32.988 1901.76 32.928 1901.46 32.928C1901.16 32.928 1900.89 32.988 1900.65 33.108C1900.41 33.228 1900.21 33.412 1900.04 33.66C1899.88 33.908 1899.76 34.224 1899.67 34.608C1899.58 34.992 1899.54 35.448 1899.54 35.976C1899.54 36.504 1899.58 36.964 1899.67 37.356C1899.76 37.74 1899.88 38.056 1900.04 38.304C1900.21 38.552 1900.41 38.74 1900.65 38.868C1900.89 38.988 1901.16 39.048 1901.46 39.048ZM1921.51 42L1919.18 30H1922.23L1924.92 42H1921.51ZM1912.03 42L1909.8 30H1914.38L1915.82 42H1912.03ZM1914.84 42L1917.5 30H1920.55L1918.25 42H1914.84ZM1923.91 42L1925.35 30H1929.94L1927.7 42H1923.91ZM1948.14 42V28.44H1943.86V25.2H1956.92V28.44H1952.62V42H1948.14ZM1964.9 42.264C1964.32 42.264 1963.72 42.192 1963.11 42.048C1962.51 41.912 1961.92 41.692 1961.36 41.388C1960.81 41.084 1960.31 40.688 1959.87 40.2C1959.43 39.704 1959.09 39.108 1958.83 38.412C1958.57 37.716 1958.45 36.904 1958.45 35.976C1958.45 35.056 1958.57 34.248 1958.83 33.552C1959.09 32.856 1959.43 32.264 1959.87 31.776C1960.31 31.288 1960.81 30.892 1961.36 30.588C1961.92 30.284 1962.51 30.064 1963.11 29.928C1963.72 29.784 1964.32 29.712 1964.9 29.712C1965.49 29.712 1966.08 29.784 1966.69 29.928C1967.3 30.064 1967.88 30.284 1968.43 30.588C1968.99 30.892 1969.49 31.288 1969.93 31.776C1970.37 32.264 1970.72 32.856 1970.97 33.552C1971.23 34.248 1971.36 35.056 1971.36 35.976C1971.36 36.904 1971.23 37.716 1970.97 38.412C1970.72 39.108 1970.37 39.704 1969.93 40.2C1969.49 40.688 1968.99 41.084 1968.43 41.388C1967.88 41.692 1967.3 41.912 1966.69 42.048C1966.08 42.192 1965.49 42.264 1964.9 42.264ZM1964.9 39.048C1965.21 39.048 1965.47 38.988 1965.71 38.868C1965.95 38.74 1966.15 38.552 1966.31 38.304C1966.47 38.056 1966.6 37.74 1966.69 37.356C1966.78 36.964 1966.82 36.504 1966.82 35.976C1966.82 35.448 1966.78 34.992 1966.69 34.608C1966.6 34.224 1966.47 33.908 1966.31 33.66C1966.15 33.412 1965.95 33.228 1965.71 33.108C1965.47 32.988 1965.21 32.928 1964.9 32.928C1964.61 32.928 1964.34 32.988 1964.1 33.108C1963.86 33.228 1963.65 33.412 1963.49 33.66C1963.33 33.908 1963.2 34.224 1963.11 34.608C1963.03 34.992 1962.98 35.448 1962.98 35.976C1962.98 36.504 1963.03 36.964 1963.11 37.356C1963.2 37.74 1963.33 38.056 1963.49 38.304C1963.65 38.552 1963.86 38.74 1964.1 38.868C1964.34 38.988 1964.61 39.048 1964.9 39.048ZM1986.39 42V25.2H1992.75C1993.15 25.2 1993.61 25.22 1994.13 25.26C1994.66 25.3 1995.19 25.392 1995.73 25.536C1996.27 25.672 1996.77 25.888 1997.23 26.184C1997.68 26.48 1998.05 26.88 1998.33 27.384C1998.61 27.888 1998.75 28.528 1998.75 29.304C1998.75 29.944 1998.66 30.496 1998.49 30.96C1998.31 31.424 1998.08 31.808 1997.79 32.112C1997.5 32.408 1997.2 32.636 1996.87 32.796C1996.54 32.956 1996.22 33.048 1995.92 33.072C1996.29 33.104 1996.67 33.208 1997.07 33.384C1997.47 33.56 1997.84 33.816 1998.19 34.152C1998.53 34.48 1998.81 34.896 1999.03 35.4C1999.24 35.904 1999.35 36.504 1999.35 37.2C1999.35 38.272 1999.13 39.164 1998.69 39.876C1998.25 40.588 1997.65 41.12 1996.89 41.472C1996.14 41.824 1995.29 42 1994.34 42H1986.39ZM1990.88 38.76H1992.75C1993.2 38.76 1993.58 38.708 1993.89 38.604C1994.2 38.492 1994.44 38.3 1994.6 38.028C1994.76 37.756 1994.84 37.368 1994.84 36.864C1994.84 36.296 1994.75 35.876 1994.56 35.604C1994.39 35.332 1994.13 35.156 1993.8 35.076C1993.46 34.988 1993.06 34.944 1992.61 34.944H1990.88V38.76ZM1990.88 31.728H1992.13C1992.85 31.728 1993.41 31.608 1993.81 31.368C1994.21 31.128 1994.41 30.68 1994.41 30.024C1994.41 29.72 1994.36 29.468 1994.26 29.268C1994.17 29.068 1994.02 28.908 1993.83 28.788C1993.64 28.66 1993.4 28.572 1993.11 28.524C1992.83 28.468 1992.5 28.44 1992.13 28.44H1990.88V31.728ZM2005.46 42.24C2004.82 42.24 2004.25 42.128 2003.75 41.904C2003.26 41.672 2002.84 41.324 2002.49 40.86C2002.16 40.388 2001.9 39.792 2001.73 39.072C2001.56 38.352 2001.47 37.504 2001.47 36.528V30H2005.96V36.576C2005.96 37.224 2006.01 37.712 2006.11 38.04C2006.2 38.36 2006.35 38.576 2006.56 38.688C2006.78 38.8 2007.07 38.856 2007.43 38.856C2007.73 38.856 2007.99 38.796 2008.21 38.676C2008.43 38.556 2008.61 38.396 2008.76 38.196C2008.9 37.996 2009.01 37.784 2009.08 37.56C2009.16 37.328 2009.21 37.104 2009.23 36.888L2010.23 36.912C2010.23 37.584 2010.13 38.24 2009.92 38.88C2009.71 39.512 2009.41 40.08 2009 40.584C2008.6 41.088 2008.1 41.492 2007.51 41.796C2006.92 42.092 2006.23 42.24 2005.46 42.24ZM2010.16 42L2009.13 38.904V30H2013.62V39.6L2013.01 38.76H2014.94V42H2010.16ZM2020.95 46.8L2026.2 30H2030.83L2025.48 46.8H2020.95ZM2020.63 42L2016.79 30H2021.47L2025.1 42H2020.63Z" fill="#02050C"/>
</svg>
