<svg width="1920" height="66" viewBox="0 0 1920 66" fill="none" xmlns="http://www.w3.org/2000/svg">
<mask id="path-1-inside-1_60_905" fill="white">
<path d="M0 0H168V66H0V0Z"/>
</mask>
<path d="M0 0H168V66H0V0Z" fill="#B9E500"/>
<path d="M167 0V66H169V0H167ZM1 66V0H-1V66H1Z" fill="#8E5833" mask="url(#path-1-inside-1_60_905)"/>
<path d="M20.096 24.2H24.8C24.976 24.2 25.128 24.264 25.256 24.392C25.384 24.52 25.448 24.672 25.448 24.848V40.352C25.448 40.528 25.384 40.68 25.256 40.808C25.128 40.936 24.976 41 24.8 41H20.096C19.92 41 19.768 40.936 19.64 40.808C19.512 40.68 19.448 40.528 19.448 40.352V35.168H15.56V40.352C15.56 40.528 15.496 40.68 15.368 40.808C15.24 40.936 15.088 41 14.912 41H10.208C10.032 41 9.88 40.944 9.752 40.832C9.624 40.704 9.56 40.544 9.56 40.352V24.848C9.56 24.672 9.624 24.52 9.752 24.392C9.88 24.264 10.032 24.2 10.208 24.2H14.912C15.088 24.2 15.24 24.264 15.368 24.392C15.496 24.52 15.56 24.672 15.56 24.848V29.888H19.448V24.848C19.448 24.672 19.512 24.52 19.64 24.392C19.768 24.264 19.92 24.2 20.096 24.2ZM27.8478 35.576V33.944C27.8478 32.12 28.4958 30.72 29.7918 29.744C31.0878 28.768 32.7598 28.28 34.8078 28.28C36.8558 28.28 38.5278 28.768 39.8238 29.744C41.1198 30.72 41.7678 32.12 41.7678 33.944V35.576C41.7678 37.416 41.1438 38.824 39.8958 39.8C38.6478 40.76 36.9518 41.24 34.8078 41.24C32.6638 41.24 30.9678 40.76 29.7198 39.8C28.4718 38.824 27.8478 37.416 27.8478 35.576ZM35.8878 35.768V33.752C35.8878 33.144 35.8078 32.72 35.6478 32.48C35.4878 32.24 35.2078 32.12 34.8078 32.12C34.4078 32.12 34.1278 32.24 33.9678 32.48C33.8078 32.72 33.7278 33.144 33.7278 33.752V35.768C33.7278 36.408 33.8078 36.84 33.9678 37.064C34.1278 37.288 34.4078 37.4 34.8078 37.4C35.2078 37.4 35.4878 37.28 35.6478 37.04C35.8078 36.8 35.8878 36.376 35.8878 35.768ZM52.0252 28.52H54.2572C54.6892 28.52 54.9612 28.712 55.0732 29.096L56.6332 34.088L58.0972 29.096C58.2092 28.712 58.4812 28.52 58.9132 28.52H62.6092C62.7692 28.52 62.9052 28.576 63.0172 28.688C63.1292 28.8 63.1852 28.912 63.1852 29.024C63.1852 29.136 63.1772 29.224 63.1612 29.288L59.6572 40.4C59.5292 40.8 59.2652 41 58.8652 41H55.6492C55.2492 41 54.9852 40.8 54.8572 40.4L53.1532 35.552L51.4252 40.4C51.2972 40.8 51.0332 41 50.6332 41H47.4172C47.0172 41 46.7532 40.8 46.6252 40.4L43.1212 29.288C43.1052 29.224 43.0972 29.136 43.0972 29.024C43.0972 28.912 43.1532 28.8 43.2652 28.688C43.3772 28.576 43.5132 28.52 43.6732 28.52H47.3692C47.8012 28.52 48.0732 28.712 48.1852 29.096L49.6492 34.088L51.2092 29.096C51.3212 28.712 51.5932 28.52 52.0252 28.52ZM71.993 24.2H86.057C86.233 24.2 86.385 24.264 86.513 24.392C86.641 24.52 86.705 24.672 86.705 24.848V28.712C86.705 28.888 86.641 29.04 86.513 29.168C86.385 29.296 86.233 29.36 86.057 29.36H82.073V40.352C82.073 40.528 82.009 40.68 81.881 40.808C81.753 40.936 81.601 41 81.425 41H76.625C76.449 41 76.297 40.936 76.169 40.808C76.041 40.68 75.977 40.528 75.977 40.352V29.36H71.993C71.817 29.36 71.665 29.296 71.537 29.168C71.409 29.04 71.345 28.888 71.345 28.712V24.848C71.345 24.672 71.409 24.52 71.537 24.392C71.665 24.264 71.817 24.2 71.993 24.2ZM88.2697 35.576V33.944C88.2697 32.12 88.9177 30.72 90.2137 29.744C91.5097 28.768 93.1817 28.28 95.2297 28.28C97.2777 28.28 98.9497 28.768 100.246 29.744C101.542 30.72 102.19 32.12 102.19 33.944V35.576C102.19 37.416 101.566 38.824 100.318 39.8C99.0697 40.76 97.3737 41.24 95.2297 41.24C93.0857 41.24 91.3897 40.76 90.1417 39.8C88.8937 38.824 88.2697 37.416 88.2697 35.576ZM96.3097 35.768V33.752C96.3097 33.144 96.2297 32.72 96.0697 32.48C95.9097 32.24 95.6297 32.12 95.2297 32.12C94.8297 32.12 94.5497 32.24 94.3897 32.48C94.2297 32.72 94.1497 33.144 94.1497 33.752V35.768C94.1497 36.408 94.2297 36.84 94.3897 37.064C94.5497 37.288 94.8297 37.4 95.2297 37.4C95.6297 37.4 95.9097 37.28 96.0697 37.04C96.2297 36.8 96.3097 36.376 96.3097 35.768ZM120.296 30.2C120.472 29.992 120.56 29.744 120.56 29.456C120.56 29.168 120.472 28.912 120.296 28.688C120.136 28.448 119.896 28.328 119.576 28.328H117.56V30.512H119.576C119.896 30.512 120.136 30.408 120.296 30.2ZM117.56 34.52V36.872H119.792C120.16 36.872 120.432 36.752 120.608 36.512C120.8 36.256 120.896 35.976 120.896 35.672V35.648C120.896 35.344 120.792 35.08 120.584 34.856C120.392 34.632 120.128 34.52 119.792 34.52H117.56ZM120.416 41H112.208C112.032 41 111.88 40.936 111.752 40.808C111.624 40.68 111.56 40.528 111.56 40.352V24.848C111.56 24.672 111.624 24.52 111.752 24.392C111.88 24.264 112.032 24.2 112.208 24.2H120.176C122.448 24.2 124.12 24.616 125.192 25.448C126.28 26.264 126.824 27.504 126.824 29.168V29.24C126.824 29.928 126.624 30.544 126.224 31.088C125.824 31.616 125.384 32 124.904 32.24C125.544 32.496 126.08 32.952 126.512 33.608C126.96 34.248 127.184 34.952 127.184 35.72C127.184 39.24 124.928 41 120.416 41ZM129.221 35.792V29.168C129.221 28.992 129.285 28.84 129.413 28.712C129.541 28.584 129.693 28.52 129.869 28.52H134.453C134.629 28.52 134.781 28.584 134.909 28.712C135.037 28.84 135.101 28.992 135.101 29.168V35.624C135.101 36.504 135.501 36.944 136.301 36.944C137.101 36.944 137.501 36.504 137.501 35.624V29.168C137.501 28.992 137.565 28.84 137.693 28.712C137.821 28.584 137.973 28.52 138.149 28.52H142.709C142.885 28.52 143.037 28.584 143.165 28.712C143.293 28.84 143.357 28.992 143.357 29.168V40.352C143.357 40.528 143.293 40.68 143.165 40.808C143.037 40.936 142.885 41 142.709 41H138.509C138.333 41 138.181 40.936 138.053 40.808C137.925 40.68 137.861 40.528 137.861 40.352V39.56C137.109 40.68 135.781 41.24 133.877 41.24C132.565 41.24 131.461 40.784 130.565 39.872C129.669 38.944 129.221 37.584 129.221 35.792ZM145.507 28.52H149.563C149.931 28.52 150.187 28.712 150.331 29.096L152.299 34.568L154.339 29.096C154.499 28.712 154.771 28.52 155.155 28.52H159.163C159.307 28.52 159.435 28.576 159.547 28.688C159.659 28.784 159.715 28.888 159.715 29C159.715 29.112 159.707 29.2 159.691 29.264L152.923 44.984C152.763 45.368 152.483 45.56 152.083 45.56H148.147C148.003 45.56 147.875 45.512 147.763 45.416C147.667 45.32 147.619 45.2 147.619 45.056C147.619 44.928 147.627 44.848 147.643 44.816L149.563 40.208L144.931 29.264C144.915 29.216 144.907 29.16 144.907 29.096C144.971 28.712 145.171 28.52 145.507 28.52Z" fill="#8E5833"/>
<mask id="path-4-inside-2_60_905" fill="white">
<path d="M168 0H336V66H168V0Z"/>
</mask>
<path d="M168 0H336V66H168V0Z" fill="#B9E500"/>
<path d="M335 0V66H337V0H335ZM169 66V0H167V66H169Z" fill="#8E5833" mask="url(#path-4-inside-2_60_905)"/>
<path d="M188.096 24.2H192.8C192.976 24.2 193.128 24.264 193.256 24.392C193.384 24.52 193.448 24.672 193.448 24.848V40.352C193.448 40.528 193.384 40.68 193.256 40.808C193.128 40.936 192.976 41 192.8 41H188.096C187.92 41 187.768 40.936 187.64 40.808C187.512 40.68 187.448 40.528 187.448 40.352V35.168H183.56V40.352C183.56 40.528 183.496 40.68 183.368 40.808C183.24 40.936 183.088 41 182.912 41H178.208C178.032 41 177.88 40.944 177.752 40.832C177.624 40.704 177.56 40.544 177.56 40.352V24.848C177.56 24.672 177.624 24.52 177.752 24.392C177.88 24.264 178.032 24.2 178.208 24.2H182.912C183.088 24.2 183.24 24.264 183.368 24.392C183.496 24.52 183.56 24.672 183.56 24.848V29.888H187.448V24.848C187.448 24.672 187.512 24.52 187.64 24.392C187.768 24.264 187.92 24.2 188.096 24.2ZM195.848 35.576V33.944C195.848 32.12 196.496 30.72 197.792 29.744C199.088 28.768 200.76 28.28 202.808 28.28C204.856 28.28 206.528 28.768 207.824 29.744C209.12 30.72 209.768 32.12 209.768 33.944V35.576C209.768 37.416 209.144 38.824 207.896 39.8C206.648 40.76 204.952 41.24 202.808 41.24C200.664 41.24 198.968 40.76 197.72 39.8C196.472 38.824 195.848 37.416 195.848 35.576ZM203.888 35.768V33.752C203.888 33.144 203.808 32.72 203.648 32.48C203.488 32.24 203.208 32.12 202.808 32.12C202.408 32.12 202.128 32.24 201.968 32.48C201.808 32.72 201.728 33.144 201.728 33.752V35.768C201.728 36.408 201.808 36.84 201.968 37.064C202.128 37.288 202.408 37.4 202.808 37.4C203.208 37.4 203.488 37.28 203.648 37.04C203.808 36.8 203.888 36.376 203.888 35.768ZM220.025 28.52H222.257C222.689 28.52 222.961 28.712 223.073 29.096L224.633 34.088L226.097 29.096C226.209 28.712 226.481 28.52 226.913 28.52H230.609C230.769 28.52 230.905 28.576 231.017 28.688C231.129 28.8 231.185 28.912 231.185 29.024C231.185 29.136 231.177 29.224 231.161 29.288L227.657 40.4C227.529 40.8 227.265 41 226.865 41H223.649C223.249 41 222.985 40.8 222.857 40.4L221.153 35.552L219.425 40.4C219.297 40.8 219.033 41 218.633 41H215.417C215.017 41 214.753 40.8 214.625 40.4L211.121 29.288C211.105 29.224 211.097 29.136 211.097 29.024C211.097 28.912 211.153 28.8 211.265 28.688C211.377 28.576 211.513 28.52 211.673 28.52H215.369C215.801 28.52 216.073 28.712 216.185 29.096L217.649 34.088L219.209 29.096C219.321 28.712 219.593 28.52 220.025 28.52ZM239.993 24.2H254.057C254.233 24.2 254.385 24.264 254.513 24.392C254.641 24.52 254.705 24.672 254.705 24.848V28.712C254.705 28.888 254.641 29.04 254.513 29.168C254.385 29.296 254.233 29.36 254.057 29.36H250.073V40.352C250.073 40.528 250.009 40.68 249.881 40.808C249.753 40.936 249.601 41 249.425 41H244.625C244.449 41 244.297 40.936 244.169 40.808C244.041 40.68 243.977 40.528 243.977 40.352V29.36H239.993C239.817 29.36 239.665 29.296 239.537 29.168C239.409 29.04 239.345 28.888 239.345 28.712V24.848C239.345 24.672 239.409 24.52 239.537 24.392C239.665 24.264 239.817 24.2 239.993 24.2ZM256.27 35.576V33.944C256.27 32.12 256.918 30.72 258.214 29.744C259.51 28.768 261.182 28.28 263.23 28.28C265.278 28.28 266.95 28.768 268.246 29.744C269.542 30.72 270.19 32.12 270.19 33.944V35.576C270.19 37.416 269.566 38.824 268.318 39.8C267.07 40.76 265.374 41.24 263.23 41.24C261.086 41.24 259.39 40.76 258.142 39.8C256.894 38.824 256.27 37.416 256.27 35.576ZM264.31 35.768V33.752C264.31 33.144 264.23 32.72 264.07 32.48C263.91 32.24 263.63 32.12 263.23 32.12C262.83 32.12 262.55 32.24 262.39 32.48C262.23 32.72 262.15 33.144 262.15 33.752V35.768C262.15 36.408 262.23 36.84 262.39 37.064C262.55 37.288 262.83 37.4 263.23 37.4C263.63 37.4 263.91 37.28 264.07 37.04C264.23 36.8 264.31 36.376 264.31 35.768ZM288.296 30.2C288.472 29.992 288.56 29.744 288.56 29.456C288.56 29.168 288.472 28.912 288.296 28.688C288.136 28.448 287.896 28.328 287.576 28.328H285.56V30.512H287.576C287.896 30.512 288.136 30.408 288.296 30.2ZM285.56 34.52V36.872H287.792C288.16 36.872 288.432 36.752 288.608 36.512C288.8 36.256 288.896 35.976 288.896 35.672V35.648C288.896 35.344 288.792 35.08 288.584 34.856C288.392 34.632 288.128 34.52 287.792 34.52H285.56ZM288.416 41H280.208C280.032 41 279.88 40.936 279.752 40.808C279.624 40.68 279.56 40.528 279.56 40.352V24.848C279.56 24.672 279.624 24.52 279.752 24.392C279.88 24.264 280.032 24.2 280.208 24.2H288.176C290.448 24.2 292.12 24.616 293.192 25.448C294.28 26.264 294.824 27.504 294.824 29.168V29.24C294.824 29.928 294.624 30.544 294.224 31.088C293.824 31.616 293.384 32 292.904 32.24C293.544 32.496 294.08 32.952 294.512 33.608C294.96 34.248 295.184 34.952 295.184 35.72C295.184 39.24 292.928 41 288.416 41ZM297.221 35.792V29.168C297.221 28.992 297.285 28.84 297.413 28.712C297.541 28.584 297.693 28.52 297.869 28.52H302.453C302.629 28.52 302.781 28.584 302.909 28.712C303.037 28.84 303.101 28.992 303.101 29.168V35.624C303.101 36.504 303.501 36.944 304.301 36.944C305.101 36.944 305.501 36.504 305.501 35.624V29.168C305.501 28.992 305.565 28.84 305.693 28.712C305.821 28.584 305.973 28.52 306.149 28.52H310.709C310.885 28.52 311.037 28.584 311.165 28.712C311.293 28.84 311.357 28.992 311.357 29.168V40.352C311.357 40.528 311.293 40.68 311.165 40.808C311.037 40.936 310.885 41 310.709 41H306.509C306.333 41 306.181 40.936 306.053 40.808C305.925 40.68 305.861 40.528 305.861 40.352V39.56C305.109 40.68 303.781 41.24 301.877 41.24C300.565 41.24 299.461 40.784 298.565 39.872C297.669 38.944 297.221 37.584 297.221 35.792ZM313.507 28.52H317.563C317.931 28.52 318.187 28.712 318.331 29.096L320.299 34.568L322.339 29.096C322.499 28.712 322.771 28.52 323.155 28.52H327.163C327.307 28.52 327.435 28.576 327.547 28.688C327.659 28.784 327.715 28.888 327.715 29C327.715 29.112 327.707 29.2 327.691 29.264L320.923 44.984C320.763 45.368 320.483 45.56 320.083 45.56H316.147C316.003 45.56 315.875 45.512 315.763 45.416C315.667 45.32 315.619 45.2 315.619 45.056C315.619 44.928 315.627 44.848 315.643 44.816L317.563 40.208L312.931 29.264C312.915 29.216 312.907 29.16 312.907 29.096C312.971 28.712 313.171 28.52 313.507 28.52Z" fill="#8E5833"/>
<mask id="path-7-inside-3_60_905" fill="white">
<path d="M336 0H504V66H336V0Z"/>
</mask>
<path d="M336 0H504V66H336V0Z" fill="#B9E500"/>
<path d="M503 0V66H505V0H503ZM337 66V0H335V66H337Z" fill="#8E5833" mask="url(#path-7-inside-3_60_905)"/>
<path d="M356.096 24.2H360.8C360.976 24.2 361.128 24.264 361.256 24.392C361.384 24.52 361.448 24.672 361.448 24.848V40.352C361.448 40.528 361.384 40.68 361.256 40.808C361.128 40.936 360.976 41 360.8 41H356.096C355.92 41 355.768 40.936 355.64 40.808C355.512 40.68 355.448 40.528 355.448 40.352V35.168H351.56V40.352C351.56 40.528 351.496 40.68 351.368 40.808C351.24 40.936 351.088 41 350.912 41H346.208C346.032 41 345.88 40.944 345.752 40.832C345.624 40.704 345.56 40.544 345.56 40.352V24.848C345.56 24.672 345.624 24.52 345.752 24.392C345.88 24.264 346.032 24.2 346.208 24.2H350.912C351.088 24.2 351.24 24.264 351.368 24.392C351.496 24.52 351.56 24.672 351.56 24.848V29.888H355.448V24.848C355.448 24.672 355.512 24.52 355.64 24.392C355.768 24.264 355.92 24.2 356.096 24.2ZM363.848 35.576V33.944C363.848 32.12 364.496 30.72 365.792 29.744C367.088 28.768 368.76 28.28 370.808 28.28C372.856 28.28 374.528 28.768 375.824 29.744C377.12 30.72 377.768 32.12 377.768 33.944V35.576C377.768 37.416 377.144 38.824 375.896 39.8C374.648 40.76 372.952 41.24 370.808 41.24C368.664 41.24 366.968 40.76 365.72 39.8C364.472 38.824 363.848 37.416 363.848 35.576ZM371.888 35.768V33.752C371.888 33.144 371.808 32.72 371.648 32.48C371.488 32.24 371.208 32.12 370.808 32.12C370.408 32.12 370.128 32.24 369.968 32.48C369.808 32.72 369.728 33.144 369.728 33.752V35.768C369.728 36.408 369.808 36.84 369.968 37.064C370.128 37.288 370.408 37.4 370.808 37.4C371.208 37.4 371.488 37.28 371.648 37.04C371.808 36.8 371.888 36.376 371.888 35.768ZM388.025 28.52H390.257C390.689 28.52 390.961 28.712 391.073 29.096L392.633 34.088L394.097 29.096C394.209 28.712 394.481 28.52 394.913 28.52H398.609C398.769 28.52 398.905 28.576 399.017 28.688C399.129 28.8 399.185 28.912 399.185 29.024C399.185 29.136 399.177 29.224 399.161 29.288L395.657 40.4C395.529 40.8 395.265 41 394.865 41H391.649C391.249 41 390.985 40.8 390.857 40.4L389.153 35.552L387.425 40.4C387.297 40.8 387.033 41 386.633 41H383.417C383.017 41 382.753 40.8 382.625 40.4L379.121 29.288C379.105 29.224 379.097 29.136 379.097 29.024C379.097 28.912 379.153 28.8 379.265 28.688C379.377 28.576 379.513 28.52 379.673 28.52H383.369C383.801 28.52 384.073 28.712 384.185 29.096L385.649 34.088L387.209 29.096C387.321 28.712 387.593 28.52 388.025 28.52ZM407.993 24.2H422.057C422.233 24.2 422.385 24.264 422.513 24.392C422.641 24.52 422.705 24.672 422.705 24.848V28.712C422.705 28.888 422.641 29.04 422.513 29.168C422.385 29.296 422.233 29.36 422.057 29.36H418.073V40.352C418.073 40.528 418.009 40.68 417.881 40.808C417.753 40.936 417.601 41 417.425 41H412.625C412.449 41 412.297 40.936 412.169 40.808C412.041 40.68 411.977 40.528 411.977 40.352V29.36H407.993C407.817 29.36 407.665 29.296 407.537 29.168C407.409 29.04 407.345 28.888 407.345 28.712V24.848C407.345 24.672 407.409 24.52 407.537 24.392C407.665 24.264 407.817 24.2 407.993 24.2ZM424.27 35.576V33.944C424.27 32.12 424.918 30.72 426.214 29.744C427.51 28.768 429.182 28.28 431.23 28.28C433.278 28.28 434.95 28.768 436.246 29.744C437.542 30.72 438.19 32.12 438.19 33.944V35.576C438.19 37.416 437.566 38.824 436.318 39.8C435.07 40.76 433.374 41.24 431.23 41.24C429.086 41.24 427.39 40.76 426.142 39.8C424.894 38.824 424.27 37.416 424.27 35.576ZM432.31 35.768V33.752C432.31 33.144 432.23 32.72 432.07 32.48C431.91 32.24 431.63 32.12 431.23 32.12C430.83 32.12 430.55 32.24 430.39 32.48C430.23 32.72 430.15 33.144 430.15 33.752V35.768C430.15 36.408 430.23 36.84 430.39 37.064C430.55 37.288 430.83 37.4 431.23 37.4C431.63 37.4 431.91 37.28 432.07 37.04C432.23 36.8 432.31 36.376 432.31 35.768ZM456.296 30.2C456.472 29.992 456.56 29.744 456.56 29.456C456.56 29.168 456.472 28.912 456.296 28.688C456.136 28.448 455.896 28.328 455.576 28.328H453.56V30.512H455.576C455.896 30.512 456.136 30.408 456.296 30.2ZM453.56 34.52V36.872H455.792C456.16 36.872 456.432 36.752 456.608 36.512C456.8 36.256 456.896 35.976 456.896 35.672V35.648C456.896 35.344 456.792 35.08 456.584 34.856C456.392 34.632 456.128 34.52 455.792 34.52H453.56ZM456.416 41H448.208C448.032 41 447.88 40.936 447.752 40.808C447.624 40.68 447.56 40.528 447.56 40.352V24.848C447.56 24.672 447.624 24.52 447.752 24.392C447.88 24.264 448.032 24.2 448.208 24.2H456.176C458.448 24.2 460.12 24.616 461.192 25.448C462.28 26.264 462.824 27.504 462.824 29.168V29.24C462.824 29.928 462.624 30.544 462.224 31.088C461.824 31.616 461.384 32 460.904 32.24C461.544 32.496 462.08 32.952 462.512 33.608C462.96 34.248 463.184 34.952 463.184 35.72C463.184 39.24 460.928 41 456.416 41ZM465.221 35.792V29.168C465.221 28.992 465.285 28.84 465.413 28.712C465.541 28.584 465.693 28.52 465.869 28.52H470.453C470.629 28.52 470.781 28.584 470.909 28.712C471.037 28.84 471.101 28.992 471.101 29.168V35.624C471.101 36.504 471.501 36.944 472.301 36.944C473.101 36.944 473.501 36.504 473.501 35.624V29.168C473.501 28.992 473.565 28.84 473.693 28.712C473.821 28.584 473.973 28.52 474.149 28.52H478.709C478.885 28.52 479.037 28.584 479.165 28.712C479.293 28.84 479.357 28.992 479.357 29.168V40.352C479.357 40.528 479.293 40.68 479.165 40.808C479.037 40.936 478.885 41 478.709 41H474.509C474.333 41 474.181 40.936 474.053 40.808C473.925 40.68 473.861 40.528 473.861 40.352V39.56C473.109 40.68 471.781 41.24 469.877 41.24C468.565 41.24 467.461 40.784 466.565 39.872C465.669 38.944 465.221 37.584 465.221 35.792ZM481.507 28.52H485.563C485.931 28.52 486.187 28.712 486.331 29.096L488.299 34.568L490.339 29.096C490.499 28.712 490.771 28.52 491.155 28.52H495.163C495.307 28.52 495.435 28.576 495.547 28.688C495.659 28.784 495.715 28.888 495.715 29C495.715 29.112 495.707 29.2 495.691 29.264L488.923 44.984C488.763 45.368 488.483 45.56 488.083 45.56H484.147C484.003 45.56 483.875 45.512 483.763 45.416C483.667 45.32 483.619 45.2 483.619 45.056C483.619 44.928 483.627 44.848 483.643 44.816L485.563 40.208L480.931 29.264C480.915 29.216 480.907 29.16 480.907 29.096C480.971 28.712 481.171 28.52 481.507 28.52Z" fill="#8E5833"/>
<mask id="path-10-inside-4_60_905" fill="white">
<path d="M504 0H672V66H504V0Z"/>
</mask>
<path d="M504 0H672V66H504V0Z" fill="#B9E500"/>
<path d="M671 0V66H673V0H671ZM505 66V0H503V66H505Z" fill="#8E5833" mask="url(#path-10-inside-4_60_905)"/>
<path d="M524.096 24.2H528.8C528.976 24.2 529.128 24.264 529.256 24.392C529.384 24.52 529.448 24.672 529.448 24.848V40.352C529.448 40.528 529.384 40.68 529.256 40.808C529.128 40.936 528.976 41 528.8 41H524.096C523.92 41 523.768 40.936 523.64 40.808C523.512 40.68 523.448 40.528 523.448 40.352V35.168H519.56V40.352C519.56 40.528 519.496 40.68 519.368 40.808C519.24 40.936 519.088 41 518.912 41H514.208C514.032 41 513.88 40.944 513.752 40.832C513.624 40.704 513.56 40.544 513.56 40.352V24.848C513.56 24.672 513.624 24.52 513.752 24.392C513.88 24.264 514.032 24.2 514.208 24.2H518.912C519.088 24.2 519.24 24.264 519.368 24.392C519.496 24.52 519.56 24.672 519.56 24.848V29.888H523.448V24.848C523.448 24.672 523.512 24.52 523.64 24.392C523.768 24.264 523.92 24.2 524.096 24.2ZM531.848 35.576V33.944C531.848 32.12 532.496 30.72 533.792 29.744C535.088 28.768 536.76 28.28 538.808 28.28C540.856 28.28 542.528 28.768 543.824 29.744C545.12 30.72 545.768 32.12 545.768 33.944V35.576C545.768 37.416 545.144 38.824 543.896 39.8C542.648 40.76 540.952 41.24 538.808 41.24C536.664 41.24 534.968 40.76 533.72 39.8C532.472 38.824 531.848 37.416 531.848 35.576ZM539.888 35.768V33.752C539.888 33.144 539.808 32.72 539.648 32.48C539.488 32.24 539.208 32.12 538.808 32.12C538.408 32.12 538.128 32.24 537.968 32.48C537.808 32.72 537.728 33.144 537.728 33.752V35.768C537.728 36.408 537.808 36.84 537.968 37.064C538.128 37.288 538.408 37.4 538.808 37.4C539.208 37.4 539.488 37.28 539.648 37.04C539.808 36.8 539.888 36.376 539.888 35.768ZM556.025 28.52H558.257C558.689 28.52 558.961 28.712 559.073 29.096L560.633 34.088L562.097 29.096C562.209 28.712 562.481 28.52 562.913 28.52H566.609C566.769 28.52 566.905 28.576 567.017 28.688C567.129 28.8 567.185 28.912 567.185 29.024C567.185 29.136 567.177 29.224 567.161 29.288L563.657 40.4C563.529 40.8 563.265 41 562.865 41H559.649C559.249 41 558.985 40.8 558.857 40.4L557.153 35.552L555.425 40.4C555.297 40.8 555.033 41 554.633 41H551.417C551.017 41 550.753 40.8 550.625 40.4L547.121 29.288C547.105 29.224 547.097 29.136 547.097 29.024C547.097 28.912 547.153 28.8 547.265 28.688C547.377 28.576 547.513 28.52 547.673 28.52H551.369C551.801 28.52 552.073 28.712 552.185 29.096L553.649 34.088L555.209 29.096C555.321 28.712 555.593 28.52 556.025 28.52ZM575.993 24.2H590.057C590.233 24.2 590.385 24.264 590.513 24.392C590.641 24.52 590.705 24.672 590.705 24.848V28.712C590.705 28.888 590.641 29.04 590.513 29.168C590.385 29.296 590.233 29.36 590.057 29.36H586.073V40.352C586.073 40.528 586.009 40.68 585.881 40.808C585.753 40.936 585.601 41 585.425 41H580.625C580.449 41 580.297 40.936 580.169 40.808C580.041 40.68 579.977 40.528 579.977 40.352V29.36H575.993C575.817 29.36 575.665 29.296 575.537 29.168C575.409 29.04 575.345 28.888 575.345 28.712V24.848C575.345 24.672 575.409 24.52 575.537 24.392C575.665 24.264 575.817 24.2 575.993 24.2ZM592.27 35.576V33.944C592.27 32.12 592.918 30.72 594.214 29.744C595.51 28.768 597.182 28.28 599.23 28.28C601.278 28.28 602.95 28.768 604.246 29.744C605.542 30.72 606.19 32.12 606.19 33.944V35.576C606.19 37.416 605.566 38.824 604.318 39.8C603.07 40.76 601.374 41.24 599.23 41.24C597.086 41.24 595.39 40.76 594.142 39.8C592.894 38.824 592.27 37.416 592.27 35.576ZM600.31 35.768V33.752C600.31 33.144 600.23 32.72 600.07 32.48C599.91 32.24 599.63 32.12 599.23 32.12C598.83 32.12 598.55 32.24 598.39 32.48C598.23 32.72 598.15 33.144 598.15 33.752V35.768C598.15 36.408 598.23 36.84 598.39 37.064C598.55 37.288 598.83 37.4 599.23 37.4C599.63 37.4 599.91 37.28 600.07 37.04C600.23 36.8 600.31 36.376 600.31 35.768ZM624.296 30.2C624.472 29.992 624.56 29.744 624.56 29.456C624.56 29.168 624.472 28.912 624.296 28.688C624.136 28.448 623.896 28.328 623.576 28.328H621.56V30.512H623.576C623.896 30.512 624.136 30.408 624.296 30.2ZM621.56 34.52V36.872H623.792C624.16 36.872 624.432 36.752 624.608 36.512C624.8 36.256 624.896 35.976 624.896 35.672V35.648C624.896 35.344 624.792 35.08 624.584 34.856C624.392 34.632 624.128 34.52 623.792 34.52H621.56ZM624.416 41H616.208C616.032 41 615.88 40.936 615.752 40.808C615.624 40.68 615.56 40.528 615.56 40.352V24.848C615.56 24.672 615.624 24.52 615.752 24.392C615.88 24.264 616.032 24.2 616.208 24.2H624.176C626.448 24.2 628.12 24.616 629.192 25.448C630.28 26.264 630.824 27.504 630.824 29.168V29.24C630.824 29.928 630.624 30.544 630.224 31.088C629.824 31.616 629.384 32 628.904 32.24C629.544 32.496 630.08 32.952 630.512 33.608C630.96 34.248 631.184 34.952 631.184 35.72C631.184 39.24 628.928 41 624.416 41ZM633.221 35.792V29.168C633.221 28.992 633.285 28.84 633.413 28.712C633.541 28.584 633.693 28.52 633.869 28.52H638.453C638.629 28.52 638.781 28.584 638.909 28.712C639.037 28.84 639.101 28.992 639.101 29.168V35.624C639.101 36.504 639.501 36.944 640.301 36.944C641.101 36.944 641.501 36.504 641.501 35.624V29.168C641.501 28.992 641.565 28.84 641.693 28.712C641.821 28.584 641.973 28.52 642.149 28.52H646.709C646.885 28.52 647.037 28.584 647.165 28.712C647.293 28.84 647.357 28.992 647.357 29.168V40.352C647.357 40.528 647.293 40.68 647.165 40.808C647.037 40.936 646.885 41 646.709 41H642.509C642.333 41 642.181 40.936 642.053 40.808C641.925 40.68 641.861 40.528 641.861 40.352V39.56C641.109 40.68 639.781 41.24 637.877 41.24C636.565 41.24 635.461 40.784 634.565 39.872C633.669 38.944 633.221 37.584 633.221 35.792ZM649.507 28.52H653.563C653.931 28.52 654.187 28.712 654.331 29.096L656.299 34.568L658.339 29.096C658.499 28.712 658.771 28.52 659.155 28.52H663.163C663.307 28.52 663.435 28.576 663.547 28.688C663.659 28.784 663.715 28.888 663.715 29C663.715 29.112 663.707 29.2 663.691 29.264L656.923 44.984C656.763 45.368 656.483 45.56 656.083 45.56H652.147C652.003 45.56 651.875 45.512 651.763 45.416C651.667 45.32 651.619 45.2 651.619 45.056C651.619 44.928 651.627 44.848 651.643 44.816L653.563 40.208L648.931 29.264C648.915 29.216 648.907 29.16 648.907 29.096C648.971 28.712 649.171 28.52 649.507 28.52Z" fill="#8E5833"/>
<mask id="path-13-inside-5_60_905" fill="white">
<path d="M672 0H840V66H672V0Z"/>
</mask>
<path d="M672 0H840V66H672V0Z" fill="#B9E500"/>
<path d="M839 0V66H841V0H839ZM673 66V0H671V66H673Z" fill="#8E5833" mask="url(#path-13-inside-5_60_905)"/>
<path d="M692.096 24.2H696.8C696.976 24.2 697.128 24.264 697.256 24.392C697.384 24.52 697.448 24.672 697.448 24.848V40.352C697.448 40.528 697.384 40.68 697.256 40.808C697.128 40.936 696.976 41 696.8 41H692.096C691.92 41 691.768 40.936 691.64 40.808C691.512 40.68 691.448 40.528 691.448 40.352V35.168H687.56V40.352C687.56 40.528 687.496 40.68 687.368 40.808C687.24 40.936 687.088 41 686.912 41H682.208C682.032 41 681.88 40.944 681.752 40.832C681.624 40.704 681.56 40.544 681.56 40.352V24.848C681.56 24.672 681.624 24.52 681.752 24.392C681.88 24.264 682.032 24.2 682.208 24.2H686.912C687.088 24.2 687.24 24.264 687.368 24.392C687.496 24.52 687.56 24.672 687.56 24.848V29.888H691.448V24.848C691.448 24.672 691.512 24.52 691.64 24.392C691.768 24.264 691.92 24.2 692.096 24.2ZM699.848 35.576V33.944C699.848 32.12 700.496 30.72 701.792 29.744C703.088 28.768 704.76 28.28 706.808 28.28C708.856 28.28 710.528 28.768 711.824 29.744C713.12 30.72 713.768 32.12 713.768 33.944V35.576C713.768 37.416 713.144 38.824 711.896 39.8C710.648 40.76 708.952 41.24 706.808 41.24C704.664 41.24 702.968 40.76 701.72 39.8C700.472 38.824 699.848 37.416 699.848 35.576ZM707.888 35.768V33.752C707.888 33.144 707.808 32.72 707.648 32.48C707.488 32.24 707.208 32.12 706.808 32.12C706.408 32.12 706.128 32.24 705.968 32.48C705.808 32.72 705.728 33.144 705.728 33.752V35.768C705.728 36.408 705.808 36.84 705.968 37.064C706.128 37.288 706.408 37.4 706.808 37.4C707.208 37.4 707.488 37.28 707.648 37.04C707.808 36.8 707.888 36.376 707.888 35.768ZM724.025 28.52H726.257C726.689 28.52 726.961 28.712 727.073 29.096L728.633 34.088L730.097 29.096C730.209 28.712 730.481 28.52 730.913 28.52H734.609C734.769 28.52 734.905 28.576 735.017 28.688C735.129 28.8 735.185 28.912 735.185 29.024C735.185 29.136 735.177 29.224 735.161 29.288L731.657 40.4C731.529 40.8 731.265 41 730.865 41H727.649C727.249 41 726.985 40.8 726.857 40.4L725.153 35.552L723.425 40.4C723.297 40.8 723.033 41 722.633 41H719.417C719.017 41 718.753 40.8 718.625 40.4L715.121 29.288C715.105 29.224 715.097 29.136 715.097 29.024C715.097 28.912 715.153 28.8 715.265 28.688C715.377 28.576 715.513 28.52 715.673 28.52H719.369C719.801 28.52 720.073 28.712 720.185 29.096L721.649 34.088L723.209 29.096C723.321 28.712 723.593 28.52 724.025 28.52ZM743.993 24.2H758.057C758.233 24.2 758.385 24.264 758.513 24.392C758.641 24.52 758.705 24.672 758.705 24.848V28.712C758.705 28.888 758.641 29.04 758.513 29.168C758.385 29.296 758.233 29.36 758.057 29.36H754.073V40.352C754.073 40.528 754.009 40.68 753.881 40.808C753.753 40.936 753.601 41 753.425 41H748.625C748.449 41 748.297 40.936 748.169 40.808C748.041 40.68 747.977 40.528 747.977 40.352V29.36H743.993C743.817 29.36 743.665 29.296 743.537 29.168C743.409 29.04 743.345 28.888 743.345 28.712V24.848C743.345 24.672 743.409 24.52 743.537 24.392C743.665 24.264 743.817 24.2 743.993 24.2ZM760.27 35.576V33.944C760.27 32.12 760.918 30.72 762.214 29.744C763.51 28.768 765.182 28.28 767.23 28.28C769.278 28.28 770.95 28.768 772.246 29.744C773.542 30.72 774.19 32.12 774.19 33.944V35.576C774.19 37.416 773.566 38.824 772.318 39.8C771.07 40.76 769.374 41.24 767.23 41.24C765.086 41.24 763.39 40.76 762.142 39.8C760.894 38.824 760.27 37.416 760.27 35.576ZM768.31 35.768V33.752C768.31 33.144 768.23 32.72 768.07 32.48C767.91 32.24 767.63 32.12 767.23 32.12C766.83 32.12 766.55 32.24 766.39 32.48C766.23 32.72 766.15 33.144 766.15 33.752V35.768C766.15 36.408 766.23 36.84 766.39 37.064C766.55 37.288 766.83 37.4 767.23 37.4C767.63 37.4 767.91 37.28 768.07 37.04C768.23 36.8 768.31 36.376 768.31 35.768ZM792.296 30.2C792.472 29.992 792.56 29.744 792.56 29.456C792.56 29.168 792.472 28.912 792.296 28.688C792.136 28.448 791.896 28.328 791.576 28.328H789.56V30.512H791.576C791.896 30.512 792.136 30.408 792.296 30.2ZM789.56 34.52V36.872H791.792C792.16 36.872 792.432 36.752 792.608 36.512C792.8 36.256 792.896 35.976 792.896 35.672V35.648C792.896 35.344 792.792 35.08 792.584 34.856C792.392 34.632 792.128 34.52 791.792 34.52H789.56ZM792.416 41H784.208C784.032 41 783.88 40.936 783.752 40.808C783.624 40.68 783.56 40.528 783.56 40.352V24.848C783.56 24.672 783.624 24.52 783.752 24.392C783.88 24.264 784.032 24.2 784.208 24.2H792.176C794.448 24.2 796.12 24.616 797.192 25.448C798.28 26.264 798.824 27.504 798.824 29.168V29.24C798.824 29.928 798.624 30.544 798.224 31.088C797.824 31.616 797.384 32 796.904 32.24C797.544 32.496 798.08 32.952 798.512 33.608C798.96 34.248 799.184 34.952 799.184 35.72C799.184 39.24 796.928 41 792.416 41ZM801.221 35.792V29.168C801.221 28.992 801.285 28.84 801.413 28.712C801.541 28.584 801.693 28.52 801.869 28.52H806.453C806.629 28.52 806.781 28.584 806.909 28.712C807.037 28.84 807.101 28.992 807.101 29.168V35.624C807.101 36.504 807.501 36.944 808.301 36.944C809.101 36.944 809.501 36.504 809.501 35.624V29.168C809.501 28.992 809.565 28.84 809.693 28.712C809.821 28.584 809.973 28.52 810.149 28.52H814.709C814.885 28.52 815.037 28.584 815.165 28.712C815.293 28.84 815.357 28.992 815.357 29.168V40.352C815.357 40.528 815.293 40.68 815.165 40.808C815.037 40.936 814.885 41 814.709 41H810.509C810.333 41 810.181 40.936 810.053 40.808C809.925 40.68 809.861 40.528 809.861 40.352V39.56C809.109 40.68 807.781 41.24 805.877 41.24C804.565 41.24 803.461 40.784 802.565 39.872C801.669 38.944 801.221 37.584 801.221 35.792ZM817.507 28.52H821.563C821.931 28.52 822.187 28.712 822.331 29.096L824.299 34.568L826.339 29.096C826.499 28.712 826.771 28.52 827.155 28.52H831.163C831.307 28.52 831.435 28.576 831.547 28.688C831.659 28.784 831.715 28.888 831.715 29C831.715 29.112 831.707 29.2 831.691 29.264L824.923 44.984C824.763 45.368 824.483 45.56 824.083 45.56H820.147C820.003 45.56 819.875 45.512 819.763 45.416C819.667 45.32 819.619 45.2 819.619 45.056C819.619 44.928 819.627 44.848 819.643 44.816L821.563 40.208L816.931 29.264C816.915 29.216 816.907 29.16 816.907 29.096C816.971 28.712 817.171 28.52 817.507 28.52Z" fill="#8E5833"/>
<mask id="path-16-inside-6_60_905" fill="white">
<path d="M840 0H1008V66H840V0Z"/>
</mask>
<path d="M840 0H1008V66H840V0Z" fill="#B9E500"/>
<path d="M1007 0V66H1009V0H1007ZM841 66V0H839V66H841Z" fill="#8E5833" mask="url(#path-16-inside-6_60_905)"/>
<path d="M860.096 24.2H864.8C864.976 24.2 865.128 24.264 865.256 24.392C865.384 24.52 865.448 24.672 865.448 24.848V40.352C865.448 40.528 865.384 40.68 865.256 40.808C865.128 40.936 864.976 41 864.8 41H860.096C859.92 41 859.768 40.936 859.64 40.808C859.512 40.68 859.448 40.528 859.448 40.352V35.168H855.56V40.352C855.56 40.528 855.496 40.68 855.368 40.808C855.24 40.936 855.088 41 854.912 41H850.208C850.032 41 849.88 40.944 849.752 40.832C849.624 40.704 849.56 40.544 849.56 40.352V24.848C849.56 24.672 849.624 24.52 849.752 24.392C849.88 24.264 850.032 24.2 850.208 24.2H854.912C855.088 24.2 855.24 24.264 855.368 24.392C855.496 24.52 855.56 24.672 855.56 24.848V29.888H859.448V24.848C859.448 24.672 859.512 24.52 859.64 24.392C859.768 24.264 859.92 24.2 860.096 24.2ZM867.848 35.576V33.944C867.848 32.12 868.496 30.72 869.792 29.744C871.088 28.768 872.76 28.28 874.808 28.28C876.856 28.28 878.528 28.768 879.824 29.744C881.12 30.72 881.768 32.12 881.768 33.944V35.576C881.768 37.416 881.144 38.824 879.896 39.8C878.648 40.76 876.952 41.24 874.808 41.24C872.664 41.24 870.968 40.76 869.72 39.8C868.472 38.824 867.848 37.416 867.848 35.576ZM875.888 35.768V33.752C875.888 33.144 875.808 32.72 875.648 32.48C875.488 32.24 875.208 32.12 874.808 32.12C874.408 32.12 874.128 32.24 873.968 32.48C873.808 32.72 873.728 33.144 873.728 33.752V35.768C873.728 36.408 873.808 36.84 873.968 37.064C874.128 37.288 874.408 37.4 874.808 37.4C875.208 37.4 875.488 37.28 875.648 37.04C875.808 36.8 875.888 36.376 875.888 35.768ZM892.025 28.52H894.257C894.689 28.52 894.961 28.712 895.073 29.096L896.633 34.088L898.097 29.096C898.209 28.712 898.481 28.52 898.913 28.52H902.609C902.769 28.52 902.905 28.576 903.017 28.688C903.129 28.8 903.185 28.912 903.185 29.024C903.185 29.136 903.177 29.224 903.161 29.288L899.657 40.4C899.529 40.8 899.265 41 898.865 41H895.649C895.249 41 894.985 40.8 894.857 40.4L893.153 35.552L891.425 40.4C891.297 40.8 891.033 41 890.633 41H887.417C887.017 41 886.753 40.8 886.625 40.4L883.121 29.288C883.105 29.224 883.097 29.136 883.097 29.024C883.097 28.912 883.153 28.8 883.265 28.688C883.377 28.576 883.513 28.52 883.673 28.52H887.369C887.801 28.52 888.073 28.712 888.185 29.096L889.649 34.088L891.209 29.096C891.321 28.712 891.593 28.52 892.025 28.52ZM911.993 24.2H926.057C926.233 24.2 926.385 24.264 926.513 24.392C926.641 24.52 926.705 24.672 926.705 24.848V28.712C926.705 28.888 926.641 29.04 926.513 29.168C926.385 29.296 926.233 29.36 926.057 29.36H922.073V40.352C922.073 40.528 922.009 40.68 921.881 40.808C921.753 40.936 921.601 41 921.425 41H916.625C916.449 41 916.297 40.936 916.169 40.808C916.041 40.68 915.977 40.528 915.977 40.352V29.36H911.993C911.817 29.36 911.665 29.296 911.537 29.168C911.409 29.04 911.345 28.888 911.345 28.712V24.848C911.345 24.672 911.409 24.52 911.537 24.392C911.665 24.264 911.817 24.2 911.993 24.2ZM928.27 35.576V33.944C928.27 32.12 928.918 30.72 930.214 29.744C931.51 28.768 933.182 28.28 935.23 28.28C937.278 28.28 938.95 28.768 940.246 29.744C941.542 30.72 942.19 32.12 942.19 33.944V35.576C942.19 37.416 941.566 38.824 940.318 39.8C939.07 40.76 937.374 41.24 935.23 41.24C933.086 41.24 931.39 40.76 930.142 39.8C928.894 38.824 928.27 37.416 928.27 35.576ZM936.31 35.768V33.752C936.31 33.144 936.23 32.72 936.07 32.48C935.91 32.24 935.63 32.12 935.23 32.12C934.83 32.12 934.55 32.24 934.39 32.48C934.23 32.72 934.15 33.144 934.15 33.752V35.768C934.15 36.408 934.23 36.84 934.39 37.064C934.55 37.288 934.83 37.4 935.23 37.4C935.63 37.4 935.91 37.28 936.07 37.04C936.23 36.8 936.31 36.376 936.31 35.768ZM960.296 30.2C960.472 29.992 960.56 29.744 960.56 29.456C960.56 29.168 960.472 28.912 960.296 28.688C960.136 28.448 959.896 28.328 959.576 28.328H957.56V30.512H959.576C959.896 30.512 960.136 30.408 960.296 30.2ZM957.56 34.52V36.872H959.792C960.16 36.872 960.432 36.752 960.608 36.512C960.8 36.256 960.896 35.976 960.896 35.672V35.648C960.896 35.344 960.792 35.08 960.584 34.856C960.392 34.632 960.128 34.52 959.792 34.52H957.56ZM960.416 41H952.208C952.032 41 951.88 40.936 951.752 40.808C951.624 40.68 951.56 40.528 951.56 40.352V24.848C951.56 24.672 951.624 24.52 951.752 24.392C951.88 24.264 952.032 24.2 952.208 24.2H960.176C962.448 24.2 964.12 24.616 965.192 25.448C966.28 26.264 966.824 27.504 966.824 29.168V29.24C966.824 29.928 966.624 30.544 966.224 31.088C965.824 31.616 965.384 32 964.904 32.24C965.544 32.496 966.08 32.952 966.512 33.608C966.96 34.248 967.184 34.952 967.184 35.72C967.184 39.24 964.928 41 960.416 41ZM969.221 35.792V29.168C969.221 28.992 969.285 28.84 969.413 28.712C969.541 28.584 969.693 28.52 969.869 28.52H974.453C974.629 28.52 974.781 28.584 974.909 28.712C975.037 28.84 975.101 28.992 975.101 29.168V35.624C975.101 36.504 975.501 36.944 976.301 36.944C977.101 36.944 977.501 36.504 977.501 35.624V29.168C977.501 28.992 977.565 28.84 977.693 28.712C977.821 28.584 977.973 28.52 978.149 28.52H982.709C982.885 28.52 983.037 28.584 983.165 28.712C983.293 28.84 983.357 28.992 983.357 29.168V40.352C983.357 40.528 983.293 40.68 983.165 40.808C983.037 40.936 982.885 41 982.709 41H978.509C978.333 41 978.181 40.936 978.053 40.808C977.925 40.68 977.861 40.528 977.861 40.352V39.56C977.109 40.68 975.781 41.24 973.877 41.24C972.565 41.24 971.461 40.784 970.565 39.872C969.669 38.944 969.221 37.584 969.221 35.792ZM985.507 28.52H989.563C989.931 28.52 990.187 28.712 990.331 29.096L992.299 34.568L994.339 29.096C994.499 28.712 994.771 28.52 995.155 28.52H999.163C999.307 28.52 999.435 28.576 999.547 28.688C999.659 28.784 999.715 28.888 999.715 29C999.715 29.112 999.707 29.2 999.691 29.264L992.923 44.984C992.763 45.368 992.483 45.56 992.083 45.56H988.147C988.003 45.56 987.875 45.512 987.763 45.416C987.667 45.32 987.619 45.2 987.619 45.056C987.619 44.928 987.627 44.848 987.643 44.816L989.563 40.208L984.931 29.264C984.915 29.216 984.907 29.16 984.907 29.096C984.971 28.712 985.171 28.52 985.507 28.52Z" fill="#8E5833"/>
<mask id="path-19-inside-7_60_905" fill="white">
<path d="M1008 0H1176V66H1008V0Z"/>
</mask>
<path d="M1008 0H1176V66H1008V0Z" fill="#B9E500"/>
<path d="M1175 0V66H1177V0H1175ZM1009 66V0H1007V66H1009Z" fill="#8E5833" mask="url(#path-19-inside-7_60_905)"/>
<path d="M1028.1 24.2H1032.8C1032.98 24.2 1033.13 24.264 1033.26 24.392C1033.38 24.52 1033.45 24.672 1033.45 24.848V40.352C1033.45 40.528 1033.38 40.68 1033.26 40.808C1033.13 40.936 1032.98 41 1032.8 41H1028.1C1027.92 41 1027.77 40.936 1027.64 40.808C1027.51 40.68 1027.45 40.528 1027.45 40.352V35.168H1023.56V40.352C1023.56 40.528 1023.5 40.68 1023.37 40.808C1023.24 40.936 1023.09 41 1022.91 41H1018.21C1018.03 41 1017.88 40.944 1017.75 40.832C1017.62 40.704 1017.56 40.544 1017.56 40.352V24.848C1017.56 24.672 1017.62 24.52 1017.75 24.392C1017.88 24.264 1018.03 24.2 1018.21 24.2H1022.91C1023.09 24.2 1023.24 24.264 1023.37 24.392C1023.5 24.52 1023.56 24.672 1023.56 24.848V29.888H1027.45V24.848C1027.45 24.672 1027.51 24.52 1027.64 24.392C1027.77 24.264 1027.92 24.2 1028.1 24.2ZM1035.85 35.576V33.944C1035.85 32.12 1036.5 30.72 1037.79 29.744C1039.09 28.768 1040.76 28.28 1042.81 28.28C1044.86 28.28 1046.53 28.768 1047.82 29.744C1049.12 30.72 1049.77 32.12 1049.77 33.944V35.576C1049.77 37.416 1049.14 38.824 1047.9 39.8C1046.65 40.76 1044.95 41.24 1042.81 41.24C1040.66 41.24 1038.97 40.76 1037.72 39.8C1036.47 38.824 1035.85 37.416 1035.85 35.576ZM1043.89 35.768V33.752C1043.89 33.144 1043.81 32.72 1043.65 32.48C1043.49 32.24 1043.21 32.12 1042.81 32.12C1042.41 32.12 1042.13 32.24 1041.97 32.48C1041.81 32.72 1041.73 33.144 1041.73 33.752V35.768C1041.73 36.408 1041.81 36.84 1041.97 37.064C1042.13 37.288 1042.41 37.4 1042.81 37.4C1043.21 37.4 1043.49 37.28 1043.65 37.04C1043.81 36.8 1043.89 36.376 1043.89 35.768ZM1060.03 28.52H1062.26C1062.69 28.52 1062.96 28.712 1063.07 29.096L1064.63 34.088L1066.1 29.096C1066.21 28.712 1066.48 28.52 1066.91 28.52H1070.61C1070.77 28.52 1070.91 28.576 1071.02 28.688C1071.13 28.8 1071.19 28.912 1071.19 29.024C1071.19 29.136 1071.18 29.224 1071.16 29.288L1067.66 40.4C1067.53 40.8 1067.27 41 1066.87 41H1063.65C1063.25 41 1062.99 40.8 1062.86 40.4L1061.15 35.552L1059.43 40.4C1059.3 40.8 1059.03 41 1058.63 41H1055.42C1055.02 41 1054.75 40.8 1054.63 40.4L1051.12 29.288C1051.11 29.224 1051.1 29.136 1051.1 29.024C1051.1 28.912 1051.15 28.8 1051.27 28.688C1051.38 28.576 1051.51 28.52 1051.67 28.52H1055.37C1055.8 28.52 1056.07 28.712 1056.19 29.096L1057.65 34.088L1059.21 29.096C1059.32 28.712 1059.59 28.52 1060.03 28.52ZM1079.99 24.2H1094.06C1094.23 24.2 1094.39 24.264 1094.51 24.392C1094.64 24.52 1094.71 24.672 1094.71 24.848V28.712C1094.71 28.888 1094.64 29.04 1094.51 29.168C1094.39 29.296 1094.23 29.36 1094.06 29.36H1090.07V40.352C1090.07 40.528 1090.01 40.68 1089.88 40.808C1089.75 40.936 1089.6 41 1089.43 41H1084.62C1084.45 41 1084.3 40.936 1084.17 40.808C1084.04 40.68 1083.98 40.528 1083.98 40.352V29.36H1079.99C1079.82 29.36 1079.67 29.296 1079.54 29.168C1079.41 29.04 1079.35 28.888 1079.35 28.712V24.848C1079.35 24.672 1079.41 24.52 1079.54 24.392C1079.67 24.264 1079.82 24.2 1079.99 24.2ZM1096.27 35.576V33.944C1096.27 32.12 1096.92 30.72 1098.21 29.744C1099.51 28.768 1101.18 28.28 1103.23 28.28C1105.28 28.28 1106.95 28.768 1108.25 29.744C1109.54 30.72 1110.19 32.12 1110.19 33.944V35.576C1110.19 37.416 1109.57 38.824 1108.32 39.8C1107.07 40.76 1105.37 41.24 1103.23 41.24C1101.09 41.24 1099.39 40.76 1098.14 39.8C1096.89 38.824 1096.27 37.416 1096.27 35.576ZM1104.31 35.768V33.752C1104.31 33.144 1104.23 32.72 1104.07 32.48C1103.91 32.24 1103.63 32.12 1103.23 32.12C1102.83 32.12 1102.55 32.24 1102.39 32.48C1102.23 32.72 1102.15 33.144 1102.15 33.752V35.768C1102.15 36.408 1102.23 36.84 1102.39 37.064C1102.55 37.288 1102.83 37.4 1103.23 37.4C1103.63 37.4 1103.91 37.28 1104.07 37.04C1104.23 36.8 1104.31 36.376 1104.31 35.768ZM1128.3 30.2C1128.47 29.992 1128.56 29.744 1128.56 29.456C1128.56 29.168 1128.47 28.912 1128.3 28.688C1128.14 28.448 1127.9 28.328 1127.58 28.328H1125.56V30.512H1127.58C1127.9 30.512 1128.14 30.408 1128.3 30.2ZM1125.56 34.52V36.872H1127.79C1128.16 36.872 1128.43 36.752 1128.61 36.512C1128.8 36.256 1128.9 35.976 1128.9 35.672V35.648C1128.9 35.344 1128.79 35.08 1128.58 34.856C1128.39 34.632 1128.13 34.52 1127.79 34.52H1125.56ZM1128.42 41H1120.21C1120.03 41 1119.88 40.936 1119.75 40.808C1119.62 40.68 1119.56 40.528 1119.56 40.352V24.848C1119.56 24.672 1119.62 24.52 1119.75 24.392C1119.88 24.264 1120.03 24.2 1120.21 24.2H1128.18C1130.45 24.2 1132.12 24.616 1133.19 25.448C1134.28 26.264 1134.82 27.504 1134.82 29.168V29.24C1134.82 29.928 1134.62 30.544 1134.22 31.088C1133.82 31.616 1133.38 32 1132.9 32.24C1133.54 32.496 1134.08 32.952 1134.51 33.608C1134.96 34.248 1135.18 34.952 1135.18 35.72C1135.18 39.24 1132.93 41 1128.42 41ZM1137.22 35.792V29.168C1137.22 28.992 1137.28 28.84 1137.41 28.712C1137.54 28.584 1137.69 28.52 1137.87 28.52H1142.45C1142.63 28.52 1142.78 28.584 1142.91 28.712C1143.04 28.84 1143.1 28.992 1143.1 29.168V35.624C1143.1 36.504 1143.5 36.944 1144.3 36.944C1145.1 36.944 1145.5 36.504 1145.5 35.624V29.168C1145.5 28.992 1145.56 28.84 1145.69 28.712C1145.82 28.584 1145.97 28.52 1146.15 28.52H1150.71C1150.88 28.52 1151.04 28.584 1151.16 28.712C1151.29 28.84 1151.36 28.992 1151.36 29.168V40.352C1151.36 40.528 1151.29 40.68 1151.16 40.808C1151.04 40.936 1150.88 41 1150.71 41H1146.51C1146.33 41 1146.18 40.936 1146.05 40.808C1145.92 40.68 1145.86 40.528 1145.86 40.352V39.56C1145.11 40.68 1143.78 41.24 1141.88 41.24C1140.56 41.24 1139.46 40.784 1138.56 39.872C1137.67 38.944 1137.22 37.584 1137.22 35.792ZM1153.51 28.52H1157.56C1157.93 28.52 1158.19 28.712 1158.33 29.096L1160.3 34.568L1162.34 29.096C1162.5 28.712 1162.77 28.52 1163.15 28.52H1167.16C1167.31 28.52 1167.43 28.576 1167.55 28.688C1167.66 28.784 1167.71 28.888 1167.71 29C1167.71 29.112 1167.71 29.2 1167.69 29.264L1160.92 44.984C1160.76 45.368 1160.48 45.56 1160.08 45.56H1156.15C1156 45.56 1155.87 45.512 1155.76 45.416C1155.67 45.32 1155.62 45.2 1155.62 45.056C1155.62 44.928 1155.63 44.848 1155.64 44.816L1157.56 40.208L1152.93 29.264C1152.91 29.216 1152.91 29.16 1152.91 29.096C1152.97 28.712 1153.17 28.52 1153.51 28.52Z" fill="#8E5833"/>
<mask id="path-22-inside-8_60_905" fill="white">
<path d="M1176 0H1344V66H1176V0Z"/>
</mask>
<path d="M1176 0H1344V66H1176V0Z" fill="#B9E500"/>
<path d="M1343 0V66H1345V0H1343ZM1177 66V0H1175V66H1177Z" fill="#8E5833" mask="url(#path-22-inside-8_60_905)"/>
<path d="M1196.1 24.2H1200.8C1200.98 24.2 1201.13 24.264 1201.26 24.392C1201.38 24.52 1201.45 24.672 1201.45 24.848V40.352C1201.45 40.528 1201.38 40.68 1201.26 40.808C1201.13 40.936 1200.98 41 1200.8 41H1196.1C1195.92 41 1195.77 40.936 1195.64 40.808C1195.51 40.68 1195.45 40.528 1195.45 40.352V35.168H1191.56V40.352C1191.56 40.528 1191.5 40.68 1191.37 40.808C1191.24 40.936 1191.09 41 1190.91 41H1186.21C1186.03 41 1185.88 40.944 1185.75 40.832C1185.62 40.704 1185.56 40.544 1185.56 40.352V24.848C1185.56 24.672 1185.62 24.52 1185.75 24.392C1185.88 24.264 1186.03 24.2 1186.21 24.2H1190.91C1191.09 24.2 1191.24 24.264 1191.37 24.392C1191.5 24.52 1191.56 24.672 1191.56 24.848V29.888H1195.45V24.848C1195.45 24.672 1195.51 24.52 1195.64 24.392C1195.77 24.264 1195.92 24.2 1196.1 24.2ZM1203.85 35.576V33.944C1203.85 32.12 1204.5 30.72 1205.79 29.744C1207.09 28.768 1208.76 28.28 1210.81 28.28C1212.86 28.28 1214.53 28.768 1215.82 29.744C1217.12 30.72 1217.77 32.12 1217.77 33.944V35.576C1217.77 37.416 1217.14 38.824 1215.9 39.8C1214.65 40.76 1212.95 41.24 1210.81 41.24C1208.66 41.24 1206.97 40.76 1205.72 39.8C1204.47 38.824 1203.85 37.416 1203.85 35.576ZM1211.89 35.768V33.752C1211.89 33.144 1211.81 32.72 1211.65 32.48C1211.49 32.24 1211.21 32.12 1210.81 32.12C1210.41 32.12 1210.13 32.24 1209.97 32.48C1209.81 32.72 1209.73 33.144 1209.73 33.752V35.768C1209.73 36.408 1209.81 36.84 1209.97 37.064C1210.13 37.288 1210.41 37.4 1210.81 37.4C1211.21 37.4 1211.49 37.28 1211.65 37.04C1211.81 36.8 1211.89 36.376 1211.89 35.768ZM1228.03 28.52H1230.26C1230.69 28.52 1230.96 28.712 1231.07 29.096L1232.63 34.088L1234.1 29.096C1234.21 28.712 1234.48 28.52 1234.91 28.52H1238.61C1238.77 28.52 1238.91 28.576 1239.02 28.688C1239.13 28.8 1239.19 28.912 1239.19 29.024C1239.19 29.136 1239.18 29.224 1239.16 29.288L1235.66 40.4C1235.53 40.8 1235.27 41 1234.87 41H1231.65C1231.25 41 1230.99 40.8 1230.86 40.4L1229.15 35.552L1227.43 40.4C1227.3 40.8 1227.03 41 1226.63 41H1223.42C1223.02 41 1222.75 40.8 1222.63 40.4L1219.12 29.288C1219.11 29.224 1219.1 29.136 1219.1 29.024C1219.1 28.912 1219.15 28.8 1219.27 28.688C1219.38 28.576 1219.51 28.52 1219.67 28.52H1223.37C1223.8 28.52 1224.07 28.712 1224.19 29.096L1225.65 34.088L1227.21 29.096C1227.32 28.712 1227.59 28.52 1228.03 28.52ZM1247.99 24.2H1262.06C1262.23 24.2 1262.39 24.264 1262.51 24.392C1262.64 24.52 1262.71 24.672 1262.71 24.848V28.712C1262.71 28.888 1262.64 29.04 1262.51 29.168C1262.39 29.296 1262.23 29.36 1262.06 29.36H1258.07V40.352C1258.07 40.528 1258.01 40.68 1257.88 40.808C1257.75 40.936 1257.6 41 1257.43 41H1252.62C1252.45 41 1252.3 40.936 1252.17 40.808C1252.04 40.68 1251.98 40.528 1251.98 40.352V29.36H1247.99C1247.82 29.36 1247.67 29.296 1247.54 29.168C1247.41 29.04 1247.35 28.888 1247.35 28.712V24.848C1247.35 24.672 1247.41 24.52 1247.54 24.392C1247.67 24.264 1247.82 24.2 1247.99 24.2ZM1264.27 35.576V33.944C1264.27 32.12 1264.92 30.72 1266.21 29.744C1267.51 28.768 1269.18 28.28 1271.23 28.28C1273.28 28.28 1274.95 28.768 1276.25 29.744C1277.54 30.72 1278.19 32.12 1278.19 33.944V35.576C1278.19 37.416 1277.57 38.824 1276.32 39.8C1275.07 40.76 1273.37 41.24 1271.23 41.24C1269.09 41.24 1267.39 40.76 1266.14 39.8C1264.89 38.824 1264.27 37.416 1264.27 35.576ZM1272.31 35.768V33.752C1272.31 33.144 1272.23 32.72 1272.07 32.48C1271.91 32.24 1271.63 32.12 1271.23 32.12C1270.83 32.12 1270.55 32.24 1270.39 32.48C1270.23 32.72 1270.15 33.144 1270.15 33.752V35.768C1270.15 36.408 1270.23 36.84 1270.39 37.064C1270.55 37.288 1270.83 37.4 1271.23 37.4C1271.63 37.4 1271.91 37.28 1272.07 37.04C1272.23 36.8 1272.31 36.376 1272.31 35.768ZM1296.3 30.2C1296.47 29.992 1296.56 29.744 1296.56 29.456C1296.56 29.168 1296.47 28.912 1296.3 28.688C1296.14 28.448 1295.9 28.328 1295.58 28.328H1293.56V30.512H1295.58C1295.9 30.512 1296.14 30.408 1296.3 30.2ZM1293.56 34.52V36.872H1295.79C1296.16 36.872 1296.43 36.752 1296.61 36.512C1296.8 36.256 1296.9 35.976 1296.9 35.672V35.648C1296.9 35.344 1296.79 35.08 1296.58 34.856C1296.39 34.632 1296.13 34.52 1295.79 34.52H1293.56ZM1296.42 41H1288.21C1288.03 41 1287.88 40.936 1287.75 40.808C1287.62 40.68 1287.56 40.528 1287.56 40.352V24.848C1287.56 24.672 1287.62 24.52 1287.75 24.392C1287.88 24.264 1288.03 24.2 1288.21 24.2H1296.18C1298.45 24.2 1300.12 24.616 1301.19 25.448C1302.28 26.264 1302.82 27.504 1302.82 29.168V29.24C1302.82 29.928 1302.62 30.544 1302.22 31.088C1301.82 31.616 1301.38 32 1300.9 32.24C1301.54 32.496 1302.08 32.952 1302.51 33.608C1302.96 34.248 1303.18 34.952 1303.18 35.72C1303.18 39.24 1300.93 41 1296.42 41ZM1305.22 35.792V29.168C1305.22 28.992 1305.28 28.84 1305.41 28.712C1305.54 28.584 1305.69 28.52 1305.87 28.52H1310.45C1310.63 28.52 1310.78 28.584 1310.91 28.712C1311.04 28.84 1311.1 28.992 1311.1 29.168V35.624C1311.1 36.504 1311.5 36.944 1312.3 36.944C1313.1 36.944 1313.5 36.504 1313.5 35.624V29.168C1313.5 28.992 1313.56 28.84 1313.69 28.712C1313.82 28.584 1313.97 28.52 1314.15 28.52H1318.71C1318.88 28.52 1319.04 28.584 1319.16 28.712C1319.29 28.84 1319.36 28.992 1319.36 29.168V40.352C1319.36 40.528 1319.29 40.68 1319.16 40.808C1319.04 40.936 1318.88 41 1318.71 41H1314.51C1314.33 41 1314.18 40.936 1314.05 40.808C1313.92 40.68 1313.86 40.528 1313.86 40.352V39.56C1313.11 40.68 1311.78 41.24 1309.88 41.24C1308.56 41.24 1307.46 40.784 1306.56 39.872C1305.67 38.944 1305.22 37.584 1305.22 35.792ZM1321.51 28.52H1325.56C1325.93 28.52 1326.19 28.712 1326.33 29.096L1328.3 34.568L1330.34 29.096C1330.5 28.712 1330.77 28.52 1331.15 28.52H1335.16C1335.31 28.52 1335.43 28.576 1335.55 28.688C1335.66 28.784 1335.71 28.888 1335.71 29C1335.71 29.112 1335.71 29.2 1335.69 29.264L1328.92 44.984C1328.76 45.368 1328.48 45.56 1328.08 45.56H1324.15C1324 45.56 1323.87 45.512 1323.76 45.416C1323.67 45.32 1323.62 45.2 1323.62 45.056C1323.62 44.928 1323.63 44.848 1323.64 44.816L1325.56 40.208L1320.93 29.264C1320.91 29.216 1320.91 29.16 1320.91 29.096C1320.97 28.712 1321.17 28.52 1321.51 28.52Z" fill="#8E5833"/>
<mask id="path-25-inside-9_60_905" fill="white">
<path d="M1344 0H1512V66H1344V0Z"/>
</mask>
<path d="M1344 0H1512V66H1344V0Z" fill="#B9E500"/>
<path d="M1511 0V66H1513V0H1511ZM1345 66V0H1343V66H1345Z" fill="#8E5833" mask="url(#path-25-inside-9_60_905)"/>
<path d="M1364.1 24.2H1368.8C1368.98 24.2 1369.13 24.264 1369.26 24.392C1369.38 24.52 1369.45 24.672 1369.45 24.848V40.352C1369.45 40.528 1369.38 40.68 1369.26 40.808C1369.13 40.936 1368.98 41 1368.8 41H1364.1C1363.92 41 1363.77 40.936 1363.64 40.808C1363.51 40.68 1363.45 40.528 1363.45 40.352V35.168H1359.56V40.352C1359.56 40.528 1359.5 40.68 1359.37 40.808C1359.24 40.936 1359.09 41 1358.91 41H1354.21C1354.03 41 1353.88 40.944 1353.75 40.832C1353.62 40.704 1353.56 40.544 1353.56 40.352V24.848C1353.56 24.672 1353.62 24.52 1353.75 24.392C1353.88 24.264 1354.03 24.2 1354.21 24.2H1358.91C1359.09 24.2 1359.24 24.264 1359.37 24.392C1359.5 24.52 1359.56 24.672 1359.56 24.848V29.888H1363.45V24.848C1363.45 24.672 1363.51 24.52 1363.64 24.392C1363.77 24.264 1363.92 24.2 1364.1 24.2ZM1371.85 35.576V33.944C1371.85 32.12 1372.5 30.72 1373.79 29.744C1375.09 28.768 1376.76 28.28 1378.81 28.28C1380.86 28.28 1382.53 28.768 1383.82 29.744C1385.12 30.72 1385.77 32.12 1385.77 33.944V35.576C1385.77 37.416 1385.14 38.824 1383.9 39.8C1382.65 40.76 1380.95 41.24 1378.81 41.24C1376.66 41.24 1374.97 40.76 1373.72 39.8C1372.47 38.824 1371.85 37.416 1371.85 35.576ZM1379.89 35.768V33.752C1379.89 33.144 1379.81 32.72 1379.65 32.48C1379.49 32.24 1379.21 32.12 1378.81 32.12C1378.41 32.12 1378.13 32.24 1377.97 32.48C1377.81 32.72 1377.73 33.144 1377.73 33.752V35.768C1377.73 36.408 1377.81 36.84 1377.97 37.064C1378.13 37.288 1378.41 37.4 1378.81 37.4C1379.21 37.4 1379.49 37.28 1379.65 37.04C1379.81 36.8 1379.89 36.376 1379.89 35.768ZM1396.03 28.52H1398.26C1398.69 28.52 1398.96 28.712 1399.07 29.096L1400.63 34.088L1402.1 29.096C1402.21 28.712 1402.48 28.52 1402.91 28.52H1406.61C1406.77 28.52 1406.91 28.576 1407.02 28.688C1407.13 28.8 1407.19 28.912 1407.19 29.024C1407.19 29.136 1407.18 29.224 1407.16 29.288L1403.66 40.4C1403.53 40.8 1403.27 41 1402.87 41H1399.65C1399.25 41 1398.99 40.8 1398.86 40.4L1397.15 35.552L1395.43 40.4C1395.3 40.8 1395.03 41 1394.63 41H1391.42C1391.02 41 1390.75 40.8 1390.63 40.4L1387.12 29.288C1387.11 29.224 1387.1 29.136 1387.1 29.024C1387.1 28.912 1387.15 28.8 1387.27 28.688C1387.38 28.576 1387.51 28.52 1387.67 28.52H1391.37C1391.8 28.52 1392.07 28.712 1392.19 29.096L1393.65 34.088L1395.21 29.096C1395.32 28.712 1395.59 28.52 1396.03 28.52ZM1415.99 24.2H1430.06C1430.23 24.2 1430.39 24.264 1430.51 24.392C1430.64 24.52 1430.71 24.672 1430.71 24.848V28.712C1430.71 28.888 1430.64 29.04 1430.51 29.168C1430.39 29.296 1430.23 29.36 1430.06 29.36H1426.07V40.352C1426.07 40.528 1426.01 40.68 1425.88 40.808C1425.75 40.936 1425.6 41 1425.43 41H1420.62C1420.45 41 1420.3 40.936 1420.17 40.808C1420.04 40.68 1419.98 40.528 1419.98 40.352V29.36H1415.99C1415.82 29.36 1415.67 29.296 1415.54 29.168C1415.41 29.04 1415.35 28.888 1415.35 28.712V24.848C1415.35 24.672 1415.41 24.52 1415.54 24.392C1415.67 24.264 1415.82 24.2 1415.99 24.2ZM1432.27 35.576V33.944C1432.27 32.12 1432.92 30.72 1434.21 29.744C1435.51 28.768 1437.18 28.28 1439.23 28.28C1441.28 28.28 1442.95 28.768 1444.25 29.744C1445.54 30.72 1446.19 32.12 1446.19 33.944V35.576C1446.19 37.416 1445.57 38.824 1444.32 39.8C1443.07 40.76 1441.37 41.24 1439.23 41.24C1437.09 41.24 1435.39 40.76 1434.14 39.8C1432.89 38.824 1432.27 37.416 1432.27 35.576ZM1440.31 35.768V33.752C1440.31 33.144 1440.23 32.72 1440.07 32.48C1439.91 32.24 1439.63 32.12 1439.23 32.12C1438.83 32.12 1438.55 32.24 1438.39 32.48C1438.23 32.72 1438.15 33.144 1438.15 33.752V35.768C1438.15 36.408 1438.23 36.84 1438.39 37.064C1438.55 37.288 1438.83 37.4 1439.23 37.4C1439.63 37.4 1439.91 37.28 1440.07 37.04C1440.23 36.8 1440.31 36.376 1440.31 35.768ZM1464.3 30.2C1464.47 29.992 1464.56 29.744 1464.56 29.456C1464.56 29.168 1464.47 28.912 1464.3 28.688C1464.14 28.448 1463.9 28.328 1463.58 28.328H1461.56V30.512H1463.58C1463.9 30.512 1464.14 30.408 1464.3 30.2ZM1461.56 34.52V36.872H1463.79C1464.16 36.872 1464.43 36.752 1464.61 36.512C1464.8 36.256 1464.9 35.976 1464.9 35.672V35.648C1464.9 35.344 1464.79 35.08 1464.58 34.856C1464.39 34.632 1464.13 34.52 1463.79 34.52H1461.56ZM1464.42 41H1456.21C1456.03 41 1455.88 40.936 1455.75 40.808C1455.62 40.68 1455.56 40.528 1455.56 40.352V24.848C1455.56 24.672 1455.62 24.52 1455.75 24.392C1455.88 24.264 1456.03 24.2 1456.21 24.2H1464.18C1466.45 24.2 1468.12 24.616 1469.19 25.448C1470.28 26.264 1470.82 27.504 1470.82 29.168V29.24C1470.82 29.928 1470.62 30.544 1470.22 31.088C1469.82 31.616 1469.38 32 1468.9 32.24C1469.54 32.496 1470.08 32.952 1470.51 33.608C1470.96 34.248 1471.18 34.952 1471.18 35.72C1471.18 39.24 1468.93 41 1464.42 41ZM1473.22 35.792V29.168C1473.22 28.992 1473.28 28.84 1473.41 28.712C1473.54 28.584 1473.69 28.52 1473.87 28.52H1478.45C1478.63 28.52 1478.78 28.584 1478.91 28.712C1479.04 28.84 1479.1 28.992 1479.1 29.168V35.624C1479.1 36.504 1479.5 36.944 1480.3 36.944C1481.1 36.944 1481.5 36.504 1481.5 35.624V29.168C1481.5 28.992 1481.56 28.84 1481.69 28.712C1481.82 28.584 1481.97 28.52 1482.15 28.52H1486.71C1486.88 28.52 1487.04 28.584 1487.16 28.712C1487.29 28.84 1487.36 28.992 1487.36 29.168V40.352C1487.36 40.528 1487.29 40.68 1487.16 40.808C1487.04 40.936 1486.88 41 1486.71 41H1482.51C1482.33 41 1482.18 40.936 1482.05 40.808C1481.92 40.68 1481.86 40.528 1481.86 40.352V39.56C1481.11 40.68 1479.78 41.24 1477.88 41.24C1476.56 41.24 1475.46 40.784 1474.56 39.872C1473.67 38.944 1473.22 37.584 1473.22 35.792ZM1489.51 28.52H1493.56C1493.93 28.52 1494.19 28.712 1494.33 29.096L1496.3 34.568L1498.34 29.096C1498.5 28.712 1498.77 28.52 1499.15 28.52H1503.16C1503.31 28.52 1503.43 28.576 1503.55 28.688C1503.66 28.784 1503.71 28.888 1503.71 29C1503.71 29.112 1503.71 29.2 1503.69 29.264L1496.92 44.984C1496.76 45.368 1496.48 45.56 1496.08 45.56H1492.15C1492 45.56 1491.87 45.512 1491.76 45.416C1491.67 45.32 1491.62 45.2 1491.62 45.056C1491.62 44.928 1491.63 44.848 1491.64 44.816L1493.56 40.208L1488.93 29.264C1488.91 29.216 1488.91 29.16 1488.91 29.096C1488.97 28.712 1489.17 28.52 1489.51 28.52Z" fill="#8E5833"/>
<mask id="path-28-inside-10_60_905" fill="white">
<path d="M1512 0H1680V66H1512V0Z"/>
</mask>
<path d="M1512 0H1680V66H1512V0Z" fill="#B9E500"/>
<path d="M1679 0V66H1681V0H1679ZM1513 66V0H1511V66H1513Z" fill="#8E5833" mask="url(#path-28-inside-10_60_905)"/>
<path d="M1532.1 24.2H1536.8C1536.98 24.2 1537.13 24.264 1537.26 24.392C1537.38 24.52 1537.45 24.672 1537.45 24.848V40.352C1537.45 40.528 1537.38 40.68 1537.26 40.808C1537.13 40.936 1536.98 41 1536.8 41H1532.1C1531.92 41 1531.77 40.936 1531.64 40.808C1531.51 40.68 1531.45 40.528 1531.45 40.352V35.168H1527.56V40.352C1527.56 40.528 1527.5 40.68 1527.37 40.808C1527.24 40.936 1527.09 41 1526.91 41H1522.21C1522.03 41 1521.88 40.944 1521.75 40.832C1521.62 40.704 1521.56 40.544 1521.56 40.352V24.848C1521.56 24.672 1521.62 24.52 1521.75 24.392C1521.88 24.264 1522.03 24.2 1522.21 24.2H1526.91C1527.09 24.2 1527.24 24.264 1527.37 24.392C1527.5 24.52 1527.56 24.672 1527.56 24.848V29.888H1531.45V24.848C1531.45 24.672 1531.51 24.52 1531.64 24.392C1531.77 24.264 1531.92 24.2 1532.1 24.2ZM1539.85 35.576V33.944C1539.85 32.12 1540.5 30.72 1541.79 29.744C1543.09 28.768 1544.76 28.28 1546.81 28.28C1548.86 28.28 1550.53 28.768 1551.82 29.744C1553.12 30.72 1553.77 32.12 1553.77 33.944V35.576C1553.77 37.416 1553.14 38.824 1551.9 39.8C1550.65 40.76 1548.95 41.24 1546.81 41.24C1544.66 41.24 1542.97 40.76 1541.72 39.8C1540.47 38.824 1539.85 37.416 1539.85 35.576ZM1547.89 35.768V33.752C1547.89 33.144 1547.81 32.72 1547.65 32.48C1547.49 32.24 1547.21 32.12 1546.81 32.12C1546.41 32.12 1546.13 32.24 1545.97 32.48C1545.81 32.72 1545.73 33.144 1545.73 33.752V35.768C1545.73 36.408 1545.81 36.84 1545.97 37.064C1546.13 37.288 1546.41 37.4 1546.81 37.4C1547.21 37.4 1547.49 37.28 1547.65 37.04C1547.81 36.8 1547.89 36.376 1547.89 35.768ZM1564.03 28.52H1566.26C1566.69 28.52 1566.96 28.712 1567.07 29.096L1568.63 34.088L1570.1 29.096C1570.21 28.712 1570.48 28.52 1570.91 28.52H1574.61C1574.77 28.52 1574.91 28.576 1575.02 28.688C1575.13 28.8 1575.19 28.912 1575.19 29.024C1575.19 29.136 1575.18 29.224 1575.16 29.288L1571.66 40.4C1571.53 40.8 1571.27 41 1570.87 41H1567.65C1567.25 41 1566.99 40.8 1566.86 40.4L1565.15 35.552L1563.43 40.4C1563.3 40.8 1563.03 41 1562.63 41H1559.42C1559.02 41 1558.75 40.8 1558.63 40.4L1555.12 29.288C1555.11 29.224 1555.1 29.136 1555.1 29.024C1555.1 28.912 1555.15 28.8 1555.27 28.688C1555.38 28.576 1555.51 28.52 1555.67 28.52H1559.37C1559.8 28.52 1560.07 28.712 1560.19 29.096L1561.65 34.088L1563.21 29.096C1563.32 28.712 1563.59 28.52 1564.03 28.52ZM1583.99 24.2H1598.06C1598.23 24.2 1598.39 24.264 1598.51 24.392C1598.64 24.52 1598.71 24.672 1598.71 24.848V28.712C1598.71 28.888 1598.64 29.04 1598.51 29.168C1598.39 29.296 1598.23 29.36 1598.06 29.36H1594.07V40.352C1594.07 40.528 1594.01 40.68 1593.88 40.808C1593.75 40.936 1593.6 41 1593.43 41H1588.62C1588.45 41 1588.3 40.936 1588.17 40.808C1588.04 40.68 1587.98 40.528 1587.98 40.352V29.36H1583.99C1583.82 29.36 1583.67 29.296 1583.54 29.168C1583.41 29.04 1583.35 28.888 1583.35 28.712V24.848C1583.35 24.672 1583.41 24.52 1583.54 24.392C1583.67 24.264 1583.82 24.2 1583.99 24.2ZM1600.27 35.576V33.944C1600.27 32.12 1600.92 30.72 1602.21 29.744C1603.51 28.768 1605.18 28.28 1607.23 28.28C1609.28 28.28 1610.95 28.768 1612.25 29.744C1613.54 30.72 1614.19 32.12 1614.19 33.944V35.576C1614.19 37.416 1613.57 38.824 1612.32 39.8C1611.07 40.76 1609.37 41.24 1607.23 41.24C1605.09 41.24 1603.39 40.76 1602.14 39.8C1600.89 38.824 1600.27 37.416 1600.27 35.576ZM1608.31 35.768V33.752C1608.31 33.144 1608.23 32.72 1608.07 32.48C1607.91 32.24 1607.63 32.12 1607.23 32.12C1606.83 32.12 1606.55 32.24 1606.39 32.48C1606.23 32.72 1606.15 33.144 1606.15 33.752V35.768C1606.15 36.408 1606.23 36.84 1606.39 37.064C1606.55 37.288 1606.83 37.4 1607.23 37.4C1607.63 37.4 1607.91 37.28 1608.07 37.04C1608.23 36.8 1608.31 36.376 1608.31 35.768ZM1632.3 30.2C1632.47 29.992 1632.56 29.744 1632.56 29.456C1632.56 29.168 1632.47 28.912 1632.3 28.688C1632.14 28.448 1631.9 28.328 1631.58 28.328H1629.56V30.512H1631.58C1631.9 30.512 1632.14 30.408 1632.3 30.2ZM1629.56 34.52V36.872H1631.79C1632.16 36.872 1632.43 36.752 1632.61 36.512C1632.8 36.256 1632.9 35.976 1632.9 35.672V35.648C1632.9 35.344 1632.79 35.08 1632.58 34.856C1632.39 34.632 1632.13 34.52 1631.79 34.52H1629.56ZM1632.42 41H1624.21C1624.03 41 1623.88 40.936 1623.75 40.808C1623.62 40.68 1623.56 40.528 1623.56 40.352V24.848C1623.56 24.672 1623.62 24.52 1623.75 24.392C1623.88 24.264 1624.03 24.2 1624.21 24.2H1632.18C1634.45 24.2 1636.12 24.616 1637.19 25.448C1638.28 26.264 1638.82 27.504 1638.82 29.168V29.24C1638.82 29.928 1638.62 30.544 1638.22 31.088C1637.82 31.616 1637.38 32 1636.9 32.24C1637.54 32.496 1638.08 32.952 1638.51 33.608C1638.96 34.248 1639.18 34.952 1639.18 35.72C1639.18 39.24 1636.93 41 1632.42 41ZM1641.22 35.792V29.168C1641.22 28.992 1641.28 28.84 1641.41 28.712C1641.54 28.584 1641.69 28.52 1641.87 28.52H1646.45C1646.63 28.52 1646.78 28.584 1646.91 28.712C1647.04 28.84 1647.1 28.992 1647.1 29.168V35.624C1647.1 36.504 1647.5 36.944 1648.3 36.944C1649.1 36.944 1649.5 36.504 1649.5 35.624V29.168C1649.5 28.992 1649.56 28.84 1649.69 28.712C1649.82 28.584 1649.97 28.52 1650.15 28.52H1654.71C1654.88 28.52 1655.04 28.584 1655.16 28.712C1655.29 28.84 1655.36 28.992 1655.36 29.168V40.352C1655.36 40.528 1655.29 40.68 1655.16 40.808C1655.04 40.936 1654.88 41 1654.71 41H1650.51C1650.33 41 1650.18 40.936 1650.05 40.808C1649.92 40.68 1649.86 40.528 1649.86 40.352V39.56C1649.11 40.68 1647.78 41.24 1645.88 41.24C1644.56 41.24 1643.46 40.784 1642.56 39.872C1641.67 38.944 1641.22 37.584 1641.22 35.792ZM1657.51 28.52H1661.56C1661.93 28.52 1662.19 28.712 1662.33 29.096L1664.3 34.568L1666.34 29.096C1666.5 28.712 1666.77 28.52 1667.15 28.52H1671.16C1671.31 28.52 1671.43 28.576 1671.55 28.688C1671.66 28.784 1671.71 28.888 1671.71 29C1671.71 29.112 1671.71 29.2 1671.69 29.264L1664.92 44.984C1664.76 45.368 1664.48 45.56 1664.08 45.56H1660.15C1660 45.56 1659.87 45.512 1659.76 45.416C1659.67 45.32 1659.62 45.2 1659.62 45.056C1659.62 44.928 1659.63 44.848 1659.64 44.816L1661.56 40.208L1656.93 29.264C1656.91 29.216 1656.91 29.16 1656.91 29.096C1656.97 28.712 1657.17 28.52 1657.51 28.52Z" fill="#8E5833"/>
<mask id="path-31-inside-11_60_905" fill="white">
<path d="M1680 0H1848V66H1680V0Z"/>
</mask>
<path d="M1680 0H1848V66H1680V0Z" fill="#B9E500"/>
<path d="M1847 0V66H1849V0H1847ZM1681 66V0H1679V66H1681Z" fill="#8E5833" mask="url(#path-31-inside-11_60_905)"/>
<path d="M1700.1 24.2H1704.8C1704.98 24.2 1705.13 24.264 1705.26 24.392C1705.38 24.52 1705.45 24.672 1705.45 24.848V40.352C1705.45 40.528 1705.38 40.68 1705.26 40.808C1705.13 40.936 1704.98 41 1704.8 41H1700.1C1699.92 41 1699.77 40.936 1699.64 40.808C1699.51 40.68 1699.45 40.528 1699.45 40.352V35.168H1695.56V40.352C1695.56 40.528 1695.5 40.68 1695.37 40.808C1695.24 40.936 1695.09 41 1694.91 41H1690.21C1690.03 41 1689.88 40.944 1689.75 40.832C1689.62 40.704 1689.56 40.544 1689.56 40.352V24.848C1689.56 24.672 1689.62 24.52 1689.75 24.392C1689.88 24.264 1690.03 24.2 1690.21 24.2H1694.91C1695.09 24.2 1695.24 24.264 1695.37 24.392C1695.5 24.52 1695.56 24.672 1695.56 24.848V29.888H1699.45V24.848C1699.45 24.672 1699.51 24.52 1699.64 24.392C1699.77 24.264 1699.92 24.2 1700.1 24.2ZM1707.85 35.576V33.944C1707.85 32.12 1708.5 30.72 1709.79 29.744C1711.09 28.768 1712.76 28.28 1714.81 28.28C1716.86 28.28 1718.53 28.768 1719.82 29.744C1721.12 30.72 1721.77 32.12 1721.77 33.944V35.576C1721.77 37.416 1721.14 38.824 1719.9 39.8C1718.65 40.76 1716.95 41.24 1714.81 41.24C1712.66 41.24 1710.97 40.76 1709.72 39.8C1708.47 38.824 1707.85 37.416 1707.85 35.576ZM1715.89 35.768V33.752C1715.89 33.144 1715.81 32.72 1715.65 32.48C1715.49 32.24 1715.21 32.12 1714.81 32.12C1714.41 32.12 1714.13 32.24 1713.97 32.48C1713.81 32.72 1713.73 33.144 1713.73 33.752V35.768C1713.73 36.408 1713.81 36.84 1713.97 37.064C1714.13 37.288 1714.41 37.4 1714.81 37.4C1715.21 37.4 1715.49 37.28 1715.65 37.04C1715.81 36.8 1715.89 36.376 1715.89 35.768ZM1732.03 28.52H1734.26C1734.69 28.52 1734.96 28.712 1735.07 29.096L1736.63 34.088L1738.1 29.096C1738.21 28.712 1738.48 28.52 1738.91 28.52H1742.61C1742.77 28.52 1742.91 28.576 1743.02 28.688C1743.13 28.8 1743.19 28.912 1743.19 29.024C1743.19 29.136 1743.18 29.224 1743.16 29.288L1739.66 40.4C1739.53 40.8 1739.27 41 1738.87 41H1735.65C1735.25 41 1734.99 40.8 1734.86 40.4L1733.15 35.552L1731.43 40.4C1731.3 40.8 1731.03 41 1730.63 41H1727.42C1727.02 41 1726.75 40.8 1726.63 40.4L1723.12 29.288C1723.11 29.224 1723.1 29.136 1723.1 29.024C1723.1 28.912 1723.15 28.8 1723.27 28.688C1723.38 28.576 1723.51 28.52 1723.67 28.52H1727.37C1727.8 28.52 1728.07 28.712 1728.19 29.096L1729.65 34.088L1731.21 29.096C1731.32 28.712 1731.59 28.52 1732.03 28.52ZM1751.99 24.2H1766.06C1766.23 24.2 1766.39 24.264 1766.51 24.392C1766.64 24.52 1766.71 24.672 1766.71 24.848V28.712C1766.71 28.888 1766.64 29.04 1766.51 29.168C1766.39 29.296 1766.23 29.36 1766.06 29.36H1762.07V40.352C1762.07 40.528 1762.01 40.68 1761.88 40.808C1761.75 40.936 1761.6 41 1761.43 41H1756.62C1756.45 41 1756.3 40.936 1756.17 40.808C1756.04 40.68 1755.98 40.528 1755.98 40.352V29.36H1751.99C1751.82 29.36 1751.67 29.296 1751.54 29.168C1751.41 29.04 1751.35 28.888 1751.35 28.712V24.848C1751.35 24.672 1751.41 24.52 1751.54 24.392C1751.67 24.264 1751.82 24.2 1751.99 24.2ZM1768.27 35.576V33.944C1768.27 32.12 1768.92 30.72 1770.21 29.744C1771.51 28.768 1773.18 28.28 1775.23 28.28C1777.28 28.28 1778.95 28.768 1780.25 29.744C1781.54 30.72 1782.19 32.12 1782.19 33.944V35.576C1782.19 37.416 1781.57 38.824 1780.32 39.8C1779.07 40.76 1777.37 41.24 1775.23 41.24C1773.09 41.24 1771.39 40.76 1770.14 39.8C1768.89 38.824 1768.27 37.416 1768.27 35.576ZM1776.31 35.768V33.752C1776.31 33.144 1776.23 32.72 1776.07 32.48C1775.91 32.24 1775.63 32.12 1775.23 32.12C1774.83 32.12 1774.55 32.24 1774.39 32.48C1774.23 32.72 1774.15 33.144 1774.15 33.752V35.768C1774.15 36.408 1774.23 36.84 1774.39 37.064C1774.55 37.288 1774.83 37.4 1775.23 37.4C1775.63 37.4 1775.91 37.28 1776.07 37.04C1776.23 36.8 1776.31 36.376 1776.31 35.768ZM1800.3 30.2C1800.47 29.992 1800.56 29.744 1800.56 29.456C1800.56 29.168 1800.47 28.912 1800.3 28.688C1800.14 28.448 1799.9 28.328 1799.58 28.328H1797.56V30.512H1799.58C1799.9 30.512 1800.14 30.408 1800.3 30.2ZM1797.56 34.52V36.872H1799.79C1800.16 36.872 1800.43 36.752 1800.61 36.512C1800.8 36.256 1800.9 35.976 1800.9 35.672V35.648C1800.9 35.344 1800.79 35.08 1800.58 34.856C1800.39 34.632 1800.13 34.52 1799.79 34.52H1797.56ZM1800.42 41H1792.21C1792.03 41 1791.88 40.936 1791.75 40.808C1791.62 40.68 1791.56 40.528 1791.56 40.352V24.848C1791.56 24.672 1791.62 24.52 1791.75 24.392C1791.88 24.264 1792.03 24.2 1792.21 24.2H1800.18C1802.45 24.2 1804.12 24.616 1805.19 25.448C1806.28 26.264 1806.82 27.504 1806.82 29.168V29.24C1806.82 29.928 1806.62 30.544 1806.22 31.088C1805.82 31.616 1805.38 32 1804.9 32.24C1805.54 32.496 1806.08 32.952 1806.51 33.608C1806.96 34.248 1807.18 34.952 1807.18 35.72C1807.18 39.24 1804.93 41 1800.42 41ZM1809.22 35.792V29.168C1809.22 28.992 1809.28 28.84 1809.41 28.712C1809.54 28.584 1809.69 28.52 1809.87 28.52H1814.45C1814.63 28.52 1814.78 28.584 1814.91 28.712C1815.04 28.84 1815.1 28.992 1815.1 29.168V35.624C1815.1 36.504 1815.5 36.944 1816.3 36.944C1817.1 36.944 1817.5 36.504 1817.5 35.624V29.168C1817.5 28.992 1817.56 28.84 1817.69 28.712C1817.82 28.584 1817.97 28.52 1818.15 28.52H1822.71C1822.88 28.52 1823.04 28.584 1823.16 28.712C1823.29 28.84 1823.36 28.992 1823.36 29.168V40.352C1823.36 40.528 1823.29 40.68 1823.16 40.808C1823.04 40.936 1822.88 41 1822.71 41H1818.51C1818.33 41 1818.18 40.936 1818.05 40.808C1817.92 40.68 1817.86 40.528 1817.86 40.352V39.56C1817.11 40.68 1815.78 41.24 1813.88 41.24C1812.56 41.24 1811.46 40.784 1810.56 39.872C1809.67 38.944 1809.22 37.584 1809.22 35.792ZM1825.51 28.52H1829.56C1829.93 28.52 1830.19 28.712 1830.33 29.096L1832.3 34.568L1834.34 29.096C1834.5 28.712 1834.77 28.52 1835.15 28.52H1839.16C1839.31 28.52 1839.43 28.576 1839.55 28.688C1839.66 28.784 1839.71 28.888 1839.71 29C1839.71 29.112 1839.71 29.2 1839.69 29.264L1832.92 44.984C1832.76 45.368 1832.48 45.56 1832.08 45.56H1828.15C1828 45.56 1827.87 45.512 1827.76 45.416C1827.67 45.32 1827.62 45.2 1827.62 45.056C1827.62 44.928 1827.63 44.848 1827.64 44.816L1829.56 40.208L1824.93 29.264C1824.91 29.216 1824.91 29.16 1824.91 29.096C1824.97 28.712 1825.17 28.52 1825.51 28.52Z" fill="#8E5833"/>
<mask id="path-34-inside-12_60_905" fill="white">
<path d="M1848 0H2016V66H1848V0Z"/>
</mask>
<path d="M1848 0H2016V66H1848V0Z" fill="#B9E500"/>
<path d="M2015 0V66H2017V0H2015ZM1849 66V0H1847V66H1849Z" fill="#8E5833" mask="url(#path-34-inside-12_60_905)"/>
<path d="M1868.1 24.2H1872.8C1872.98 24.2 1873.13 24.264 1873.26 24.392C1873.38 24.52 1873.45 24.672 1873.45 24.848V40.352C1873.45 40.528 1873.38 40.68 1873.26 40.808C1873.13 40.936 1872.98 41 1872.8 41H1868.1C1867.92 41 1867.77 40.936 1867.64 40.808C1867.51 40.68 1867.45 40.528 1867.45 40.352V35.168H1863.56V40.352C1863.56 40.528 1863.5 40.68 1863.37 40.808C1863.24 40.936 1863.09 41 1862.91 41H1858.21C1858.03 41 1857.88 40.944 1857.75 40.832C1857.62 40.704 1857.56 40.544 1857.56 40.352V24.848C1857.56 24.672 1857.62 24.52 1857.75 24.392C1857.88 24.264 1858.03 24.2 1858.21 24.2H1862.91C1863.09 24.2 1863.24 24.264 1863.37 24.392C1863.5 24.52 1863.56 24.672 1863.56 24.848V29.888H1867.45V24.848C1867.45 24.672 1867.51 24.52 1867.64 24.392C1867.77 24.264 1867.92 24.2 1868.1 24.2ZM1875.85 35.576V33.944C1875.85 32.12 1876.5 30.72 1877.79 29.744C1879.09 28.768 1880.76 28.28 1882.81 28.28C1884.86 28.28 1886.53 28.768 1887.82 29.744C1889.12 30.72 1889.77 32.12 1889.77 33.944V35.576C1889.77 37.416 1889.14 38.824 1887.9 39.8C1886.65 40.76 1884.95 41.24 1882.81 41.24C1880.66 41.24 1878.97 40.76 1877.72 39.8C1876.47 38.824 1875.85 37.416 1875.85 35.576ZM1883.89 35.768V33.752C1883.89 33.144 1883.81 32.72 1883.65 32.48C1883.49 32.24 1883.21 32.12 1882.81 32.12C1882.41 32.12 1882.13 32.24 1881.97 32.48C1881.81 32.72 1881.73 33.144 1881.73 33.752V35.768C1881.73 36.408 1881.81 36.84 1881.97 37.064C1882.13 37.288 1882.41 37.4 1882.81 37.4C1883.21 37.4 1883.49 37.28 1883.65 37.04C1883.81 36.8 1883.89 36.376 1883.89 35.768ZM1900.03 28.52H1902.26C1902.69 28.52 1902.96 28.712 1903.07 29.096L1904.63 34.088L1906.1 29.096C1906.21 28.712 1906.48 28.52 1906.91 28.52H1910.61C1910.77 28.52 1910.91 28.576 1911.02 28.688C1911.13 28.8 1911.19 28.912 1911.19 29.024C1911.19 29.136 1911.18 29.224 1911.16 29.288L1907.66 40.4C1907.53 40.8 1907.27 41 1906.87 41H1903.65C1903.25 41 1902.99 40.8 1902.86 40.4L1901.15 35.552L1899.43 40.4C1899.3 40.8 1899.03 41 1898.63 41H1895.42C1895.02 41 1894.75 40.8 1894.63 40.4L1891.12 29.288C1891.11 29.224 1891.1 29.136 1891.1 29.024C1891.1 28.912 1891.15 28.8 1891.27 28.688C1891.38 28.576 1891.51 28.52 1891.67 28.52H1895.37C1895.8 28.52 1896.07 28.712 1896.19 29.096L1897.65 34.088L1899.21 29.096C1899.32 28.712 1899.59 28.52 1900.03 28.52ZM1919.99 24.2H1934.06C1934.23 24.2 1934.39 24.264 1934.51 24.392C1934.64 24.52 1934.71 24.672 1934.71 24.848V28.712C1934.71 28.888 1934.64 29.04 1934.51 29.168C1934.39 29.296 1934.23 29.36 1934.06 29.36H1930.07V40.352C1930.07 40.528 1930.01 40.68 1929.88 40.808C1929.75 40.936 1929.6 41 1929.43 41H1924.62C1924.45 41 1924.3 40.936 1924.17 40.808C1924.04 40.68 1923.98 40.528 1923.98 40.352V29.36H1919.99C1919.82 29.36 1919.67 29.296 1919.54 29.168C1919.41 29.04 1919.35 28.888 1919.35 28.712V24.848C1919.35 24.672 1919.41 24.52 1919.54 24.392C1919.67 24.264 1919.82 24.2 1919.99 24.2ZM1936.27 35.576V33.944C1936.27 32.12 1936.92 30.72 1938.21 29.744C1939.51 28.768 1941.18 28.28 1943.23 28.28C1945.28 28.28 1946.95 28.768 1948.25 29.744C1949.54 30.72 1950.19 32.12 1950.19 33.944V35.576C1950.19 37.416 1949.57 38.824 1948.32 39.8C1947.07 40.76 1945.37 41.24 1943.23 41.24C1941.09 41.24 1939.39 40.76 1938.14 39.8C1936.89 38.824 1936.27 37.416 1936.27 35.576ZM1944.31 35.768V33.752C1944.31 33.144 1944.23 32.72 1944.07 32.48C1943.91 32.24 1943.63 32.12 1943.23 32.12C1942.83 32.12 1942.55 32.24 1942.39 32.48C1942.23 32.72 1942.15 33.144 1942.15 33.752V35.768C1942.15 36.408 1942.23 36.84 1942.39 37.064C1942.55 37.288 1942.83 37.4 1943.23 37.4C1943.63 37.4 1943.91 37.28 1944.07 37.04C1944.23 36.8 1944.31 36.376 1944.31 35.768ZM1968.3 30.2C1968.47 29.992 1968.56 29.744 1968.56 29.456C1968.56 29.168 1968.47 28.912 1968.3 28.688C1968.14 28.448 1967.9 28.328 1967.58 28.328H1965.56V30.512H1967.58C1967.9 30.512 1968.14 30.408 1968.3 30.2ZM1965.56 34.52V36.872H1967.79C1968.16 36.872 1968.43 36.752 1968.61 36.512C1968.8 36.256 1968.9 35.976 1968.9 35.672V35.648C1968.9 35.344 1968.79 35.08 1968.58 34.856C1968.39 34.632 1968.13 34.52 1967.79 34.52H1965.56ZM1968.42 41H1960.21C1960.03 41 1959.88 40.936 1959.75 40.808C1959.62 40.68 1959.56 40.528 1959.56 40.352V24.848C1959.56 24.672 1959.62 24.52 1959.75 24.392C1959.88 24.264 1960.03 24.2 1960.21 24.2H1968.18C1970.45 24.2 1972.12 24.616 1973.19 25.448C1974.28 26.264 1974.82 27.504 1974.82 29.168V29.24C1974.82 29.928 1974.62 30.544 1974.22 31.088C1973.82 31.616 1973.38 32 1972.9 32.24C1973.54 32.496 1974.08 32.952 1974.51 33.608C1974.96 34.248 1975.18 34.952 1975.18 35.72C1975.18 39.24 1972.93 41 1968.42 41ZM1977.22 35.792V29.168C1977.22 28.992 1977.28 28.84 1977.41 28.712C1977.54 28.584 1977.69 28.52 1977.87 28.52H1982.45C1982.63 28.52 1982.78 28.584 1982.91 28.712C1983.04 28.84 1983.1 28.992 1983.1 29.168V35.624C1983.1 36.504 1983.5 36.944 1984.3 36.944C1985.1 36.944 1985.5 36.504 1985.5 35.624V29.168C1985.5 28.992 1985.56 28.84 1985.69 28.712C1985.82 28.584 1985.97 28.52 1986.15 28.52H1990.71C1990.88 28.52 1991.04 28.584 1991.16 28.712C1991.29 28.84 1991.36 28.992 1991.36 29.168V40.352C1991.36 40.528 1991.29 40.68 1991.16 40.808C1991.04 40.936 1990.88 41 1990.71 41H1986.51C1986.33 41 1986.18 40.936 1986.05 40.808C1985.92 40.68 1985.86 40.528 1985.86 40.352V39.56C1985.11 40.68 1983.78 41.24 1981.88 41.24C1980.56 41.24 1979.46 40.784 1978.56 39.872C1977.67 38.944 1977.22 37.584 1977.22 35.792ZM1993.51 28.52H1997.56C1997.93 28.52 1998.19 28.712 1998.33 29.096L2000.3 34.568L2002.34 29.096C2002.5 28.712 2002.77 28.52 2003.15 28.52H2007.16C2007.31 28.52 2007.43 28.576 2007.55 28.688C2007.66 28.784 2007.71 28.888 2007.71 29C2007.71 29.112 2007.71 29.2 2007.69 29.264L2000.92 44.984C2000.76 45.368 2000.48 45.56 2000.08 45.56H1996.15C1996 45.56 1995.87 45.512 1995.76 45.416C1995.67 45.32 1995.62 45.2 1995.62 45.056C1995.62 44.928 1995.63 44.848 1995.64 44.816L1997.56 40.208L1992.93 29.264C1992.91 29.216 1992.91 29.16 1992.91 29.096C1992.97 28.712 1993.17 28.52 1993.51 28.52Z" fill="#8E5833"/>
</svg>
