<svg width="235" height="250" viewBox="0 0 235 250" fill="none" xmlns="http://www.w3.org/2000/svg">
<path d="M22.9801 65.8856V65.346H22.4405H18.4659C8.57356 65.346 0.539613 57.3148 0.539613 47.3948V7.39891C0.539613 3.61184 3.60875 0.539613 7.38895 0.539613H227.611C231.391 0.539613 234.46 3.61184 234.46 7.39891V47.4079C234.46 57.1347 226.729 65.0652 217.074 65.351V65.346H216.534H212.559H212.02V65.8856V67.1905V67.7301H212.559H216.534C226.426 67.7301 234.46 75.7613 234.46 85.6813V242.601C234.46 246.388 231.391 249.46 227.611 249.46H7.38895C3.60875 249.46 0.539613 246.388 0.539613 242.601V85.6813C0.539613 75.7738 8.56103 67.7301 18.4659 67.7301H22.4405H22.9801V67.1905V65.8856ZM36.5355 67.2035V67.7431H37.0751H51.6966H52.2362V67.2035V65.8986V65.359H51.6966H37.0751H36.5355V65.8986V67.2035ZM65.7785 67.2035V67.7431H66.3181H80.9397H81.4793V67.2035V65.8986V65.359H80.9397H66.3181H65.7785V65.8986V67.2035ZM95.0216 67.2035V67.7431H95.5612H110.183H110.722V67.2035V65.8986V65.359H110.183H95.5612H95.0216V65.8986V67.2035ZM124.265 67.2035V67.7431H124.804H139.426H139.965V67.2035V65.8986V65.359H139.426H124.804H124.265V65.8986V67.2035ZM153.508 67.2035V67.7431H154.047H168.669H169.208V67.2035V65.8986V65.359H168.669H154.047H153.508V65.8986V67.2035ZM197.925 67.7431H198.465V67.2035V65.8986V65.359H197.925H183.303H182.764V65.8986V67.2035V67.7431H183.303H197.925Z" fill="#78E0E6" stroke="#78E0E6" stroke-width="1.07923"/>
</svg>
