<svg width="234" height="249" viewBox="0 0 234 249" fill="none" xmlns="http://www.w3.org/2000/svg">
<path d="M22.8397 65.5775V65.0775H22.3397H18.3829C8.51437 65.0775 0.5 57.0671 0.5 47.1732V7.36432C0.5 3.5746 3.57186 0.5 7.35574 0.5H226.588C230.372 0.5 233.444 3.5746 233.444 7.36432V47.1862C233.444 56.9004 225.71 64.8184 216.061 65.0836V65.0775H215.561H211.604H211.104V65.5775V66.8763V67.3763H211.604H215.561C225.429 67.3763 233.444 75.3867 233.444 85.2806V241.467C233.444 245.256 230.372 248.331 226.588 248.331H7.35574C3.57185 248.331 0.5 245.256 0.5 241.467V85.2806C0.5 75.3992 8.50186 67.3763 18.3829 67.3763H22.3397H22.8397V66.8763V65.5775ZM36.4084 66.8893V67.3893H36.9084H51.4642H51.9642V66.8893V65.5905V65.0905H51.4642H36.9084H36.4084V65.5905V66.8893ZM65.52 66.8893V67.3893H66.02H80.5758H81.0758V66.8893V65.5905V65.0905H80.5758H66.02H65.52V65.5905V66.8893ZM94.6316 66.8893V67.3893H95.1316H109.687H110.187V66.8893V65.5905V65.0905H109.687H95.1316H94.6316V65.5905V66.8893ZM123.743 66.8893V67.3893H124.243H138.799H139.299V66.8893V65.5905V65.0905H138.799H124.243H123.743V65.5905V66.8893ZM152.855 66.8893V67.3893H153.355H167.911H168.411V66.8893V65.5905V65.0905H167.911H153.355H152.855V65.5905V66.8893ZM197.035 67.3893H197.535V66.8893V65.5905V65.0905H197.035H182.479H181.979V65.5905V66.8893V67.3893H182.479H197.035Z" fill="#733B15" stroke="#461B09"/>
</svg>
