<svg width="86" height="86" viewBox="0 0 86 86" fill="none" xmlns="http://www.w3.org/2000/svg">
<path fill-rule="evenodd" clip-rule="evenodd" d="M42.8028 85.9155C66.2943 85.9155 85.338 66.8718 85.338 43.3803C85.338 19.8888 66.2943 0.845093 42.8028 0.845093C19.3112 0.845093 0.267578 19.8888 0.267578 43.3803C0.267578 66.8718 19.3112 85.9155 42.8028 85.9155ZM29.6186 21.9889C29.618 21.9311 32.6541 20.5085 36.3652 18.8274C40.0764 17.1464 43.1792 15.768 43.2602 15.7643C43.3412 15.7606 43.8048 15.9511 44.2904 16.1878C44.776 16.4246 47.3057 17.5945 49.9121 18.7878C55.3051 21.2568 57.2929 22.1854 57.4126 22.2912C57.5028 22.371 56.9272 22.6083 51.3852 24.7738L47.7073 26.211L43.2155 24.203L41.1591 25.1228C40.0282 25.6288 38.9852 26.0463 38.8414 26.0505C38.5253 26.06 29.6203 22.1383 29.6186 21.9889ZM16.2253 27.8923L20.0884 26.157C22.2133 25.2025 24.1137 24.4146 24.3118 24.4058C24.5098 24.397 28.8037 26.2349 33.8539 28.4901C40.5536 31.4819 42.9629 32.6397 42.7653 32.7727C42.6166 32.8728 41.5676 33.312 40.4344 33.7487C39.3013 34.1853 37.9105 34.73 37.3439 34.9594C36.6108 35.255 35.8761 35.5478 35.1399 35.8377L33.9662 36.2992L31.3283 35.0573C29.7785 34.3275 28.2296 33.5963 26.6816 32.8636L24.6728 31.9118V39.9393L20.5619 41.5315C18.3009 42.4072 16.4002 43.1237 16.3382 43.1237C16.276 43.1237 16.2253 39.6967 16.2253 35.508V27.8923ZM53.3207 28.6141C53.3232 28.5636 55.4777 27.6772 58.1088 26.6443C60.7397 25.6112 62.9628 24.7641 63.0491 24.7617C63.1354 24.7592 64.7827 25.4608 66.7099 26.3209L70.2138 27.8848L70.1036 36.9522L67.6311 37.9373C66.2713 38.4792 62.5163 39.9597 59.2867 41.2274C55.6119 42.67 51.9376 44.1136 48.2638 45.558C40.0479 48.7889 36.221 50.2874 31.2203 52.2317C28.6457 53.2329 26.5363 54.1042 26.533 54.1681C26.5298 54.2322 26.6892 54.3305 26.8876 54.3867C27.086 54.443 27.9899 54.8679 28.8964 55.3309C29.803 55.7939 31.0314 56.3945 31.6264 56.6658C32.2212 56.9371 32.7081 57.2129 32.7081 57.2791C32.7081 57.3453 30.5525 58.2455 27.9178 59.2794L23.1275 61.1593L16.2183 58.098L16.2733 53.6153C16.3195 49.8568 16.3782 49.1079 16.6373 48.979C16.8951 48.851 18.7718 48.1051 25.5999 45.4172C25.8848 45.305 28.0469 44.4551 30.7071 43.4093L45.5854 37.561C49.5515 36.0019 54.3494 34.1177 56.2477 33.3738C58.1457 32.6298 59.6987 31.9754 59.6987 31.9193C59.6987 31.8632 58.2627 31.1173 56.5077 30.2616C54.7525 29.4061 53.3184 28.6646 53.3207 28.6141ZM66.8985 43.9129C67.6286 43.6304 68.6485 43.2198 69.1648 43.0005C69.6811 42.7812 70.166 42.5952 70.242 42.5872C70.4342 42.567 70.4507 57.4932 70.2587 57.7459C70.1734 57.8583 68.3213 58.752 66.1434 59.7317L62.183 61.5133L52.912 57.3268C47.8128 55.0242 43.7075 53.0893 43.7889 53.0268C43.8705 52.9642 45.6059 52.2729 47.6457 51.4904C49.6854 50.7078 51.6191 49.9537 51.9425 49.8143C52.5021 49.5733 52.6517 49.6174 55.0331 50.727C58.3326 52.2644 61.6149 53.7282 61.8222 53.755C61.9134 53.7666 62.0061 51.9852 62.0282 49.7961L62.0681 45.8159L63.8195 45.1213C64.7827 44.7391 66.1683 44.1954 66.8985 43.9129ZM45.1733 61.2916C45.8599 61.034 46.5467 60.7768 47.2336 60.52L48.8819 59.9034L53.1918 61.799C55.5622 62.8417 57.5306 63.7208 57.5663 63.7524C57.6017 63.7841 55.7087 64.6253 53.3595 65.6219C51.01 66.6183 47.7761 67.9967 46.1727 68.685L43.2576 69.9366L36.329 66.8976C30.4211 64.3061 28.8901 63.5106 29.811 63.5106C29.9042 63.5106 31.7762 62.7997 33.9711 61.9307C36.1662 61.0618 38.1505 60.2855 38.3811 60.2056C38.6885 60.0991 39.3967 60.3185 41.0396 61.0297C42.3607 61.6016 42.8577 61.8598 43.3529 61.8564C43.7823 61.8535 44.2104 61.6539 45.1733 61.2916Z" fill="#B9E500"/>
<path fill-rule="evenodd" clip-rule="evenodd" d="M42.8028 85.9155C66.2943 85.9155 85.338 66.8718 85.338 43.3803C85.338 19.8888 66.2943 0.845093 42.8028 0.845093C19.3112 0.845093 0.267578 19.8888 0.267578 43.3803C0.267578 66.8718 19.3112 85.9155 42.8028 85.9155ZM29.6186 21.9889C29.618 21.9311 32.6541 20.5085 36.3652 18.8274C40.0764 17.1464 43.1792 15.768 43.2602 15.7643C43.3412 15.7606 43.8048 15.9511 44.2904 16.1878C44.776 16.4246 47.3057 17.5945 49.9121 18.7878C55.3051 21.2568 57.2929 22.1854 57.4126 22.2912C57.5028 22.371 56.9272 22.6083 51.3852 24.7738L47.7073 26.211L43.2155 24.203L41.1591 25.1228C40.0282 25.6288 38.9852 26.0463 38.8414 26.0505C38.5253 26.06 29.6203 22.1383 29.6186 21.9889ZM16.2253 27.8923L20.0884 26.157C22.2133 25.2025 24.1137 24.4146 24.3118 24.4058C24.5098 24.397 28.8037 26.2349 33.8539 28.4901C40.5536 31.4819 42.9629 32.6397 42.7653 32.7727C42.6166 32.8728 41.5676 33.312 40.4344 33.7487C39.3013 34.1853 37.9105 34.73 37.3439 34.9594C36.6108 35.255 35.8761 35.5478 35.1399 35.8377L33.9662 36.2992L31.3283 35.0573C29.7785 34.3275 28.2296 33.5963 26.6816 32.8636L24.6728 31.9118V39.9393L20.5619 41.5315C18.3009 42.4072 16.4002 43.1237 16.3382 43.1237C16.276 43.1237 16.2253 39.6967 16.2253 35.508V27.8923ZM53.3207 28.6141C53.3232 28.5636 55.4777 27.6772 58.1088 26.6443C60.7397 25.6112 62.9628 24.7641 63.0491 24.7617C63.1354 24.7592 64.7827 25.4608 66.7099 26.3209L70.2138 27.8848L70.1036 36.9522L67.6311 37.9373C66.2713 38.4792 62.5163 39.9597 59.2867 41.2274C55.6119 42.67 51.9376 44.1136 48.2638 45.558C40.0479 48.7889 36.221 50.2874 31.2203 52.2317C28.6457 53.2329 26.5363 54.1042 26.533 54.1681C26.5298 54.2322 26.6892 54.3305 26.8876 54.3867C27.086 54.443 27.9899 54.8679 28.8964 55.3309C29.803 55.7939 31.0314 56.3945 31.6264 56.6658C32.2212 56.9371 32.7081 57.2129 32.7081 57.2791C32.7081 57.3453 30.5525 58.2455 27.9178 59.2794L23.1275 61.1593L16.2183 58.098L16.2733 53.6153C16.3195 49.8568 16.3782 49.1079 16.6373 48.979C16.8951 48.851 18.7718 48.1051 25.5999 45.4172C25.8848 45.305 28.0469 44.4551 30.7071 43.4093L45.5854 37.561C49.5515 36.0019 54.3494 34.1177 56.2477 33.3738C58.1457 32.6298 59.6987 31.9754 59.6987 31.9193C59.6987 31.8632 58.2627 31.1173 56.5077 30.2616C54.7525 29.4061 53.3184 28.6646 53.3207 28.6141ZM66.8985 43.9129C67.6286 43.6304 68.6485 43.2198 69.1648 43.0005C69.6811 42.7812 70.166 42.5952 70.242 42.5872C70.4342 42.567 70.4507 57.4932 70.2587 57.7459C70.1734 57.8583 68.3213 58.752 66.1434 59.7317L62.183 61.5133L52.912 57.3268C47.8128 55.0242 43.7075 53.0893 43.7889 53.0268C43.8705 52.9642 45.6059 52.2729 47.6457 51.4904C49.6854 50.7078 51.6191 49.9537 51.9425 49.8143C52.5021 49.5733 52.6517 49.6174 55.0331 50.727C58.3326 52.2644 61.6149 53.7282 61.8222 53.755C61.9134 53.7666 62.0061 51.9852 62.0282 49.7961L62.0681 45.8159L63.8195 45.1213C64.7827 44.7391 66.1683 44.1954 66.8985 43.9129ZM45.1733 61.2916C45.8599 61.034 46.5467 60.7768 47.2336 60.52L48.8819 59.9034L53.1918 61.799C55.5622 62.8417 57.5306 63.7208 57.5663 63.7524C57.6017 63.7841 55.7087 64.6253 53.3595 65.6219C51.01 66.6183 47.7761 67.9967 46.1727 68.685L43.2576 69.9366L36.329 66.8976C30.4211 64.3061 28.8901 63.5106 29.811 63.5106C29.9042 63.5106 31.7762 62.7997 33.9711 61.9307C36.1662 61.0618 38.1505 60.2855 38.3811 60.2056C38.6885 60.0991 39.3967 60.3185 41.0396 61.0297C42.3607 61.6016 42.8577 61.8598 43.3529 61.8564C43.7823 61.8535 44.2104 61.6539 45.1733 61.2916Z" fill="#B9E500"/>
</svg>
