<svg width="87" height="86" viewBox="0 0 87 86" fill="none" xmlns="http://www.w3.org/2000/svg">
<path fill-rule="evenodd" clip-rule="evenodd" d="M43.4997 85.8546C67.0973 85.8546 86.227 66.7215 86.227 43.1196C86.227 19.5176 67.0973 0.384521 43.4997 0.384521C19.9021 0.384521 0.772461 19.5176 0.772461 43.1196C0.772461 66.7215 19.9021 85.8546 43.4997 85.8546ZM30.256 21.6277C30.2554 21.5696 33.3053 20.1403 37.0331 18.4514C40.761 16.7624 43.8779 15.3775 43.9592 15.3738C44.0406 15.3701 44.5063 15.5615 44.994 15.7993C45.4819 16.0372 48.023 17.2127 50.6411 18.4116C56.0585 20.8922 58.0552 21.8251 58.1755 21.9314C58.2661 22.0115 57.6879 22.2499 52.1209 24.4257L48.4264 25.8696L43.9143 23.8522L41.8486 24.7763C40.7126 25.2847 39.6649 25.7041 39.5204 25.7083C39.2029 25.7179 30.2577 21.7777 30.256 21.6277ZM16.8022 27.5588L20.6828 25.8154C22.8172 24.8564 24.7263 24.0647 24.9252 24.0559C25.1241 24.047 29.4375 25.8936 34.5104 28.1594C41.2403 31.1653 43.6606 32.3285 43.4621 32.4621C43.3127 32.5627 42.259 33.0039 41.1207 33.4427C39.9824 33.8813 38.5853 34.4286 38.0162 34.6591C37.2797 34.9561 36.5418 35.2502 35.8023 35.5415L34.6232 36.0052L31.9735 34.7574C30.4166 34.0243 28.8607 33.2896 27.3057 32.5534L25.2878 31.5972V39.6624L21.1584 41.2621C18.8872 42.1419 16.9779 42.8618 16.9156 42.8618C16.8531 42.8618 16.8022 39.4187 16.8022 35.2103V27.5588ZM54.0652 28.284C54.0676 28.2332 56.2319 27.3427 58.8749 26.305C61.5176 25.267 63.7507 24.4159 63.8374 24.4135C63.9242 24.4109 65.5789 25.1159 67.5148 25.98L71.0345 27.5512L70.9238 36.6612L68.4402 37.651C67.0742 38.1954 63.3022 39.6829 60.058 40.9565C56.3667 42.406 52.6758 43.8563 48.9854 45.3075C40.7324 48.5536 36.8882 50.0592 31.865 52.0126C29.2788 53.0184 27.1598 53.8938 27.1565 53.9581C27.1532 54.0225 27.3134 54.1212 27.5127 54.1776C27.712 54.2343 28.62 54.6611 29.5306 55.1263C30.4412 55.5915 31.6752 56.1949 32.2729 56.4675C32.8704 56.74 33.3595 57.0172 33.3595 57.0836C33.3595 57.1502 31.1942 58.0546 28.5475 59.0933L23.7356 60.9821L16.7952 57.9064L16.8505 53.4026C16.8968 49.6264 16.9558 48.8741 17.2161 48.7446C17.475 48.6159 19.3603 47.8666 26.2192 45.166C26.5053 45.0533 28.6772 44.1994 31.3494 43.1487L46.2949 37.2729C50.2789 35.7065 55.0985 33.8134 57.0053 33.0661C58.9119 32.3185 60.472 31.6611 60.472 31.6048C60.472 31.5483 59.0295 30.799 57.2665 29.9392C55.5033 29.0797 54.0628 28.3348 54.0652 28.284ZM67.7042 43.6547C68.4377 43.3709 69.4621 42.9583 69.9808 42.738C70.4994 42.5176 70.9865 42.3307 71.0629 42.3228C71.2559 42.3025 71.2725 57.2987 71.0796 57.5527C70.9939 57.6656 69.1335 58.5635 66.9457 59.5478L62.9674 61.3378L53.6545 57.1316C48.5323 54.8182 44.4085 52.8742 44.4903 52.8114C44.5723 52.7485 46.3155 52.0539 48.3645 51.2678C50.4135 50.4815 52.3558 49.7239 52.6807 49.5838C53.2429 49.3417 53.3931 49.386 55.7853 50.5007C59.0996 52.0454 62.3968 53.5161 62.605 53.543C62.6967 53.5547 62.7898 51.7649 62.8119 49.5656L62.8521 45.5666L64.6113 44.8687C65.5789 44.4847 66.9707 43.9385 67.7042 43.6547ZM45.8809 61.115C46.5706 60.8562 47.2605 60.5978 47.9506 60.3398L49.6063 59.7203L53.9356 61.6248C56.3167 62.6724 58.294 63.5556 58.3299 63.5873C58.3655 63.6192 56.4639 64.4644 54.1041 65.4657C51.744 66.4667 48.4955 67.8516 46.8849 68.5432L43.9566 69.8006L36.9967 66.7474C31.0622 64.1437 29.5242 63.3445 30.4493 63.3445C30.5429 63.3445 32.4233 62.6302 34.6282 61.7572C36.8332 60.8841 38.8265 60.1041 39.0581 60.0239C39.3669 59.9169 40.0782 60.1374 41.7285 60.8519C43.0556 61.4265 43.5549 61.6859 44.0523 61.6825C44.4837 61.6795 44.9137 61.479 45.8809 61.115Z" fill="#02050C"/>
<path fill-rule="evenodd" clip-rule="evenodd" d="M43.4997 85.8546C67.0973 85.8546 86.227 66.7215 86.227 43.1196C86.227 19.5176 67.0973 0.384521 43.4997 0.384521C19.9021 0.384521 0.772461 19.5176 0.772461 43.1196C0.772461 66.7215 19.9021 85.8546 43.4997 85.8546ZM30.256 21.6277C30.2554 21.5696 33.3053 20.1403 37.0331 18.4514C40.761 16.7624 43.8779 15.3775 43.9592 15.3738C44.0406 15.3701 44.5063 15.5615 44.994 15.7993C45.4819 16.0372 48.023 17.2127 50.6411 18.4116C56.0585 20.8922 58.0552 21.8251 58.1755 21.9314C58.2661 22.0115 57.6879 22.2499 52.1209 24.4257L48.4264 25.8696L43.9143 23.8522L41.8486 24.7763C40.7126 25.2847 39.6649 25.7041 39.5204 25.7083C39.2029 25.7179 30.2577 21.7777 30.256 21.6277ZM16.8022 27.5588L20.6828 25.8154C22.8172 24.8564 24.7263 24.0647 24.9252 24.0559C25.1241 24.047 29.4375 25.8936 34.5104 28.1594C41.2403 31.1653 43.6606 32.3285 43.4621 32.4621C43.3127 32.5627 42.259 33.0039 41.1207 33.4427C39.9824 33.8813 38.5853 34.4286 38.0162 34.6591C37.2797 34.9561 36.5418 35.2502 35.8023 35.5415L34.6232 36.0052L31.9735 34.7574C30.4166 34.0243 28.8607 33.2896 27.3057 32.5534L25.2878 31.5972V39.6624L21.1584 41.2621C18.8872 42.1419 16.9779 42.8618 16.9156 42.8618C16.8531 42.8618 16.8022 39.4187 16.8022 35.2103V27.5588ZM54.0652 28.284C54.0676 28.2332 56.2319 27.3427 58.8749 26.305C61.5176 25.267 63.7507 24.4159 63.8374 24.4135C63.9242 24.4109 65.5789 25.1159 67.5148 25.98L71.0345 27.5512L70.9238 36.6612L68.4402 37.651C67.0742 38.1954 63.3022 39.6829 60.058 40.9565C56.3667 42.406 52.6758 43.8563 48.9854 45.3075C40.7324 48.5536 36.8882 50.0592 31.865 52.0126C29.2788 53.0184 27.1598 53.8938 27.1565 53.9581C27.1532 54.0225 27.3134 54.1212 27.5127 54.1776C27.712 54.2343 28.62 54.6611 29.5306 55.1263C30.4412 55.5915 31.6752 56.1949 32.2729 56.4675C32.8704 56.74 33.3595 57.0172 33.3595 57.0836C33.3595 57.1502 31.1942 58.0546 28.5475 59.0933L23.7356 60.9821L16.7952 57.9064L16.8505 53.4026C16.8968 49.6264 16.9558 48.8741 17.2161 48.7446C17.475 48.6159 19.3603 47.8666 26.2192 45.166C26.5053 45.0533 28.6772 44.1994 31.3494 43.1487L46.2949 37.2729C50.2789 35.7065 55.0985 33.8134 57.0053 33.0661C58.9119 32.3185 60.472 31.6611 60.472 31.6048C60.472 31.5483 59.0295 30.799 57.2665 29.9392C55.5033 29.0797 54.0628 28.3348 54.0652 28.284ZM67.7042 43.6547C68.4377 43.3709 69.4621 42.9583 69.9808 42.738C70.4994 42.5176 70.9865 42.3307 71.0629 42.3228C71.2559 42.3025 71.2725 57.2987 71.0796 57.5527C70.9939 57.6656 69.1335 58.5635 66.9457 59.5478L62.9674 61.3378L53.6545 57.1316C48.5323 54.8182 44.4085 52.8742 44.4903 52.8114C44.5723 52.7485 46.3155 52.0539 48.3645 51.2678C50.4135 50.4815 52.3558 49.7239 52.6807 49.5838C53.2429 49.3417 53.3931 49.386 55.7853 50.5007C59.0996 52.0454 62.3968 53.5161 62.605 53.543C62.6967 53.5547 62.7898 51.7649 62.8119 49.5656L62.8521 45.5666L64.6113 44.8687C65.5789 44.4847 66.9707 43.9385 67.7042 43.6547ZM45.8809 61.115C46.5706 60.8562 47.2605 60.5978 47.9506 60.3398L49.6063 59.7203L53.9356 61.6248C56.3167 62.6724 58.294 63.5556 58.3299 63.5873C58.3655 63.6192 56.4639 64.4644 54.1041 65.4657C51.744 66.4667 48.4955 67.8516 46.8849 68.5432L43.9566 69.8006L36.9967 66.7474C31.0622 64.1437 29.5242 63.3445 30.4493 63.3445C30.5429 63.3445 32.4233 62.6302 34.6282 61.7572C36.8332 60.8841 38.8265 60.1041 39.0581 60.0239C39.3669 59.9169 40.0782 60.1374 41.7285 60.8519C43.0556 61.4265 43.5549 61.6859 44.0523 61.6825C44.4837 61.6795 44.9137 61.479 45.8809 61.115Z" fill="#02050C"/>
</svg>
