<svg width="86" height="86" viewBox="0 0 86 86" fill="none" xmlns="http://www.w3.org/2000/svg">
<g clip-path="url(#clip0_133_634)">
<path d="M18.048 41.2466C18.048 40.7768 18.1409 40.3118 18.3212 39.878C18.5015 39.4443 18.7657 39.0504 19.0987 38.7191C19.4317 38.3877 19.8268 38.1254 20.2614 37.9472C20.696 37.7689 21.1615 37.6783 21.6313 37.6805L27.5724 37.6999C28.5196 37.6999 29.428 38.0762 30.0978 38.746C30.7676 39.4158 31.144 40.3242 31.144 41.2715V63.7356C31.8128 63.5371 32.6718 63.3255 33.6117 63.1041C34.2646 62.9508 34.8465 62.5813 35.263 62.0556C35.6794 61.5299 35.906 60.879 35.9058 60.2083V32.3425C35.9058 31.3952 36.2821 30.4867 36.9518 29.8168C37.6216 29.1469 38.5301 28.7705 39.4774 28.7703H45.4302C46.3775 28.7705 47.286 29.1469 47.9557 29.8168C48.6255 30.4867 49.0018 31.3952 49.0018 32.3425V58.2046C49.0018 58.2046 50.4923 57.6015 51.944 56.9888C52.4833 56.7607 52.9435 56.3789 53.2672 55.8909C53.591 55.4031 53.7638 54.8306 53.7644 54.2451V23.4136C53.7644 22.4665 54.1406 21.5581 54.8102 20.8883C55.4798 20.2186 56.3881 19.8422 57.3352 19.842H63.2881C64.2354 19.842 65.1438 20.2183 65.8136 20.8881C66.4834 21.5579 66.8597 22.4663 66.8597 23.4136V48.8026C72.0206 45.0623 77.2507 40.5639 81.4012 35.1547C82.0036 34.3696 82.402 33.4476 82.5611 32.471C82.7201 31.4945 82.6351 30.4937 82.3135 29.558C80.3921 24.0304 77.3386 18.9646 73.3472 14.685C69.3558 10.4054 64.515 7.00604 59.1345 4.70463C53.7541 2.40322 47.9524 1.25037 42.1008 1.31986C36.2492 1.38935 30.4766 2.67966 25.1524 5.1082C19.8281 7.53675 15.0694 11.05 11.1808 15.4233C7.29228 19.7964 4.35951 24.9333 2.57019 30.5051C0.780872 36.0768 0.174413 41.9607 0.789617 47.7803C1.40482 53.5998 3.22815 59.2269 6.1429 64.3013C6.65066 65.1767 7.39769 65.889 8.29618 66.3545C9.19468 66.8201 10.2074 67.0195 11.2153 66.9295C12.3413 66.8306 13.7432 66.6902 15.4101 66.4945C16.1357 66.4121 16.8056 66.0657 17.2921 65.5212C17.7788 64.9767 18.048 64.2722 18.0486 63.5419L18.048 41.2466Z" fill="#B9E500"/>
<path d="M17.918 77.2771C24.1926 81.8419 31.6079 84.5821 39.3433 85.1942C47.0788 85.8056 54.8327 84.266 61.7472 80.7442C68.6617 77.2225 74.4669 71.8568 78.5212 65.2405C82.5749 58.6242 84.7196 51.0152 84.7175 43.2556C84.7175 42.2874 84.6726 41.3294 84.6083 40.3771C69.241 63.2963 40.8669 74.0112 17.9193 77.2736" fill="#B9E500"/>
</g>
<defs>
<clipPath id="clip0_133_634">
<rect width="85.0704" height="85.0704" fill="white" transform="translate(0.210938 0.845093)"/>
</clipPath>
</defs>
</svg>
