<svg width="87" height="86" viewBox="0 0 87 86" fill="none" xmlns="http://www.w3.org/2000/svg">
<g clip-path="url(#clip0_61_123)">
<path d="M18.6902 40.9757C18.6902 40.5037 18.7835 40.0365 18.9647 39.6006C19.1458 39.1649 19.4112 38.7692 19.7456 38.4363C20.0802 38.1034 20.477 37.8398 20.9136 37.6608C21.3502 37.4817 21.8178 37.3907 22.2897 37.3929L28.2576 37.4123C29.2091 37.4123 30.1216 37.7904 30.7944 38.4633C31.4673 39.1363 31.8453 40.049 31.8453 41.0007V63.5703C32.5171 63.3709 33.38 63.1583 34.3242 62.9359C34.98 62.7819 35.5645 62.4107 35.9829 61.8825C36.4012 61.3543 36.6288 60.7003 36.6287 60.0265V32.0298C36.6287 31.078 37.0066 30.1652 37.6794 29.4922C38.3522 28.8191 39.2648 28.441 40.2164 28.4408H46.1961C47.1476 28.441 48.0602 28.8191 48.733 29.4922C49.4058 30.1652 49.7838 31.078 49.7838 32.0298V58.0134C49.7838 58.0134 51.281 57.4075 52.7393 56.7918C53.281 56.5627 53.7433 56.1791 54.0685 55.6888C54.3937 55.1987 54.5673 54.6235 54.5679 54.0352V23.0589C54.5679 22.1074 54.9457 21.1947 55.6184 20.5218C56.2911 19.8489 57.2034 19.4708 58.1548 19.4706H64.1346C65.0861 19.4706 65.9986 19.8486 66.6715 20.5216C67.3443 21.1945 67.7223 22.1072 67.7223 23.0589V48.5672C72.9066 44.8093 78.1603 40.2898 82.3295 34.8552C82.9346 34.0664 83.3348 33.14 83.4946 32.1589C83.6544 31.1778 83.5689 30.1723 83.2459 29.2322C81.3158 23.6786 78.2485 18.589 74.2391 14.2893C70.2297 9.98957 65.367 6.57428 59.9623 4.26205C54.5575 1.94982 48.7297 0.791557 42.8516 0.861377C36.9736 0.931197 31.1749 2.22757 25.8267 4.66752C20.4783 7.10747 15.6981 10.6373 11.792 15.0311C7.88593 19.4248 4.93991 24.5858 3.14251 30.1837C1.34512 35.7816 0.735919 41.6931 1.3539 47.5401C1.97188 53.387 3.80344 59.0404 6.73136 64.1388C7.24141 65.0182 7.99181 65.7339 8.89436 66.2016C9.79691 66.6693 10.8142 66.8697 11.8267 66.7793C12.9578 66.6799 14.366 66.5389 16.0404 66.3422C16.7692 66.2595 17.4422 65.9114 17.9309 65.3643C18.4198 64.8172 18.6902 64.1094 18.6909 63.3758L18.6902 40.9757Z" fill="#02050C"/>
<path d="M18.5596 77.1757C24.8626 81.7619 32.3114 84.515 40.0817 85.1299C47.8521 85.7442 55.641 84.1974 62.5867 80.6591C69.5324 77.1208 75.3638 71.7299 79.4365 65.0826C83.5084 58.4351 85.6629 50.7904 85.6608 42.9944C85.6608 42.0215 85.6156 41.0591 85.551 40.1023C70.1143 63.1292 41.6121 73.8945 18.5609 77.1722" fill="#02050C"/>
</g>
<defs>
<clipPath id="clip0_61_123">
<rect width="85.4545" height="85.4701" fill="white" transform="translate(0.772461 0.384521)"/>
</clipPath>
</defs>
</svg>
