<svg width="182" height="185" viewBox="0 0 182 185" fill="none" xmlns="http://www.w3.org/2000/svg">
<g clip-path="url(#clip0_68_190)">
<mask id="mask0_68_190" style="mask-type:luminance" maskUnits="userSpaceOnUse" x="0" y="0" width="182" height="185">
<path d="M182 0.334961H0V184.335H182V0.334961Z" fill="white"/>
</mask>
<g mask="url(#mask0_68_190)">
<path d="M152.602 26.0491C145.884 19.4852 133.551 7.87099 123.56 7.87099C119.158 7.87099 115.88 10.7028 113.937 14.4806C113.214 15.8835 109.987 19.8049 111.046 15.2571C117.442 -12.1798 58.5562 6.47468 48.3526 11.6228C-1.1682 36.6063 -13.7017 100.537 17.5029 145.793C18.3936 147.085 19.4972 148.129 20.8332 148.938C23.6729 150.641 22.9049 151.789 24.6926 154.542C27.6227 159.071 32.3598 162.809 36.5484 166.059C46.8617 174.058 58.9628 179.572 71.6899 182.221C97.6733 187.63 125.703 180.59 146.936 164.721C192.139 130.929 191.978 64.4999 152.609 26.0491H152.602Z" fill="white"/>
</g>
<path d="M169.77 67.2863C162.083 45.2585 146.026 26.0298 124.993 16.0273C122.037 14.6244 120.914 17.5215 119.965 19.8965C118.571 23.3873 115.086 26.1734 109.697 25.1164C107.038 24.5944 104.282 21.9192 103.462 18.7677C103.095 17.3583 103.14 15.9294 103.301 14.7615C103.482 13.4565 104.431 9.6199 101.081 9.26756C89.18 7.99522 76.9563 9.48288 65.5393 13.0063C47.3716 18.7481 30.8948 30.01 20.2007 46.0937C8.0867 64.3044 5.9311 86.2866 9.96478 107.473C12.2624 119.563 16.8446 131.23 23.8278 141.35C25.0411 143.105 27.3322 142.739 28.2229 141.839C29.1845 140.873 30.4817 139.62 31.921 140.717C32.8568 141.434 33.1988 142.531 33.1795 143.725C33.1472 145.03 32.2888 146.145 31.5208 146.778C29.5717 148.377 30.7205 150.047 32.5534 152.005C51.5666 172.186 72.4579 176.27 89.1477 176.264C105.128 176.329 121.185 171.605 134.919 163.423C149.885 154.51 162.051 141.193 168.698 124.894C176.114 106.709 176.211 85.7711 169.757 67.2928L169.77 67.2863Z" fill="#68182B"/>
<path d="M96.7375 94.5144C97.5507 86.2409 105.289 81.008 113.098 81.1058C120.585 81.4125 126.477 87.8199 127.723 95.0559C128.904 101.933 125.367 108.425 119.3 111.518C114.589 113.919 109.123 113.906 104.547 111.211C98.8738 107.877 96.105 100.987 96.744 94.5078L96.7375 94.5144Z" fill="#FF7A0D"/>
<path d="M43.7768 108.751C44.3706 104.223 48.6882 101.47 52.9607 101.522C57.1557 101.698 60.4343 105.345 61.1314 109.384C61.7961 113.306 59.7309 116.973 56.2458 118.669C53.4964 120.007 50.5986 119.883 48.1009 118.401C44.874 116.483 43.2928 112.438 43.7768 108.745V108.751Z" fill="#FF7A0D"/>
<path d="M125.038 22.4409C123.902 25.0769 122.043 27.3215 119.571 28.8548C116.364 30.8383 112.337 31.5104 108.651 30.7209C105.515 30.0488 101.146 27.7912 98.9512 22.9303C97.7637 20.2877 97.4216 17.5212 97.6733 14.7155C87.6375 14.0891 77.5629 15.4006 67.9208 18.2715C70.0635 23.7002 70.6831 29.6247 69.2568 35.3861C66.9592 44.684 59.3823 51.6721 50.4049 54.2755C41.6664 56.8071 32.2566 54.406 25.6994 48.227C19.6392 57.0551 15.5797 67.2142 14.1986 78.0846C11.6686 97.9722 16.5478 119.615 27.4032 136.456C28.1648 136.038 28.9973 135.757 29.9267 135.64C33.386 135.216 36.5097 138.015 37.4197 141.232C38.0522 143.47 37.6649 145.917 36.4903 147.887C36.5097 147.907 36.5291 147.92 36.5484 147.939C44.4932 156.376 54.2127 162.529 64.7971 166.274C65.2618 164.167 66.1783 162.183 67.611 160.441C71.819 155.325 79.5443 153.498 85.4819 156.395C90.7612 158.973 93.8849 164.61 94.0462 170.372C94.3818 170.352 94.711 170.346 95.0401 170.326C118.991 168.603 142.528 155.874 156.255 136.005C154.151 134.851 152.267 133.324 150.808 131.353C145.535 124.215 146.723 112.849 151.389 105.704C155.32 99.6817 161.948 97.1371 168.647 98.0375C169.757 67.3382 152.254 36.8607 125.025 22.4409H125.038ZM56.5361 122.258C52.5993 123.758 48.23 122.988 44.9514 120.359C40.9822 117.181 39.2397 111.002 40.9242 106.161C42.6861 101.085 47.7459 98.0244 52.9671 98.0832C59.3178 98.3442 64.3325 103.995 64.6293 110.304C64.881 115.752 61.4863 120.365 56.5426 122.258H56.5361ZM68.179 79.0633C65.9395 79.9181 63.4999 79.383 61.667 77.9084C59.4985 76.1793 58.5562 72.7407 59.4727 70.1112C60.4666 67.2534 63.2417 65.4786 66.1976 65.5178C69.7925 65.6613 72.6064 68.7932 72.7742 72.3688C72.9161 75.4485 70.9477 78.0063 68.179 79.0633ZM113.35 146.191C111.117 147.045 108.671 146.51 106.831 145.036C104.663 143.307 103.727 139.862 104.637 137.239C105.631 134.387 108.406 132.606 111.362 132.645C114.957 132.795 117.771 135.927 117.939 139.503C118.087 142.576 116.119 145.14 113.35 146.191ZM118.829 115.459C112.73 117.821 105.896 116.796 100.739 112.738C94.3947 107.746 91.5808 98.1093 94.1559 90.3969C96.8472 82.3583 104.915 77.5691 113.092 77.667C123.005 78.0715 130.833 86.9714 131.298 96.7978C131.698 105.247 126.503 112.47 118.829 115.452V115.459ZM140.437 70.4244C136.494 71.9251 132.124 71.1552 128.846 68.5257C124.87 65.3481 123.134 59.1626 124.818 54.3277C126.587 49.2514 131.64 46.1912 136.861 46.2565C143.212 46.5175 148.233 52.1615 148.524 58.4775C148.782 63.9257 145.387 68.5388 140.437 70.4244Z" fill="#5CFFCD"/>
<path d="M127.684 56.9182C128.271 52.39 132.589 49.6365 136.861 49.6887C141.056 49.8584 144.335 53.5123 145.032 57.5511C145.703 61.4725 143.632 65.1395 140.146 66.8359C137.404 68.1801 134.499 68.0496 132.002 66.5684C128.775 64.6567 127.194 60.6047 127.684 56.9117V56.9182Z" fill="#FF7A0D"/>
<path d="M30.1655 42.4071C33.2118 38.8119 36.6194 35.4973 40.3369 32.535C46.5262 27.6023 53.4835 23.7004 60.8086 20.7773C64.1776 19.4332 65.0747 19.8442 65.8104 22.7935C67.7143 30.4145 66.1138 38.6684 60.4214 44.5081C55.1938 49.865 47.1006 52.9642 39.6786 51.6136C36.3871 51.0133 33.3408 49.7149 30.656 47.8357C27.9647 45.9501 27.5904 45.4542 30.1655 42.4071Z" fill="#FF7A0D"/>
<path d="M85.7401 170.424C81.3967 170.202 77.0984 169.595 72.8969 168.63C69.244 167.788 67.5337 165.322 70.8058 162.001C73.0453 159.723 76.2206 158.464 79.383 158.425C84.1008 158.373 87.9345 161.603 89.6899 165.765C91.6067 170.32 89.9094 170.633 85.7401 170.418V170.424Z" fill="#FF7A0D"/>
<path d="M167.73 107.447C167.195 110.729 166.44 113.991 165.446 117.221C164.336 120.829 162.929 124.294 161.264 127.602C159.211 131.699 156.481 134.433 152.835 128.248C150.357 124.039 150.486 118.865 151.57 114.239C152.648 109.619 154.965 105.235 159.198 102.873C166.84 98.612 168.402 103.349 167.737 107.44L167.73 107.447Z" fill="#FF7A0D"/>
<path d="M107.658 139.033C107.838 137.187 109.568 136.019 111.31 136.038C112.982 136.11 114.299 137.539 114.576 139.151C114.841 140.691 114.047 142.139 112.692 142.831C111.646 143.366 110.426 143.366 109.4 142.765C108.135 142.022 107.509 140.482 107.658 139.033Z" fill="#FF7A0D"/>
<path d="M62.4867 71.9058C62.6674 70.0593 64.397 68.8913 66.1396 68.9109C67.8111 68.9761 69.1342 70.4116 69.4117 72.0232C69.6699 73.5566 68.8825 75.0116 67.5272 75.7032C66.4816 76.2383 65.2554 76.2383 64.2357 75.6315C62.9643 74.8876 62.3511 73.3478 62.4931 71.8993L62.4867 71.9058Z" fill="#FF7A0D"/>
<path d="M96.7375 94.5142C96.0986 100.993 98.8673 107.884 104.54 111.218C109.123 113.906 114.583 113.926 119.294 111.524C125.361 108.432 128.897 101.933 127.716 95.0623C127.484 93.7247 127.097 92.4132 126.567 91.1604C127.329 99.3034 122.94 107.27 112.963 108.001C106.205 108.497 100.565 103.192 98.764 96.9806C97.8411 93.7964 98.0863 90.7624 99.1254 88.022C97.8411 89.8815 96.9827 92.0608 96.7375 94.5142Z" fill="#EF6200"/>
<path d="M107.657 139.033C107.509 140.481 108.129 142.021 109.4 142.765C110.426 143.365 111.646 143.372 112.692 142.837C114.047 142.145 114.841 140.69 114.576 139.157C114.415 138.23 113.911 137.376 113.201 136.795C113.95 138.256 113.666 140.41 111.33 141.043C109.323 141.584 107.638 140.012 108.045 137.826C107.838 138.185 107.703 138.589 107.657 139.039V139.033Z" fill="#EF6200"/>
<path d="M154.261 119.857C152.312 114.461 154.648 108.132 158.05 103.623C154.545 106.096 152.544 110.057 151.57 114.239C150.492 118.865 150.356 124.039 152.835 128.248C156.475 134.433 159.211 131.699 161.264 127.602C162.496 125.142 163.593 122.604 164.529 119.981C162.025 124.274 156.475 125.984 154.261 119.863V119.857Z" fill="#EF6200"/>
<path d="M127.684 56.9185C127.2 60.6115 128.775 64.6569 132.002 66.5752C134.493 68.0498 137.397 68.1803 140.146 66.8427C142.909 65.4921 144.761 62.9017 145.084 59.9329C143.786 62.5624 141.308 64.3894 137.403 64.5068C130.182 64.7287 128.465 57.3622 130.627 51.8291C129.084 53.0688 127.968 54.7914 127.684 56.925V56.9185Z" fill="#EF6200"/>
<path d="M48.1009 118.408C50.5921 119.883 53.4964 120.013 56.2457 118.669C59.7244 116.966 61.7961 113.306 61.1313 109.384C61.0216 108.751 60.828 108.138 60.6021 107.538C60.9248 112.425 58.2335 117.149 52.0894 116.248C48.2752 115.694 46.2745 112.131 46.4035 108.536C46.481 106.318 47.2232 104.243 48.4559 102.533C46.0357 103.714 44.1511 105.861 43.7768 108.738C43.2928 112.431 44.8675 116.477 48.1009 118.395V118.408Z" fill="#EF6200"/>
<path d="M30.656 47.8289C33.3408 49.7081 36.3871 51.013 39.6786 51.6068C47.1006 52.9574 55.1938 49.8581 60.4214 44.5013C63.8097 41.0235 65.7201 36.6845 66.3332 32.1367C59.8147 48.7881 38.3749 52.3832 35.2189 42.4394C34.6574 40.6842 34.8252 38.3744 37.1164 35.2817C34.6316 37.5066 32.3082 39.8817 30.1655 42.4068C27.5904 45.4539 27.9647 45.9432 30.656 47.8354V47.8289Z" fill="#EF6200"/>
<path d="M64.2292 75.6378C65.2489 76.2381 66.4752 76.2446 67.5207 75.7096C68.876 75.0179 69.6634 73.5629 69.4052 72.0296C69.3794 71.8599 69.3342 71.6903 69.2761 71.5206C69.2245 72.4276 68.8631 73.2758 68.0305 73.8826C66.5913 74.9397 64.0291 74.3067 63.345 72.669C63.0094 71.8665 63.0546 70.9856 63.2676 70.1309C62.8416 70.6072 62.5447 71.2075 62.4802 71.9056C62.3382 73.3541 62.9513 74.894 64.2227 75.6378H64.2292Z" fill="#EF6200"/>
<path d="M70.8058 162.007C67.5401 165.328 69.2504 167.794 72.8969 168.636C77.0984 169.602 81.3967 170.209 85.7401 170.43C89.5931 170.633 91.2905 170.333 90.0255 166.705C89.3995 167.625 88.4895 168.388 87.1342 168.884C84.8753 169.713 82.2292 169.282 80.0026 168.61C77.6211 167.892 75.3558 166.444 74.3813 164.049C73.7294 162.464 73.8908 160.865 74.5362 159.488C73.155 160.089 71.8772 160.93 70.8058 162.013V162.007Z" fill="#EF6200"/>
<path d="M29.9396 135.647C33.3989 135.222 36.5226 138.022 37.4326 141.238C38.0651 143.476 37.6778 145.923 36.5097 147.894C36.529 147.913 36.5484 147.926 36.5678 147.946C44.5125 156.382 54.2321 162.535 64.8165 166.281C65.2876 164.173 66.1976 162.19 67.6304 160.441C71.8383 155.325 79.5636 153.499 85.5012 156.396C90.7805 158.973 93.9042 164.61 94.0656 170.372C94.4012 170.352 94.7303 170.346 95.0595 170.326C119.01 168.603 142.554 155.874 156.275 135.999C154.539 135.053 152.97 133.826 151.647 132.325C148.646 134.727 145.555 136.997 142.373 139.072C123.153 151.639 98.3703 155.841 76.0011 151.319C57.3493 147.548 40.9435 136.364 30.3204 120.463C19.5553 104.341 15.9863 84.3615 17.9547 65.2372C18.0644 64.1606 18.2 63.0906 18.3549 62.0205C16.3348 67.1294 14.9149 72.5059 14.205 78.0781C11.6751 97.9658 16.5542 119.609 27.4161 136.443C28.1777 136.032 29.0102 135.744 29.9396 135.634V135.647Z" fill="#27D89D"/>
<path d="M57.3365 25.5401C55.8973 26.2513 54.5226 27.1452 53.2318 28.0391C51.3215 29.3571 49.0562 30.9884 47.9977 33.122C46.5004 36.156 50.6954 37.8068 52.864 38.0743C58.5111 38.7725 60.8603 29.964 61.538 27.354C62.3705 24.1177 59.8148 24.32 57.3301 25.5466L57.3365 25.5401Z" fill="#FFB85A"/>
<path d="M106.405 87.0823C103.888 89.0658 102.301 93.6854 106.121 95.2514C108.748 96.328 112.898 94.0965 115.357 93.3722C116.88 92.922 120.055 92.8176 120.643 90.808C122.282 85.2227 112.511 82.267 106.405 87.0823Z" fill="#FFB85A"/>
<path d="M137.429 52.7096C135.551 52.279 133.841 53.2185 134.248 55.3587C134.706 57.7598 136.61 59.4954 139.043 59.6585C145.071 60.0565 143.754 54.1581 137.429 52.7096Z" fill="#FFB85A"/>
<path d="M50.9342 104.582C48.798 105.77 49.0109 107.923 50.5341 109.378C52.1411 110.911 54.7872 110.715 56.42 109.352C60.1504 106.233 55.3938 102.116 50.9342 104.589V104.582Z" fill="#FFB85A"/>
<path d="M160.605 108.314C159.45 110.285 158.811 112.784 158.592 114.669C158.334 116.829 160.121 120.274 162.341 117.814C163.936 116.046 164.529 112.784 164.768 110.095C164.994 107.479 164.884 100.954 160.605 108.308V108.314Z" fill="#FFB85A"/>
<path d="M83.3005 161.472C81.4095 160.121 79.0022 159.606 77.7372 161.629C76.9047 162.973 78.744 164.134 79.6927 164.597C80.706 165.1 81.8742 165.406 83.0294 165.433C85.6045 165.498 85.3722 162.953 83.294 161.465L83.3005 161.472Z" fill="#FFB85A"/>
<path d="M95.4726 20.2226C96.3439 20.2552 97.2087 20.3139 98.0735 20.3857C97.6153 18.5327 97.4991 16.6405 97.6734 14.7287C87.6376 14.1023 77.563 15.4138 67.9209 18.2847C68.6179 20.0464 69.1536 21.8668 69.5086 23.7134C77.9567 21.2861 86.6566 19.8833 95.4726 20.2226Z" fill="#D3FFEB"/>
<path d="M125.038 22.4409C124.302 24.1439 123.257 25.6903 121.946 26.9822C134.351 32.7828 144.967 41.4738 153.138 52.5921C159.928 61.8247 164.71 72.2971 167.776 83.2979C163.871 57.9425 147.878 34.5445 125.038 22.4474V22.4409Z" fill="#D3FFEB"/>
</g>
<defs>
<clipPath id="clip0_68_190">
<rect width="182" height="184" fill="white" transform="translate(0 0.334961)"/>
</clipPath>
</defs>
</svg>
