<svg width="182" height="185" viewBox="0 0 182 185" fill="none" xmlns="http://www.w3.org/2000/svg">
<g clip-path="url(#clip0_68_47)">
<mask id="mask0_68_47" style="mask-type:luminance" maskUnits="userSpaceOnUse" x="0" y="0" width="182" height="185">
<path d="M182 0.334961H0V184.335H182V0.334961Z" fill="white"/>
</mask>
<g mask="url(#mask0_68_47)">
<path d="M13.8744 97.12C13.8183 97.1015 13.7497 97.0768 13.6625 97.046C13.731 97.0707 13.7996 97.0953 13.8806 97.12C13.8993 97.1262 13.8993 97.12 13.9055 97.1324C19.833 99.1576 26.041 102.202 30.8839 106.209C33.6887 108.531 34.9415 110.408 31.5383 112.624C28.2786 114.736 25.3491 117.329 22.7749 120.225C17.0781 126.646 5.50362 149.875 24.1399 147.516C23.8407 151.011 24.3456 154.543 23.9342 158.025C23.4356 162.267 21.1793 165.836 24.009 169.88C27.0382 174.215 32.6291 174.03 36.7615 171.504C40.1833 169.417 45.3379 170.035 49.1649 169.238C48.8096 183.032 63.1951 178.617 70.0388 173.313C73.8471 170.362 77.2253 166.849 79.9553 162.897C81.6382 160.464 83.0718 157.859 84.1688 155.111C87.4161 156.204 88.5629 156.92 90.4453 160.007C95.444 168.201 98.5605 181.087 109.487 183.569C120.893 186.162 129.027 173.832 133.72 165.546C139.193 155.889 143.213 145.127 144.279 134.056C144.759 129.104 144.609 124.066 143.568 119.188C142.403 113.705 150.804 107.042 154.17 102.375C167.914 83.3262 177.001 61.45 180.903 38.3759C183.945 20.865 179.42 -1.43111 156.308 0.933727C132.704 3.34796 109.786 9.80648 90.0588 23.2113C80.4228 29.7625 71.8401 37.7029 64.317 46.5447C53.0542 44.9332 41.1744 48.2674 30.8839 52.571C21.4099 56.5351 9.90403 62.2403 3.77088 70.8105C-4.13864 81.8629 2.13164 93.1313 13.8681 97.1262L13.8744 97.12Z" fill="white"/>
</g>
<path d="M169.728 12.1466C166.854 9.57181 163.114 8.07141 159.219 8.12698C157.249 8.15785 155.242 8.50362 153.285 8.73825C149.19 9.23839 145.101 9.80644 141.05 10.5474C120.357 14.3015 101.054 22.8099 84.9666 36.3321C78.4159 41.8397 72.5009 48.0636 67.1717 54.7444C66.9972 54.658 66.804 54.5839 66.5921 54.5221C59.9665 52.7007 52.7863 53.6268 46.2168 55.2384C38.6563 57.0907 31.3015 60.1039 24.5015 63.8518C21.5159 65.5004 18.6363 67.3219 15.9188 69.378C13.2574 71.397 10.4775 73.6013 8.90058 76.6021C7.37352 79.5103 7.03071 83.0977 9.019 85.8824C11.2566 89.0067 15.5261 89.6921 18.8919 91.0875C23.1552 92.8534 27.3312 94.9466 31.233 97.4102C33.6202 98.9168 36.1632 100.683 38.0767 102.862C39.7284 104.745 39.6723 106.098 40.3953 107.259C41.8787 109.642 43.9106 112.007 45.6683 113.995C45.874 114.223 46.0922 114.433 46.2978 114.662C34.8792 116.249 25.2058 126.369 21.0921 136.816C20.1011 139.335 21.2915 140.78 23.9717 140.033C27.6054 139.02 31.6942 139.032 35.2843 140.199C28.665 145.615 33.3085 155.074 30.4788 162.514C29.388 165.379 29.7869 167.089 32.8722 165.206C39.959 160.896 50.3118 164.78 55.0363 157.395C56.6507 160.742 57.2303 164.694 56.7005 168.355C56.2891 171.208 57.0745 172.554 59.8045 171.134C69.8706 165.879 78.7774 155.123 79.1451 143.639C79.7809 144.089 80.4104 144.54 81.0586 144.979C82.3426 145.849 83.6577 146.707 85.0414 147.43C86.4251 148.158 87.5345 148.566 88.8497 148.263C99.8008 153.975 99.7572 168.312 108.782 175.215C114.941 179.926 121.878 170.467 124.52 166.398C133.645 152.369 141.474 130.839 134.343 114.563C138.569 110.148 142.558 105.505 146.248 100.609C159.942 82.4617 169.509 60.993 173.318 38.6228C174.801 29.8797 177.238 18.8583 169.734 12.1281L169.728 12.1466Z" fill="#68182B"/>
<path d="M120.357 29.5278C121.192 29.0462 122.152 28.8054 123.093 28.6263C125.935 28.0706 128.983 28.2435 131.794 28.8733C133.502 29.2561 135.166 29.818 136.724 30.6145C137.728 31.127 140.576 32.4113 140.489 33.7944C140.458 34.3316 139.791 35.0478 139.479 35.48C138.925 36.2457 138.289 37.0051 137.522 37.5732C137.229 37.7893 136.88 38.0239 136.544 38.1536C136.039 38.3512 136.001 38.2647 135.571 37.9313C134.798 37.3385 134.019 36.752 133.209 36.2024C129.482 33.6524 125.299 31.8556 120.831 31.022C120.444 30.9171 119.933 30.3243 119.908 29.9045C119.902 29.7995 120.176 29.639 120.363 29.5278H120.357Z" fill="#FF7A0D"/>
<path d="M137.772 16.7222C120.6 20.4207 104.376 27.6016 90.6884 38.6293C76.5211 50.0459 65.4515 64.5436 56.6444 80.3133C57.704 80.443 58.7511 80.7332 59.7297 81.1036C64.18 82.8016 68.1565 85.9568 71.2543 89.5071C72.7813 91.2483 74.6824 93.6502 75.4365 96.1571C78.5218 92.934 81.6694 89.7726 84.7858 86.6051C88.9868 82.5423 95.2384 81.5544 100.125 85.0985C104.644 88.3772 106.514 94.2306 104.444 99.4419C103.273 102.381 101.016 104.9 99.0716 107.364C97.1768 109.766 95.2072 112.1 93.2065 114.415C93.4558 114.495 93.7051 114.582 93.9544 114.674C98.4047 116.372 102.381 119.534 105.485 123.078C106.894 124.689 108.627 126.869 109.481 129.172C126.721 116.44 141.468 100.529 152.032 81.8631C158.776 69.9402 163.931 56.6032 166.848 43.2416C155.037 36.8696 145.189 27.8363 137.765 16.7222H137.772ZM139.747 39.0985C138.962 39.8024 138.021 40.4384 136.999 40.7595C135.671 41.1732 134.842 40.6545 133.839 39.8765C129.775 36.7214 125.219 34.48 120.126 33.5291C119.921 33.4921 119.746 33.418 119.609 33.3192C117.845 32.4918 116.598 30.1455 117.752 28.4167C118.506 27.2867 120.008 26.7372 121.261 26.3853C124.907 25.3603 128.983 25.5517 132.636 26.3976C134.823 26.9039 136.967 27.7189 138.906 28.8365C140.751 29.9047 143.101 31.4051 143.101 33.7947C143.101 34.7949 142.558 35.5853 142.016 36.3818C141.355 37.3512 140.614 38.3082 139.741 39.0985H139.747ZM155.411 64.3337C153.547 65.2105 151.216 63.6916 150.599 61.9133C149.851 58.9619 148.685 56.1772 147.052 53.5901C146.323 52.4416 145.531 51.3302 144.665 50.2744C143.917 49.3667 142.596 48.3418 142.297 47.1748C141.773 45.131 143.705 42.8897 145.076 41.6363C146.685 40.1667 148.498 38.6355 150.767 39.6419C152.768 40.5249 154.201 42.902 155.211 44.7482C156.277 46.6994 157.056 48.8234 157.536 50.9906C158.271 54.3187 158.558 58.1345 157.499 61.4317C157.131 62.574 156.564 63.7965 155.411 64.3337Z" fill="#00EBED"/>
<path d="M148.355 42.3461C148.928 41.9448 149.19 41.7287 149.87 42.093C150.667 42.5252 151.284 43.4637 151.789 44.1861C152.793 45.6186 153.616 47.1869 154.195 48.8355C155.23 51.7314 155.697 54.831 155.485 57.8997C155.411 58.9926 155.224 60.2213 154.818 61.1907C154.7 61.4624 154.482 61.9378 154.345 61.9625C153.977 62.0489 153.266 61.5797 153.142 61.2216C152.145 57.2822 150.393 53.5899 147.987 50.305C147.451 49.5765 146.896 48.8726 146.317 48.1748C146.03 47.8291 145.737 47.4895 145.438 47.1499C145.108 46.7794 144.858 46.693 144.927 46.2299C145.151 44.6554 147.158 43.1797 148.355 42.3338V42.3461Z" fill="#FF7A0D"/>
<path d="M39.5351 96.6139C36.4 93.8909 32.5606 91.7484 29.1449 89.9516C25.8166 88.1919 22.376 86.6483 18.8669 85.2775C16.7415 84.444 12.6777 83.9438 13.114 80.8875C13.5129 78.1151 16.2055 76.059 18.2561 74.4104C20.5934 72.5334 23.1427 70.9095 25.7356 69.4091C31.7004 65.9513 38.1016 63.179 44.7396 61.2587C49.4579 59.8942 54.6125 58.7704 59.6424 58.9742C62.3973 59.0853 63.2014 59.888 61.2692 62.6418C59.8356 64.6856 58.4519 66.7602 57.1119 68.8595C52.4123 76.2689 48.2799 84.0303 44.6149 91.9892C44.0478 93.2303 43.4868 94.4713 42.9383 95.7248C41.941 97.997 41.324 98.1699 39.5351 96.6201V96.6139Z" fill="#FF7A0D"/>
<path d="M45.9425 102.504C48.2549 96.9536 50.7792 91.4521 53.5466 86.0679C54.8555 83.5302 56.0585 82.5299 58.427 83.3388C60.3529 83.9933 62.2166 85.1788 63.6875 86.2038C67.0096 88.5192 70.1635 91.5818 72.0894 95.1568C72.4883 95.8854 72.8125 96.6448 73.0057 97.4599C73.1054 97.8983 73.1179 98.2873 73.0867 98.6577C67.9072 104.215 63.0206 110.019 58.9879 116.465C58.5516 117.157 58.1652 117.885 57.7538 118.589C55.0799 116.027 52.4496 113.427 49.9814 110.679C48.8782 109.451 47.7625 108.185 46.7653 106.833C45.5312 105.166 45.3317 103.962 45.9363 102.504H45.9425Z" fill="#FF2E60"/>
<path d="M61.4624 131.722C58.9069 129.586 58.8446 128.295 59.8668 126.153C61.1196 123.547 62.5469 121.022 64.1052 118.583C70.8304 108.043 79.9242 99.3121 88.6627 90.4394C91.3553 87.8338 95.1199 87.5189 97.8624 90.2665C100.524 92.9339 100.237 96.5892 98.2364 99.5283C94.8956 104.449 90.838 109.012 86.8614 113.433C80.6534 120.342 73.9344 127.264 66.0249 132.284C64.1862 133.445 63.4819 133.408 61.4624 131.71V131.722Z" fill="#FF7A0D"/>
<path d="M48.5417 117.058C50.6733 119.293 52.861 121.479 55.1111 123.603C54.8182 124.208 54.5003 124.794 54.226 125.412C54.0515 125.807 53.9206 126.184 53.8084 126.56C43.9293 124.103 33.4706 127.178 25.5984 133.408C30.3541 124.918 38.8869 117.515 48.5417 117.058Z" fill="#FFF18A"/>
<path d="M34.1686 154.765C34.0066 149.758 33.1589 144.855 37.5219 141.786C39.4105 140.459 39.504 139.045 37.3225 138.181C33.6264 136.717 29.3444 136.334 25.3616 137.044C32.8847 130.166 43.5055 126.535 53.5653 129.184C53.6713 129.987 53.9455 130.796 54.413 131.654C54.974 132.679 55.7718 133.741 56.7129 134.729C49.14 142.842 41.6169 151.011 34.0377 159.118C34.1998 157.711 34.2247 156.266 34.1749 154.765H34.1686Z" fill="#FAC135"/>
<path d="M59.499 165.515C59.4741 161.946 58.6015 158.328 56.8937 155.272C55.7219 153.179 54.1388 153.549 53.235 155.34C50.8291 160.088 45.6309 159.983 40.657 160.384C38.8869 160.526 37.204 160.804 35.6022 161.267C43.306 153.03 50.9413 144.738 58.6389 136.495C60.2532 137.718 62.1044 138.551 63.9618 138.675C68.5367 147.554 65.0027 157.587 59.5053 165.521L59.499 165.515Z" fill="#FFF18A"/>
<path d="M61.5933 167.034C67.4833 158.513 71.1732 147.813 66.6481 138.224C67.7326 137.779 68.7735 137.106 69.7334 136.415C71.971 138.236 74.2398 140.033 76.5522 141.762C77.2315 151.789 70.045 161.44 61.5933 167.034Z" fill="#FAC135"/>
<path d="M86.0449 141.787C84.817 141.033 83.5767 140.157 82.5046 139.397C79.6624 137.403 76.9324 135.254 74.2336 133.074C75.4241 132.142 76.6021 131.179 77.7489 130.191C82.0808 126.449 86.1134 122.362 89.9591 118.138C90.4266 117.626 90.8691 117.095 91.3304 116.576C93.7113 117.039 96.1234 118.515 97.9372 119.781C101.253 122.096 104.407 125.159 106.339 128.728C107.455 130.79 106.75 131.167 104.768 132.531C102.269 134.254 99.726 135.915 97.1332 137.508C94.827 138.928 92.4834 140.28 90.115 141.595C88.0082 142.762 88.0207 143.009 86.0574 141.793L86.0449 141.787Z" fill="#FF2E60"/>
<path d="M121.859 160.168C120.631 162.459 119.204 164.626 117.72 166.756C111.057 176.296 106.545 161.829 104.75 158.538C102.593 154.586 100.007 150.492 96.6657 147.3C95.0763 145.787 94.908 145.182 97.0148 143.947C102.637 140.65 108.078 137.007 113.283 133.136C118.281 129.419 123.049 125.442 127.587 121.225C129.257 119.675 130.454 119.126 131.034 121.688C133.907 134.389 127.593 149.467 121.853 160.174L121.859 160.168Z" fill="#FF7A0D"/>
<path d="M168.78 32.1338C168.649 33.2267 168.5 34.3257 168.331 35.4248C167.883 38.4194 166.817 38.2712 164.511 36.8202C156.769 31.9486 150.044 25.8296 144.497 18.5869C143.119 16.784 142.602 15.722 145.313 15.2651C149.508 14.5488 153.628 14.0116 157.96 13.6288C163.881 13.0978 169.553 17.5002 169.466 23.6439C169.428 26.4718 169.129 29.3244 168.786 32.1338H168.78Z" fill="#FF2E60"/>
<path d="M105.491 123.084C106.9 124.696 108.633 126.875 109.487 129.178C122.956 119.231 134.867 107.321 144.484 93.6997C141.711 96.3671 138.812 98.9295 135.808 101.405C129.151 106.895 122.694 112.612 114.043 114.619C106.888 116.28 101.565 112.637 99.4704 106.882C99.3396 107.043 99.2149 107.21 99.084 107.37C97.1892 109.772 95.2196 112.106 93.2189 114.421C93.4682 114.502 93.7175 114.588 93.9668 114.681C98.4171 116.379 102.394 119.54 105.498 123.084H105.491Z" fill="#19BFBB"/>
<path d="M81.3017 47.1006C71.5036 56.881 63.4008 68.2174 56.6444 80.3132C57.704 80.4429 58.7511 80.7331 59.7297 81.1035C64.18 82.8015 68.1565 85.9567 71.2543 89.507C72.7813 91.2482 74.6824 93.6501 75.4365 96.157C78.0793 93.397 80.7656 90.6802 83.4458 87.9634C82.1556 87.6238 80.8778 87.1978 79.6126 86.605C75.343 84.5921 72.5133 80.8998 71.5472 76.3615C69.64 67.4023 74.9067 57.4737 79.3695 50.0705C79.9803 49.0641 80.6472 48.0885 81.2954 47.1006H81.3017Z" fill="#19BFBB"/>
<path d="M120.781 30.9915C120.781 30.9915 120.818 31.0162 120.831 31.0162C125.293 31.8436 129.476 33.6404 133.209 36.1966C134.013 36.7462 134.798 37.3327 135.571 37.9255C136.001 38.2589 136.039 38.3392 136.544 38.1478C136.886 38.0181 137.229 37.7835 137.522 37.5674C137.772 37.376 137.996 37.1413 138.227 36.9129C133.14 33.1094 127.039 30.5593 120.781 30.9854V30.9915Z" fill="#EF6200"/>
<path d="M83.078 111.593C79.1825 115.31 74.9192 118.608 70.5312 121.726C67.5021 123.887 63.5005 126.567 59.5489 126.888C58.9007 128.61 59.2186 129.839 61.4624 131.716C63.4818 133.408 64.1862 133.451 66.0249 132.29C73.9344 127.27 80.6472 120.349 86.8614 113.44C90.8317 109.019 94.8893 104.456 98.2301 99.5346C100.007 96.9166 100.418 93.7368 98.6166 91.1929C95.363 99.0468 89.261 105.691 83.078 111.6V111.593Z" fill="#EF6200"/>
<path d="M117.72 166.756C118.911 165.046 120.039 163.286 121.086 161.483C118.344 163.348 115.202 163.786 112.541 162.675C108.134 160.829 107.891 155.957 108.888 152.049C111.637 141.286 122.177 133.124 125.686 122.948C124.053 124.418 122.401 125.869 120.718 127.277C118.3 129.289 115.819 131.247 113.289 133.13C108.084 137.001 102.643 140.638 97.021 143.942C94.9143 145.176 95.0826 145.782 96.6719 147.294C100.013 150.48 102.599 154.58 104.756 158.532C106.551 161.823 111.064 176.29 117.727 166.75L117.72 166.756Z" fill="#EF6200"/>
<path d="M146.311 48.1811C146.89 48.8726 147.445 49.5827 147.981 50.3113C150.393 53.5961 152.144 57.2884 153.136 61.2278C153.16 61.308 153.229 61.3945 153.304 61.4809C153.241 60.2522 153.092 59.0235 152.849 57.7701C151.876 52.8243 149.022 48.3663 145.874 44.4517C145.388 45.0135 145.008 45.6186 144.921 46.2423C144.852 46.7054 145.101 46.7918 145.432 47.1623C145.731 47.4957 146.024 47.8353 146.311 48.1872V48.1811Z" fill="#EF6200"/>
<path d="M29.1449 89.9455C32.5606 91.7484 36.4 93.891 39.5351 96.6077C41.3177 98.1575 41.941 97.9847 42.9383 95.7124C43.4868 94.4652 44.0477 93.2179 44.6212 91.9769C48.2861 84.0179 52.4185 76.2566 57.1181 68.8472C57.4297 68.3656 57.7601 67.8963 58.0717 67.4209C54.039 69.9401 50.1123 72.6939 46.1545 75.5651C40.6134 79.5908 34.8169 85.1911 27.3374 83.9994C24.6074 83.5672 21.9148 82.1532 19.8392 80.3997C17.9881 78.8375 17.371 76.9852 17.4396 75.0649C15.551 76.5962 13.463 78.4671 13.1202 80.8813C12.6839 83.9377 16.7477 84.4378 18.8732 85.2714C22.3823 86.6421 25.8228 88.1857 29.1512 89.9455H29.1449Z" fill="#EF6200"/>
<path d="M164.504 36.8201C166.811 38.2711 167.876 38.4193 168.325 35.4247C168.493 34.3256 168.643 33.2265 168.774 32.1337C169.11 29.3243 169.416 26.4716 169.453 23.6437C169.484 21.4086 168.749 19.4018 167.515 17.7841C168.531 22.7669 167.802 28.6698 161.818 29.3366C155.834 30.0096 148.131 20.6491 150.032 14.561C148.455 14.7833 146.884 14.9994 145.301 15.2711C142.596 15.7342 143.107 16.79 144.484 18.593C150.032 25.8357 156.763 31.9546 164.498 36.8263L164.504 36.8201Z" fill="#EA0F4D"/>
<path d="M50.2619 92.8164C48.7535 96.0271 47.3013 99.2441 45.9425 102.504C45.3379 103.961 45.5374 105.165 46.7715 106.833C47.7687 108.179 48.8844 109.451 49.9877 110.679C52.4559 113.427 55.0861 116.026 57.76 118.589C58.1714 117.879 58.5579 117.156 58.9942 116.465C59.0877 116.317 59.1874 116.187 59.2809 116.039C58.0904 114.594 56.956 113.106 55.8964 111.581C51.764 105.604 49.9877 99.4231 50.2619 92.8226V92.8164Z" fill="#EA0F4D"/>
<path d="M90.0962 141.595C92.4647 140.286 94.8083 138.928 97.1207 137.508C99.7135 135.921 102.257 134.254 104.756 132.531C104.974 132.383 105.167 132.247 105.354 132.117C96.3041 135.655 86.4624 135.569 77.0196 130.784C76.0972 131.562 75.1747 132.333 74.2273 133.074C76.9261 135.26 79.6561 137.403 82.4983 139.397C83.5766 140.157 84.817 141.033 86.0386 141.787C88.002 143.003 87.9895 142.762 90.0962 141.589V141.595Z" fill="#EA0F4D"/>
<path d="M27.8173 131.796C35.3778 126.671 44.8331 124.325 53.8084 126.56C53.9206 126.183 54.0515 125.807 54.226 125.412C54.413 124.992 54.6249 124.584 54.8244 124.17C45.5623 122.46 33.4207 125.01 27.8111 131.796H27.8173Z" fill="#F3AF79"/>
<path d="M57.2303 141.904C58.1839 140.811 59.5178 139.385 60.808 137.785C60.06 137.433 59.3245 137.007 58.6452 136.489C51.8887 143.719 45.1759 150.993 38.4319 158.229C45.4003 153.543 51.6332 148.344 57.2365 141.904H57.2303Z" fill="#F3AF79"/>
<path d="M38.5379 154.265C44.5962 147.757 50.6296 141.225 56.7005 134.729C56.2704 134.279 55.8777 133.803 55.51 133.328C52.9046 135.976 50.4551 138.798 48.0492 141.552C44.59 145.516 41.3052 149.752 38.5316 154.265H38.5379Z" fill="#FFA222"/>
<path d="M69.1351 152.629C70.8242 148.683 72.532 142.521 71.4662 137.779C70.8927 137.316 70.3006 136.884 69.7272 136.415C68.7673 137.106 67.7264 137.779 66.6419 138.224C69.4779 144.231 69.0852 150.684 66.9473 156.76C67.7514 155.444 68.5055 154.08 69.1288 152.623L69.1351 152.629Z" fill="#FFA222"/>
<path d="M125.281 153.29C129.75 143.54 133.34 131.858 131.04 121.688C130.56 119.577 129.656 119.595 128.428 120.528C132.349 122.176 130.273 133.945 129.893 136.347C128.94 142.225 127.219 147.788 125.287 153.296L125.281 153.29Z" fill="#FFB85A"/>
<path d="M63.6626 119.318C68.5741 113.649 73.4918 107.975 78.5155 102.406C83.614 96.7498 88.806 91.2977 95.8429 88.8835C93.4495 87.8091 90.7382 88.4389 88.6564 90.4456C79.9179 99.3184 70.8242 108.049 64.1051 118.589C63.9493 118.83 63.8122 119.083 63.6626 119.324V119.318Z" fill="#FFB85A"/>
<path d="M27.9607 68.1926C34.2684 65.7598 40.5386 63.2468 47.0707 61.3697C49.9628 60.5423 52.9234 59.8508 55.9214 59.573C57.0745 59.468 58.24 59.5174 59.3931 59.573C61.2443 59.6656 61.7928 60.5856 61.799 61.7711C62.977 59.7026 62.0732 59.0543 59.6299 58.9555C54.6062 58.7517 49.4454 59.8817 44.7271 61.2401C38.8994 62.9257 33.2773 65.3029 27.9545 68.1864L27.9607 68.1926Z" fill="#FFB85A"/>
<path d="M134.674 48.527C129.706 43.4454 122.513 40.0123 115.283 41.1176C106.277 42.4945 92.1157 53.127 99.2586 62.9321C100.86 65.1302 103.89 66.1552 106.277 67.1801C110.908 69.1683 113.632 72.3791 114.897 77.2013C116.33 82.6781 116.879 88.7785 123.411 90.316C128.79 91.5817 133.795 87.488 137.154 83.9007C139.51 81.3876 141.867 78.3807 143.15 75.1761C145.912 68.3162 143.655 57.7023 134.68 48.527H134.674Z" fill="#6CFFFB"/>
<path d="M69.16 97.9784C69.2036 99.874 68.9481 101.807 68.543 103.745C70.0326 102.023 71.541 100.325 73.093 98.6576C73.1241 98.281 73.1117 97.8982 73.0119 97.4598C72.8187 96.6447 72.4884 95.8914 72.0957 95.1567C70.2445 91.736 67.2777 88.7969 64.1176 86.5186C66.9598 89.9639 69.0665 94.2058 69.16 97.9846V97.9784Z" fill="#FF6699"/>
<path d="M93.5181 120.522C96.0361 120.423 98.5044 121.084 100.885 122.115C99.9317 121.275 98.9407 120.491 97.9247 119.781C96.1109 118.515 93.6988 117.039 91.3179 116.576C90.8566 117.095 90.4079 117.626 89.9466 118.138C88.6564 119.552 87.3413 120.942 86.0074 122.318C88.457 121.324 90.9563 120.62 93.5181 120.522Z" fill="#FF6699"/>
</g>
<defs>
<clipPath id="clip0_68_47">
<rect width="182" height="184" fill="white" transform="translate(0 0.334961)"/>
</clipPath>
</defs>
</svg>
