<svg width="86" height="86" viewBox="0 0 86 86" fill="none" xmlns="http://www.w3.org/2000/svg">
<path fill-rule="evenodd" clip-rule="evenodd" d="M85.4503 43.3803C85.4503 66.8718 66.4066 85.9155 42.9151 85.9155C19.4235 85.9155 0.379883 66.8718 0.379883 43.3803C0.379883 19.8888 19.4235 0.845093 42.9151 0.845093C66.4066 0.845093 85.4503 19.8888 85.4503 43.3803ZM60.8543 26.6462L19.8433 42.4587C17.0324 43.5575 17.082 45.1136 19.3612 45.8367L29.8603 49.1119L54.2153 33.778C55.346 33.0265 56.3952 33.4519 55.5374 34.2069L35.8294 52.0114L35.0744 62.8331C36.1733 62.8331 36.6518 62.3545 37.2189 61.7874L42.348 56.8462L52.9818 64.6833C54.9207 65.7822 56.3066 65.215 56.8241 62.8827L63.807 29.9853L63.8034 29.9888C64.4202 27.1106 62.7578 25.9586 60.8543 26.6462Z" fill="#B9E500"/>
</svg>
