<svg width="87" height="86" viewBox="0 0 87 86" fill="none" xmlns="http://www.w3.org/2000/svg">
<path fill-rule="evenodd" clip-rule="evenodd" d="M86.227 43.1196C86.227 66.7215 67.0974 85.8546 43.4997 85.8546C19.9021 85.8546 0.772461 66.7215 0.772461 43.1196C0.772461 19.5177 19.9021 0.384521 43.4997 0.384521C67.0974 0.384521 86.227 19.5177 86.227 43.1196ZM61.52 26.3069L20.3237 42.1936C17.5002 43.2976 17.55 44.861 19.8395 45.5875L30.386 48.8781L54.8509 33.4721C55.9868 32.7171 57.0407 33.1445 56.179 33.903L36.3821 51.7912L35.6237 62.6637C36.7275 62.6637 37.2081 62.183 37.7778 61.6132L42.93 56.6488L53.6119 64.5227C55.5595 65.6267 56.9517 65.0569 57.4715 62.7136L64.4859 29.6616L64.4824 29.6651C65.1019 26.7734 63.432 25.616 61.52 26.3069Z" fill="#02050C"/>
</svg>
