<svg width="86" height="86" viewBox="0 0 86 86" fill="none" xmlns="http://www.w3.org/2000/svg">
<path fill-rule="evenodd" clip-rule="evenodd" d="M85.0704 42.8702C85.0704 66.3617 66.0268 85.4054 42.5352 85.4054C19.0437 85.4054 0 66.3617 0 42.8702C0 19.3786 19.0437 0.334961 42.5352 0.334961C66.0268 0.334961 85.0704 19.3786 85.0704 42.8702ZM60.4744 26.1361L19.4634 41.9486C16.6525 43.0474 16.7022 44.6035 18.9813 45.3266L29.4804 48.6018L53.8354 33.2678C54.9661 32.5164 56.0153 32.9417 55.1575 33.6967L35.4496 51.5013L34.6946 62.3229C35.7934 62.3229 36.2719 61.8444 36.839 61.2773L41.9681 56.3361L52.6019 64.1732C54.5408 65.272 55.9267 64.7049 56.4442 62.3726L63.4271 29.4751L63.4235 29.4787C64.0403 26.6005 62.3779 25.4485 60.4744 26.1361Z" fill="#78E0E6"/>
</svg>
