<svg width="86" height="86" viewBox="0 0 86 86" fill="none" xmlns="http://www.w3.org/2000/svg">
<g clip-path="url(#clip0_133_789)">
<path fill-rule="evenodd" clip-rule="evenodd" d="M0.436523 43.3803C0.436523 19.8896 19.481 0.845093 42.9717 0.845093C66.4625 0.845093 85.507 19.8896 85.507 43.3803C85.507 66.871 66.4625 85.9155 42.9717 85.9155C19.481 85.9155 0.436523 66.871 0.436523 43.3803ZM65.834 18.3647L47.6252 39.531H47.6241L67.4281 68.3522H52.8633L39.5272 48.944L22.8307 68.3522H18.5155L37.6115 46.1561L18.5155 18.3647H33.0804L45.7083 36.7431L61.5191 18.3647H65.834ZM31.0133 21.6132H24.3855L54.8932 65.2515H61.521L31.0133 21.6132Z" fill="#B9E500"/>
</g>
<defs>
<clipPath id="clip0_133_789">
<rect width="85.0704" height="85.0704" fill="white" transform="translate(0.436523 0.845093)"/>
</clipPath>
</defs>
</svg>
