<svg width="87" height="86" viewBox="0 0 87 86" fill="none" xmlns="http://www.w3.org/2000/svg">
<g clip-path="url(#clip0_1_249)">
<path fill-rule="evenodd" clip-rule="evenodd" d="M0.772461 43.1196C0.772461 19.5185 19.9029 0.384521 43.4997 0.384521C67.0965 0.384521 86.227 19.5185 86.227 43.1196C86.227 66.7207 67.0965 85.8546 43.4997 85.8546C19.9029 85.8546 0.772461 66.7207 0.772461 43.1196ZM66.4652 17.9865L48.1741 39.2522H48.173L68.0665 68.2088H53.4359L40.0397 48.7094L23.2677 68.2088H18.9331L38.1152 45.9084L18.9331 17.9865H33.5637L46.2487 36.4512L62.1308 17.9865H66.4652ZM31.4873 21.2502H24.8295L55.475 65.0935H62.1328L31.4873 21.2502Z" fill="#02050C"/>
</g>
<defs>
<clipPath id="clip0_1_249">
<rect width="85.4545" height="85.4701" fill="white" transform="translate(0.772461 0.384521)"/>
</clipPath>
</defs>
</svg>
