<svg width="86" height="86" viewBox="0 0 86 86" fill="none" xmlns="http://www.w3.org/2000/svg">
    <g clip-path="url(#clip0_68_91)">
        <path fill-rule="evenodd" clip-rule="evenodd"
              d="M0.0704346 42.8702C0.0704346 19.3794 19.1149 0.334961 42.6056 0.334961C66.0964 0.334961 85.1409 19.3794 85.1409 42.8702C85.1409 66.3609 66.0964 85.4054 42.6056 85.4054C19.1149 85.4054 0.0704346 66.3609 0.0704346 42.8702ZM65.4679 17.8546L47.2591 39.0208H47.258L67.062 67.842H52.4972L39.1612 48.4338L22.4646 67.842H18.1495L37.2454 45.6459L18.1495 17.8546H32.7143L45.3422 36.233L61.153 17.8546H65.4679ZM30.6472 21.103H24.0194L54.5271 64.7414H61.1549L30.6472 21.103Z"
              fill="#FFF"/>
    </g>
    <defs>
        <clipPath id="clip0_68_91">
            <rect width="85.0704" height="85.0704" fill="white" transform="translate(0.0704346 0.334961)"/>
        </clipPath>
    </defs>
</svg>
