<svg width="86" height="86" viewBox="0 0 86 86" fill="none" xmlns="http://www.w3.org/2000/svg">
<path d="M37.4332 38.0958C38.0493 38.4168 38.1725 38.8804 37.8439 39.3084C37.5975 39.5937 36.8583 39.879 36.3244 39.879C35.503 39.879 34.6405 39.3797 34.6405 38.9161C34.6405 37.9888 36.3244 37.4895 37.4332 38.0958Z" fill="#B9E500"/>
<path fill-rule="evenodd" clip-rule="evenodd" d="M42.8594 85.9155C66.351 85.9155 85.3946 66.8718 85.3946 43.3803C85.3946 19.8888 66.351 0.845093 42.8594 0.845093C31.5085 0.845093 21.1961 5.29129 13.5687 12.5371C21.5658 20.1552 32.1779 30.3107 33.3675 31.4977L33.9014 31.997L33.8604 32.8173C33.8193 33.9229 33.4086 34.6719 32.464 35.4209C31.3962 36.3125 30.0409 36.7761 27.9464 37.0258C26.6732 37.1685 26.2215 37.3468 25.6876 37.8461C25.1947 38.3098 24.9894 38.9161 24.8662 40.414C24.6608 42.7679 24.3323 43.7309 23.0591 46.0492C21.8271 48.2961 21.5806 49.1164 21.786 50.329C22.0324 51.7557 22.977 52.8256 25.1947 54.1452C26.8786 55.1439 27.6589 55.7859 28.0696 56.5705C28.316 57.0698 28.3571 57.2481 28.3571 58.0684C28.3571 59.3524 28.1107 59.8517 27.125 60.779C25.5233 62.277 22.6074 63.4896 19.0754 64.2029C17.5969 64.4882 17.5148 64.4882 17.5148 64.2029C17.5148 63.8463 16.9398 62.8833 15.9952 61.5993C14.8863 60.137 14.4346 59.3881 14.0239 58.2468C13.5721 56.9628 13.4078 56.1068 13.49 54.7516C13.5721 53.4676 13.7364 52.8969 14.3114 51.8983C14.7631 51.078 15.0506 50.7214 16.8987 48.7241C20.0611 45.3359 21.1699 43.3386 21.5806 40.521C21.9503 37.9888 22.4431 36.7761 23.552 35.7062C24.2091 35.0642 24.3734 34.8145 24.3734 34.3509C24.3734 34.1369 23.3466 32.3893 20.1843 27.5031C15.1738 19.728 15.1738 19.728 15.3381 19.7994C15.3792 19.835 17.7201 22.9379 20.4718 26.6828C24.0859 31.569 25.6876 33.6019 26.0572 33.9229C26.5911 34.3866 27.3714 34.6719 28.0285 34.6719C28.6035 34.6719 29.7945 34.3866 30.3695 34.1012C31.3962 33.6019 31.6426 32.9243 31.0266 32.211C30.4546 31.5487 21.4993 22.0049 13.0435 13.0446C5.1929 20.7615 0.324219 31.5023 0.324219 43.3803C0.324219 66.8718 19.3679 85.9155 42.8594 85.9155ZM31.1907 19.5854C30.78 19.621 30.8211 19.6567 31.6835 19.7637C34.8459 20.1917 37.2689 21.2617 39.692 23.2946C40.8009 24.2219 41.9098 25.3275 43.6758 27.3605C47.6595 31.9613 49.3844 33.2096 52.7521 34.1726C54.7234 34.7432 56.7358 34.9929 60.2678 35.1712C64.1694 35.3495 65.6479 35.5992 67.0442 36.4195C67.8245 36.8831 68.3995 37.4181 69.0156 38.2384L69.3852 38.7021L69.303 38.1671C69.0566 36.1698 67.4138 33.3523 65.3193 31.3193L64.9497 30.9627L64.7443 31.7116C64.2515 33.6019 63.2248 34.9572 62.2391 34.9572C61.7873 34.9572 61.2945 34.7075 61.1302 34.3509C60.9249 33.8872 60.9249 33.7446 61.2534 33.2096C61.8695 32.2466 61.9927 30.9983 61.7052 29.3221C61.6231 28.8584 61.4999 28.3948 61.4177 28.3234C61.2124 28.1094 59.5285 27.2535 58.4607 26.8255C54.5591 25.2562 49.8772 24.7569 45.3185 25.3989L44.2507 25.5415L43.5115 24.7925C40.6777 22.0463 38.0082 20.477 35.0512 19.8707C33.778 19.6211 31.971 19.4784 31.1907 19.5854ZM62.2802 24.2932C62.3623 22.9379 62.5677 22.0463 63.0194 21.226C63.1837 20.905 63.348 20.6197 63.3891 20.6197C63.4301 20.6197 63.348 20.8693 63.2248 21.1547C62.8962 21.9393 62.8552 23.0449 63.0605 24.2932C63.348 25.8982 63.4712 26.1122 65.4425 27.8598C66.346 28.6801 67.4139 29.7144 67.8245 30.1424L68.5227 30.927L67.8245 30.3564C66.9621 29.6431 64.9908 28.2878 64.539 28.1094C64.2515 27.9668 64.2104 27.9668 64.0051 28.1451C63.8408 28.2878 63.7997 28.5018 63.7997 29.5361C63.7587 31.141 63.5123 32.1396 62.8962 33.1739C62.5677 33.7089 62.5266 33.6019 62.8141 32.9956C63.0194 32.532 63.0605 32.318 63.0605 30.7843C63.0605 27.6814 62.6498 26.9325 60.1446 25.6842C59.5285 25.3632 58.4607 24.8995 57.8447 24.6499C57.1876 24.4002 56.6948 24.1862 56.7358 24.1862C56.818 24.1149 59.241 24.7212 60.1856 25.0779C61.6231 25.5772 61.8695 25.6128 62.0338 25.5772C62.157 25.4702 62.2391 25.1849 62.2802 24.2932ZM30.78 21.9393C30.5336 24.3289 31.6424 27.5388 33.3674 29.6074C34.7226 31.2123 36.8172 32.4606 38.3778 32.6033C39.4046 32.6746 39.692 32.3893 39.2403 31.8186C38.5832 31.034 37.8028 29.7857 37.5975 29.2507C37.4743 28.9297 37.1868 27.9311 36.9815 27.0751C36.2833 24.1506 35.544 22.9736 33.9013 22.1176C33.2852 21.7966 32.0121 21.3687 31.2728 21.2617L30.8621 21.1903L30.78 21.9393ZM60.1856 45.1219C52.0539 42.2686 49.1791 39.8077 49.1791 35.6349C49.1791 35.0285 49.2201 34.5292 49.2201 34.5292C49.2475 34.5292 49.3844 34.6243 49.5822 34.7617C49.681 34.8304 49.7952 34.9098 49.9183 34.9929C51.5611 36.1342 53.4092 36.6335 58.5429 37.2755C61.5409 37.6678 63.2658 37.9531 64.8265 38.4168C69.7959 39.8434 72.8761 42.7679 73.6153 46.7268C73.8207 47.8681 73.6975 50.0437 73.3689 51.185C73.0814 52.0766 72.26 53.7173 72.0547 53.7529C72.0136 53.7529 71.9315 53.5746 71.9315 53.2893C71.8493 51.7913 70.9869 50.3647 69.5495 49.2591C67.8245 47.9751 65.6068 47.0121 60.1856 45.1219ZM54.0252 44.8009C54.1485 45.0862 54.3538 45.7638 54.4359 46.2988C55.093 49.6514 53.0806 52.3976 49.0148 53.5033C48.6041 53.6459 46.9613 53.9312 45.3596 54.1452C42.1151 54.6446 40.6366 54.9655 39.1992 55.5719C38.1725 55.9998 36.8993 56.6418 36.9815 56.7132C37.0225 56.7488 37.2689 56.6775 37.5154 56.6062C39.3635 56.0355 41.417 55.7502 44.4972 55.6075C45.5285 55.5478 46.6749 55.4631 47.3102 55.4162L47.6184 55.3935C50.3701 55.0725 52.3003 54.3592 53.7788 53.0396C54.6002 52.2906 55.093 51.613 55.5037 50.65C55.7502 50.0437 55.7912 49.794 55.7912 48.7241C55.7912 47.6185 55.7912 47.4045 55.5037 46.7268C55.1341 45.8352 54.7234 45.1932 54.1895 44.6582L53.8199 44.2659L54.0252 44.8009ZM58.1732 52.041C57.1054 50.008 56.859 48.0821 57.434 46.2632C57.5161 46.0848 57.5983 45.9065 57.6804 45.9065C57.7626 45.9065 58.009 46.0135 58.2554 46.1562C58.7482 46.4415 59.775 46.9408 62.4034 48.1891C65.73 49.7584 67.6192 50.971 68.9334 52.362C70.0834 53.5746 70.7815 54.9655 71.1101 56.6775C71.3154 57.6405 71.1922 59.9587 70.9047 60.9217C70.0012 63.9532 67.9478 66.3785 64.9497 67.7695C64.4979 67.9834 64.1283 68.1261 64.0872 68.1261C64.0462 68.1261 64.2104 67.7695 64.4569 67.3415C65.4425 65.5225 65.5657 63.7749 64.8265 61.8133C64.3747 60.6007 63.4301 59.1384 61.5409 56.6775C59.2821 53.8243 58.7482 53.0753 58.1732 52.041ZM37.8028 58.6748C34.353 59.1741 30.6157 60.7433 27.5766 62.9546L26.7141 63.6679L27.4944 63.7749C31.6014 64.3099 32.7102 64.8092 35.5851 67.3771C37.2279 68.8394 37.8028 69.1604 39.1581 69.4814C41.1705 69.945 43.1419 69.1247 43.84 67.5555C44.1275 66.8421 44.0865 65.7009 43.7579 65.1302C42.9365 63.7393 40.5134 63.3113 39.3635 64.3099C38.4189 65.1302 38.7064 66.4142 39.8974 66.6282C40.1438 66.6638 40.1438 66.6638 39.8152 66.5212C39.2813 66.3072 39.0349 66.0218 39.0349 65.5582C38.9939 64.4526 40.4313 63.8819 41.7455 64.3812C42.7312 64.7735 43.1008 65.2729 43.1008 66.1288C43.1008 67.4485 41.7866 68.4828 40.267 68.3044C39.4456 68.1974 38.46 67.7694 37.9261 67.2345C36.6118 65.9505 37.1047 63.8462 38.9939 63.0616C40.4313 62.4553 42.3205 62.6336 43.799 63.4539C45.4828 64.4169 46.2221 65.2729 47.6595 68.1618C48.1523 69.1247 48.7273 70.159 49.0148 70.5157C50.3701 72.299 52.0539 73.1906 54.0252 73.1906C55.1341 73.1906 55.9555 73.0479 56.9822 72.5843C57.7215 72.2633 58.8304 71.6213 58.7482 71.55C58.7482 71.5219 58.5442 71.5824 58.2769 71.6616C58.2401 71.6725 58.202 71.6838 58.1632 71.6952C58.1261 71.7062 58.0883 71.7172 58.05 71.7283C55.8734 72.4416 53.6556 72.406 52.3825 71.5857C51.5611 71.0507 50.904 70.052 50.5754 68.7681C50.5675 68.7271 50.5537 68.6573 50.5352 68.5646C50.4572 68.1729 50.2975 67.371 50.1647 66.5925C49.713 64.1316 49.2612 63.0259 48.2755 61.742C47.2488 60.4224 45.2775 59.3524 43.1008 58.8531C41.7455 58.5321 39.2813 58.4608 37.8028 58.6748ZM32.9977 39.6294C33.2852 38.7021 34.2298 37.7748 35.2155 37.5251C35.8726 37.3468 37.1457 37.4538 37.7618 37.7391C38.9528 38.2741 39.8152 39.4511 39.6099 40.307C39.4046 41.3413 37.4743 42.1973 35.2155 42.1973C34.0655 42.1973 33.6548 42.0546 33.2031 41.5553C32.9156 41.2343 32.8335 40.2 32.9977 39.6294Z" fill="#B9E500"/>
<path d="M18.5826 56.2852C19.0343 55.6075 18.7879 54.7516 18.0487 54.3236C17.3505 53.9312 16.2827 54.1096 16.2827 54.6446C16.2827 54.7872 16.3648 54.9299 16.6112 55.0012C16.9809 55.1795 17.0219 55.3579 16.7345 55.7502C16.447 56.1425 16.447 56.4992 16.8166 56.7488C17.3916 57.1411 18.1719 56.9271 18.5826 56.2852Z" fill="#B9E500"/>
<path d="M37.4332 38.0958C38.0493 38.4168 38.1725 38.8804 37.8439 39.3084C37.5975 39.5937 36.8583 39.879 36.3244 39.879C35.503 39.879 34.6405 39.3797 34.6405 38.9161C34.6405 37.9888 36.3244 37.4895 37.4332 38.0958Z" fill="#B9E500"/>
<path fill-rule="evenodd" clip-rule="evenodd" d="M42.8594 85.9155C66.351 85.9155 85.3946 66.8718 85.3946 43.3803C85.3946 19.8888 66.351 0.845093 42.8594 0.845093C31.5085 0.845093 21.1961 5.29129 13.5687 12.5371C21.5658 20.1552 32.1779 30.3107 33.3675 31.4977L33.9014 31.997L33.8604 32.8173C33.8193 33.9229 33.4086 34.6719 32.464 35.4209C31.3962 36.3125 30.0409 36.7761 27.9464 37.0258C26.6732 37.1685 26.2215 37.3468 25.6876 37.8461C25.1947 38.3098 24.9894 38.9161 24.8662 40.414C24.6608 42.7679 24.3323 43.7309 23.0591 46.0492C21.8271 48.2961 21.5806 49.1164 21.786 50.329C22.0324 51.7557 22.977 52.8256 25.1947 54.1452C26.8786 55.1439 27.6589 55.7859 28.0696 56.5705C28.316 57.0698 28.3571 57.2481 28.3571 58.0684C28.3571 59.3524 28.1107 59.8517 27.125 60.779C25.5233 62.277 22.6074 63.4896 19.0754 64.2029C17.5969 64.4882 17.5148 64.4882 17.5148 64.2029C17.5148 63.8463 16.9398 62.8833 15.9952 61.5993C14.8863 60.137 14.4346 59.3881 14.0239 58.2468C13.5721 56.9628 13.4078 56.1068 13.49 54.7516C13.5721 53.4676 13.7364 52.8969 14.3114 51.8983C14.7631 51.078 15.0506 50.7214 16.8987 48.7241C20.0611 45.3359 21.1699 43.3386 21.5806 40.521C21.9503 37.9888 22.4431 36.7761 23.552 35.7062C24.2091 35.0642 24.3734 34.8145 24.3734 34.3509C24.3734 34.1369 23.3466 32.3893 20.1843 27.5031C15.1738 19.728 15.1738 19.728 15.3381 19.7994C15.3792 19.835 17.7201 22.9379 20.4718 26.6828C24.0859 31.569 25.6876 33.6019 26.0572 33.9229C26.5911 34.3866 27.3714 34.6719 28.0285 34.6719C28.6035 34.6719 29.7945 34.3866 30.3695 34.1012C31.3962 33.6019 31.6426 32.9243 31.0266 32.211C30.4546 31.5487 21.4993 22.0049 13.0435 13.0446C5.1929 20.7615 0.324219 31.5023 0.324219 43.3803C0.324219 66.8718 19.3679 85.9155 42.8594 85.9155ZM31.1907 19.5854C30.78 19.621 30.8211 19.6567 31.6835 19.7637C34.8459 20.1917 37.2689 21.2617 39.692 23.2946C40.8009 24.2219 41.9098 25.3275 43.6758 27.3605C47.6595 31.9613 49.3844 33.2096 52.7521 34.1726C54.7234 34.7432 56.7358 34.9929 60.2678 35.1712C64.1694 35.3495 65.6479 35.5992 67.0442 36.4195C67.8245 36.8831 68.3995 37.4181 69.0156 38.2384L69.3852 38.7021L69.303 38.1671C69.0566 36.1698 67.4138 33.3523 65.3193 31.3193L64.9497 30.9627L64.7443 31.7116C64.2515 33.6019 63.2248 34.9572 62.2391 34.9572C61.7873 34.9572 61.2945 34.7075 61.1302 34.3509C60.9249 33.8872 60.9249 33.7446 61.2534 33.2096C61.8695 32.2466 61.9927 30.9983 61.7052 29.3221C61.6231 28.8584 61.4999 28.3948 61.4177 28.3234C61.2124 28.1094 59.5285 27.2535 58.4607 26.8255C54.5591 25.2562 49.8772 24.7569 45.3185 25.3989L44.2507 25.5415L43.5115 24.7925C40.6777 22.0463 38.0082 20.477 35.0512 19.8707C33.778 19.6211 31.971 19.4784 31.1907 19.5854ZM62.2802 24.2932C62.3623 22.9379 62.5677 22.0463 63.0194 21.226C63.1837 20.905 63.348 20.6197 63.3891 20.6197C63.4301 20.6197 63.348 20.8693 63.2248 21.1547C62.8962 21.9393 62.8552 23.0449 63.0605 24.2932C63.348 25.8982 63.4712 26.1122 65.4425 27.8598C66.346 28.6801 67.4139 29.7144 67.8245 30.1424L68.5227 30.927L67.8245 30.3564C66.9621 29.6431 64.9908 28.2878 64.539 28.1094C64.2515 27.9668 64.2104 27.9668 64.0051 28.1451C63.8408 28.2878 63.7997 28.5018 63.7997 29.5361C63.7587 31.141 63.5123 32.1396 62.8962 33.1739C62.5677 33.7089 62.5266 33.6019 62.8141 32.9956C63.0194 32.532 63.0605 32.318 63.0605 30.7843C63.0605 27.6814 62.6498 26.9325 60.1446 25.6842C59.5285 25.3632 58.4607 24.8995 57.8447 24.6499C57.1876 24.4002 56.6948 24.1862 56.7358 24.1862C56.818 24.1149 59.241 24.7212 60.1856 25.0779C61.6231 25.5772 61.8695 25.6128 62.0338 25.5772C62.157 25.4702 62.2391 25.1849 62.2802 24.2932ZM30.78 21.9393C30.5336 24.3289 31.6424 27.5388 33.3674 29.6074C34.7226 31.2123 36.8172 32.4606 38.3778 32.6033C39.4046 32.6746 39.692 32.3893 39.2403 31.8186C38.5832 31.034 37.8028 29.7857 37.5975 29.2507C37.4743 28.9297 37.1868 27.9311 36.9815 27.0751C36.2833 24.1506 35.544 22.9736 33.9013 22.1176C33.2852 21.7966 32.0121 21.3687 31.2728 21.2617L30.8621 21.1903L30.78 21.9393ZM60.1856 45.1219C52.0539 42.2686 49.1791 39.8077 49.1791 35.6349C49.1791 35.0285 49.2201 34.5292 49.2201 34.5292C49.2475 34.5292 49.3844 34.6243 49.5822 34.7617C49.681 34.8304 49.7952 34.9098 49.9183 34.9929C51.5611 36.1342 53.4092 36.6335 58.5429 37.2755C61.5409 37.6678 63.2658 37.9531 64.8265 38.4168C69.7959 39.8434 72.8761 42.7679 73.6153 46.7268C73.8207 47.8681 73.6975 50.0437 73.3689 51.185C73.0814 52.0766 72.26 53.7173 72.0547 53.7529C72.0136 53.7529 71.9315 53.5746 71.9315 53.2893C71.8493 51.7913 70.9869 50.3647 69.5495 49.2591C67.8245 47.9751 65.6068 47.0121 60.1856 45.1219ZM54.0252 44.8009C54.1485 45.0862 54.3538 45.7638 54.4359 46.2988C55.093 49.6514 53.0806 52.3976 49.0148 53.5033C48.6041 53.6459 46.9613 53.9312 45.3596 54.1452C42.1151 54.6446 40.6366 54.9655 39.1992 55.5719C38.1725 55.9998 36.8993 56.6418 36.9815 56.7132C37.0225 56.7488 37.2689 56.6775 37.5154 56.6062C39.3635 56.0355 41.417 55.7502 44.4972 55.6075C45.5285 55.5478 46.6749 55.4631 47.3102 55.4162L47.6184 55.3935C50.3701 55.0725 52.3003 54.3592 53.7788 53.0396C54.6002 52.2906 55.093 51.613 55.5037 50.65C55.7502 50.0437 55.7912 49.794 55.7912 48.7241C55.7912 47.6185 55.7912 47.4045 55.5037 46.7268C55.1341 45.8352 54.7234 45.1932 54.1895 44.6582L53.8199 44.2659L54.0252 44.8009ZM58.1732 52.041C57.1054 50.008 56.859 48.0821 57.434 46.2632C57.5161 46.0848 57.5983 45.9065 57.6804 45.9065C57.7626 45.9065 58.009 46.0135 58.2554 46.1562C58.7482 46.4415 59.775 46.9408 62.4034 48.1891C65.73 49.7584 67.6192 50.971 68.9334 52.362C70.0834 53.5746 70.7815 54.9655 71.1101 56.6775C71.3154 57.6405 71.1922 59.9587 70.9047 60.9217C70.0012 63.9532 67.9478 66.3785 64.9497 67.7695C64.4979 67.9834 64.1283 68.1261 64.0872 68.1261C64.0462 68.1261 64.2104 67.7695 64.4569 67.3415C65.4425 65.5225 65.5657 63.7749 64.8265 61.8133C64.3747 60.6007 63.4301 59.1384 61.5409 56.6775C59.2821 53.8243 58.7482 53.0753 58.1732 52.041ZM37.8028 58.6748C34.353 59.1741 30.6157 60.7433 27.5766 62.9546L26.7141 63.6679L27.4944 63.7749C31.6014 64.3099 32.7102 64.8092 35.5851 67.3771C37.2279 68.8394 37.8028 69.1604 39.1581 69.4814C41.1705 69.945 43.1419 69.1247 43.84 67.5555C44.1275 66.8421 44.0865 65.7009 43.7579 65.1302C42.9365 63.7393 40.5134 63.3113 39.3635 64.3099C38.4189 65.1302 38.7064 66.4142 39.8974 66.6282C40.1438 66.6638 40.1438 66.6638 39.8152 66.5212C39.2813 66.3072 39.0349 66.0218 39.0349 65.5582C38.9939 64.4526 40.4313 63.8819 41.7455 64.3812C42.7312 64.7735 43.1008 65.2729 43.1008 66.1288C43.1008 67.4485 41.7866 68.4828 40.267 68.3044C39.4456 68.1974 38.46 67.7694 37.9261 67.2345C36.6118 65.9505 37.1047 63.8462 38.9939 63.0616C40.4313 62.4553 42.3205 62.6336 43.799 63.4539C45.4828 64.4169 46.2221 65.2729 47.6595 68.1618C48.1523 69.1247 48.7273 70.159 49.0148 70.5157C50.3701 72.299 52.0539 73.1906 54.0252 73.1906C55.1341 73.1906 55.9555 73.0479 56.9822 72.5843C57.7215 72.2633 58.8304 71.6213 58.7482 71.55C58.7482 71.5219 58.5442 71.5824 58.2769 71.6616C58.2401 71.6725 58.202 71.6838 58.1632 71.6952C58.1261 71.7062 58.0883 71.7172 58.05 71.7283C55.8734 72.4416 53.6556 72.406 52.3825 71.5857C51.5611 71.0507 50.904 70.052 50.5754 68.7681C50.5675 68.7271 50.5537 68.6573 50.5352 68.5646C50.4572 68.1729 50.2975 67.371 50.1647 66.5925C49.713 64.1316 49.2612 63.0259 48.2755 61.742C47.2488 60.4224 45.2775 59.3524 43.1008 58.8531C41.7455 58.5321 39.2813 58.4608 37.8028 58.6748ZM32.9977 39.6294C33.2852 38.7021 34.2298 37.7748 35.2155 37.5251C35.8726 37.3468 37.1457 37.4538 37.7618 37.7391C38.9528 38.2741 39.8152 39.4511 39.6099 40.307C39.4046 41.3413 37.4743 42.1973 35.2155 42.1973C34.0655 42.1973 33.6548 42.0546 33.2031 41.5553C32.9156 41.2343 32.8335 40.2 32.9977 39.6294Z" fill="#B9E500"/>
<path d="M18.5826 56.2852C19.0343 55.6075 18.7879 54.7516 18.0487 54.3236C17.3505 53.9312 16.2827 54.1096 16.2827 54.6446C16.2827 54.7872 16.3648 54.9299 16.6112 55.0012C16.9809 55.1795 17.0219 55.3579 16.7345 55.7502C16.447 56.1425 16.447 56.4992 16.8166 56.7488C17.3916 57.1411 18.1719 56.9271 18.5826 56.2852Z" fill="#B9E500"/>
</svg>
