<svg width="87" height="86" viewBox="0 0 87 86" fill="none" xmlns="http://www.w3.org/2000/svg">
<path d="M38.049 37.8102C38.6678 38.1327 38.7916 38.5985 38.4616 39.0285C38.214 39.3152 37.4715 39.6019 36.9351 39.6019C36.11 39.6019 35.2437 39.1002 35.2437 38.6344C35.2437 37.7027 36.9351 37.201 38.049 37.8102Z" fill="#02050C"/>
<path fill-rule="evenodd" clip-rule="evenodd" d="M43.4997 85.8546C67.0973 85.8546 86.227 66.7215 86.227 43.1196C86.227 19.5176 67.0973 0.384521 43.4997 0.384521C32.0976 0.384521 21.7386 4.8516 14.0767 12.1314C22.1099 19.7854 32.77 29.9885 33.965 31.1811L34.5013 31.6828L34.46 32.5069C34.4188 33.6177 34.0062 34.3702 33.0574 35.1227C31.9848 36.0186 30.6233 36.4844 28.5193 36.7352C27.2404 36.8785 26.7866 37.0577 26.2503 37.5594C25.7553 38.0252 25.549 38.6344 25.4252 40.1394C25.219 42.5043 24.8889 43.4718 23.61 45.801C22.3724 48.0585 22.1249 48.8826 22.3311 50.1009C22.5787 51.5343 23.5275 52.6093 25.7553 53.9351C27.4467 54.9384 28.2306 55.5834 28.6431 56.3717C28.8906 56.8734 28.9319 57.0526 28.9319 57.8767C28.9319 59.1667 28.6844 59.6684 27.6943 60.6C26.0853 62.105 23.1562 63.3233 19.6083 64.04C18.1231 64.3267 18.0406 64.3267 18.0406 64.04C18.0406 63.6817 17.4631 62.7142 16.5142 61.4242C15.4003 59.955 14.9465 59.2025 14.534 58.0559C14.0802 56.7659 13.9152 55.9059 13.9977 54.5442C14.0802 53.2542 14.2452 52.6809 14.8228 51.6776C15.2766 50.8534 15.5653 50.4951 17.4218 48.4885C20.5984 45.0843 21.7123 43.0777 22.1249 40.2469C22.4961 37.7027 22.9912 36.4844 24.1051 35.4094C24.7652 34.7644 24.9302 34.5136 24.9302 34.0477C24.9302 33.8327 23.8988 32.0769 20.7222 27.1678C15.6891 19.3562 15.6891 19.3562 15.8541 19.4279C15.8954 19.4637 18.2469 22.5812 21.011 26.3436C24.6414 31.2528 26.2503 33.2952 26.6216 33.6177C27.1579 34.0836 27.9418 34.3702 28.6019 34.3702C29.1794 34.3702 30.3758 34.0836 30.9534 33.7969C31.9847 33.2952 32.2323 32.6144 31.6135 31.8978C31.0389 31.2324 22.0431 21.6437 13.5492 12.6413C5.66312 20.3945 0.772461 31.1858 0.772461 43.1196C0.772461 66.7215 19.9021 85.8546 43.4997 85.8546ZM31.7783 19.2129C31.3657 19.2487 31.407 19.2845 32.2733 19.392C35.45 19.822 37.884 20.897 40.318 22.9395C41.4319 23.8712 42.5458 24.982 44.3197 27.0245C48.3215 31.6469 50.0542 32.9011 53.4371 33.8686C55.4173 34.4419 57.4388 34.6927 60.9867 34.8719C64.9059 35.0511 66.3911 35.3019 67.7937 36.1261C68.5776 36.5919 69.1551 37.1294 69.774 37.9535L70.1452 38.4194L70.0627 37.8819C69.8152 35.8752 68.165 33.0444 66.061 31.0019L65.6897 30.6436L65.4835 31.3961C64.9884 33.2952 63.957 34.6569 62.9669 34.6569C62.5131 34.6569 62.0181 34.4061 61.853 34.0477C61.6468 33.5819 61.6468 33.4386 61.9768 32.9011C62.5956 31.9336 62.7194 30.6794 62.4306 28.9953C62.3481 28.5294 62.2243 28.0636 62.1418 27.992C61.9355 27.777 60.2441 26.917 59.1715 26.487C55.2523 24.9103 50.5492 24.4086 45.9699 25.0536L44.8973 25.197L44.1547 24.4445C41.3081 21.6853 38.6266 20.1087 35.6562 19.4995C34.3773 19.2487 32.5621 19.1054 31.7783 19.2129ZM63.0082 23.9428C63.0907 22.5812 63.297 21.6853 63.7508 20.8612C63.9158 20.5387 64.0808 20.252 64.122 20.252C64.1633 20.252 64.0808 20.5028 63.957 20.7895C63.627 21.5778 63.5857 22.6887 63.792 23.9428C64.0808 25.5553 64.2046 25.7703 66.1848 27.5261C67.0924 28.3503 68.165 29.3894 68.5776 29.8194L69.2789 30.6078L68.5776 30.0344C67.7112 29.3178 65.731 27.9561 65.2772 27.777C64.9884 27.6336 64.9471 27.6336 64.7409 27.8128C64.5759 27.9561 64.5346 28.1711 64.5346 29.2103C64.4933 30.8228 64.2458 31.8261 63.627 32.8652C63.297 33.4027 63.2557 33.2952 63.5445 32.6861C63.7508 32.2202 63.792 32.0053 63.792 30.4644C63.792 27.347 63.3795 26.5945 60.8629 25.3403C60.2441 25.0178 59.1715 24.552 58.5527 24.3011C57.8926 24.0503 57.3975 23.8353 57.4388 23.8353C57.5213 23.7637 59.9553 24.3728 60.9042 24.7311C62.3481 25.2328 62.5956 25.2686 62.7606 25.2328C62.8844 25.1253 62.9669 24.8386 63.0082 23.9428ZM31.3657 21.5778C31.1182 23.9786 32.2321 27.2036 33.9648 29.2819C35.3262 30.8944 37.4302 32.1486 38.9979 32.2919C40.0292 32.3636 40.318 32.0769 39.8642 31.5036C39.2042 30.7153 38.4203 29.4611 38.214 28.9236C38.0903 28.6011 37.8015 27.5978 37.5952 26.7378C36.8939 23.7995 36.1513 22.617 34.5011 21.757C33.8823 21.4345 32.6034 21.0045 31.8608 20.897L31.4483 20.8253L31.3657 21.5778ZM60.9042 44.8693C52.7357 42.0027 49.8479 39.5302 49.8479 35.3377C49.8479 34.7286 49.8891 34.2269 49.8891 34.2269C49.9166 34.2269 50.0542 34.3225 50.2528 34.4605C50.3521 34.5295 50.4669 34.6092 50.5905 34.6927C52.2407 35.8394 54.0971 36.341 59.254 36.986C62.2656 37.3802 63.9983 37.6669 65.566 38.1327C70.5578 39.566 73.6519 42.5043 74.3945 46.4818C74.6008 47.6285 74.477 49.8143 74.147 50.9609C73.8582 51.8568 73.0331 53.5051 72.8268 53.5409C72.7856 53.5409 72.703 53.3617 72.703 53.0751C72.6205 51.5701 71.7542 50.1368 70.3103 49.0259C68.5776 47.736 66.3498 46.7685 60.9042 44.8693ZM54.716 44.5468C54.8397 44.8335 55.046 45.5143 55.1285 46.0518C55.7886 49.4201 53.7671 52.1793 49.6829 53.2901C49.2703 53.4334 47.6201 53.7201 46.0112 53.9351C42.7521 54.4367 41.2669 54.7592 39.823 55.3684C38.7916 55.7984 37.5127 56.4434 37.5952 56.5151C37.6365 56.5509 37.884 56.4792 38.1315 56.4076C39.988 55.8342 42.0507 55.5476 45.1448 55.4042C46.1808 55.3442 47.3324 55.2591 47.9706 55.212L48.2802 55.1892C51.0443 54.8667 52.9833 54.1501 54.4684 52.8242C55.2935 52.0718 55.7886 51.3909 56.2011 50.4234C56.4487 49.8143 56.4899 49.5634 56.4899 48.4885C56.4899 47.3776 56.4899 47.1626 56.2011 46.4818C55.8298 45.586 55.4173 44.941 54.881 44.4035L54.5097 44.0093L54.716 44.5468ZM58.8827 51.8209C57.8101 49.7784 57.5625 47.8435 58.1401 46.016C58.2226 45.8368 58.3051 45.6576 58.3876 45.6576C58.4701 45.6576 58.7177 45.7651 58.9652 45.9085C59.4603 46.1951 60.4916 46.6968 63.1319 47.951C66.4736 49.5276 68.3713 50.7459 69.6914 52.1434C70.8466 53.3617 71.5479 54.7592 71.8779 56.4792C72.0842 57.4467 71.9605 59.7759 71.6717 60.7434C70.7641 63.7892 68.7013 66.2258 65.6897 67.6233C65.2359 67.8383 64.8646 67.9816 64.8234 67.9816C64.7821 67.9816 64.9471 67.6233 65.1947 67.1933C66.1848 65.3658 66.3085 63.61 65.566 61.6392C65.1122 60.4209 64.1633 58.9517 62.2656 56.4792C59.9966 53.6126 59.4603 52.8601 58.8827 51.8209ZM38.4203 58.4859C34.9549 58.9875 31.2007 60.5642 28.1479 62.7858L27.2815 63.5025L28.0654 63.61C32.1908 64.1475 33.3047 64.6491 36.1926 67.2291C37.8427 68.6983 38.4203 69.0208 39.7817 69.3433C41.8032 69.8091 43.7834 68.9849 44.4848 67.4083C44.7736 66.6916 44.7323 65.545 44.4023 64.9716C43.5772 63.5742 41.1431 63.1442 39.988 64.1475C39.0391 64.9716 39.3279 66.2616 40.5243 66.4766C40.7718 66.5125 40.7718 66.5125 40.4418 66.3691C39.9055 66.1541 39.658 65.8675 39.658 65.4016C39.6167 64.2908 41.0606 63.7175 42.3808 64.2192C43.3709 64.6133 43.7422 65.115 43.7422 65.975C43.7422 67.3008 42.422 68.34 40.8956 68.1608C40.0705 68.0533 39.0804 67.6233 38.5441 67.0858C37.2239 65.7958 37.719 63.6817 39.6167 62.8933C41.0606 62.2842 42.9583 62.4633 44.4435 63.2875C46.135 64.255 46.8775 65.115 48.3215 68.0175C48.8165 68.9849 49.3941 70.0241 49.6829 70.3824C51.0443 72.1741 52.7357 73.0699 54.716 73.0699C55.8298 73.0699 56.6549 72.9266 57.6863 72.4607C58.4289 72.1383 59.5428 71.4933 59.4603 71.4216C59.4603 71.3934 59.2553 71.4541 58.9868 71.5337C58.9499 71.5447 58.9116 71.556 58.8726 71.5675C58.8354 71.5785 58.7974 71.5896 58.7589 71.6008C56.5724 72.3174 54.3447 72.2816 53.0658 71.4574C52.2407 70.9199 51.5806 69.9166 51.2506 68.6266C51.2427 68.5854 51.2287 68.5154 51.2101 68.4221C51.1318 68.0286 50.9714 67.223 50.838 66.4408C50.3842 63.9683 49.9304 62.8575 48.9403 61.5675C47.9089 60.2417 45.9287 59.1667 43.7422 58.665C42.3808 58.3425 39.9055 58.2709 38.4203 58.4859ZM33.5935 39.351C33.8823 38.4194 34.8311 37.4877 35.8213 37.2369C36.4813 37.0577 37.7602 37.1652 38.3791 37.4519C39.5755 37.9894 40.4418 39.1719 40.2355 40.0319C40.0293 41.071 38.0903 41.931 35.8213 41.931C34.6661 41.931 34.2536 41.7877 33.7998 41.286C33.511 40.9635 33.4285 39.9244 33.5935 39.351Z" fill="#02050C"/>
<path d="M19.1133 56.0851C19.5671 55.4042 19.3195 54.5442 18.5769 54.1142C17.8756 53.7201 16.803 53.8992 16.803 54.4367C16.803 54.5801 16.8855 54.7234 17.133 54.7951C17.5043 54.9742 17.5456 55.1534 17.2568 55.5476C16.968 55.9417 16.968 56.3001 17.3393 56.5509C17.9169 56.9451 18.7007 56.7301 19.1133 56.0851Z" fill="#02050C"/>
<path d="M38.049 37.8102C38.6678 38.1327 38.7916 38.5985 38.4616 39.0285C38.214 39.3152 37.4715 39.6019 36.9351 39.6019C36.11 39.6019 35.2437 39.1002 35.2437 38.6344C35.2437 37.7027 36.9351 37.201 38.049 37.8102Z" fill="#02050C"/>
<path fill-rule="evenodd" clip-rule="evenodd" d="M43.4997 85.8546C67.0973 85.8546 86.227 66.7215 86.227 43.1196C86.227 19.5176 67.0973 0.384521 43.4997 0.384521C32.0976 0.384521 21.7386 4.8516 14.0767 12.1314C22.1099 19.7854 32.77 29.9885 33.965 31.1811L34.5013 31.6828L34.46 32.5069C34.4188 33.6177 34.0062 34.3702 33.0574 35.1227C31.9848 36.0186 30.6233 36.4844 28.5193 36.7352C27.2404 36.8785 26.7866 37.0577 26.2503 37.5594C25.7553 38.0252 25.549 38.6344 25.4252 40.1394C25.219 42.5043 24.8889 43.4718 23.61 45.801C22.3724 48.0585 22.1249 48.8826 22.3311 50.1009C22.5787 51.5343 23.5275 52.6093 25.7553 53.9351C27.4467 54.9384 28.2306 55.5834 28.6431 56.3717C28.8906 56.8734 28.9319 57.0526 28.9319 57.8767C28.9319 59.1667 28.6844 59.6684 27.6943 60.6C26.0853 62.105 23.1562 63.3233 19.6083 64.04C18.1231 64.3267 18.0406 64.3267 18.0406 64.04C18.0406 63.6817 17.4631 62.7142 16.5142 61.4242C15.4003 59.955 14.9465 59.2025 14.534 58.0559C14.0802 56.7659 13.9152 55.9059 13.9977 54.5442C14.0802 53.2542 14.2452 52.6809 14.8228 51.6776C15.2766 50.8534 15.5653 50.4951 17.4218 48.4885C20.5984 45.0843 21.7123 43.0777 22.1249 40.2469C22.4961 37.7027 22.9912 36.4844 24.1051 35.4094C24.7652 34.7644 24.9302 34.5136 24.9302 34.0477C24.9302 33.8327 23.8988 32.0769 20.7222 27.1678C15.6891 19.3562 15.6891 19.3562 15.8541 19.4279C15.8954 19.4637 18.2469 22.5812 21.011 26.3436C24.6414 31.2528 26.2503 33.2952 26.6216 33.6177C27.1579 34.0836 27.9418 34.3702 28.6019 34.3702C29.1794 34.3702 30.3758 34.0836 30.9534 33.7969C31.9847 33.2952 32.2323 32.6144 31.6135 31.8978C31.0389 31.2324 22.0431 21.6437 13.5492 12.6413C5.66312 20.3945 0.772461 31.1858 0.772461 43.1196C0.772461 66.7215 19.9021 85.8546 43.4997 85.8546ZM31.7783 19.2129C31.3657 19.2487 31.407 19.2845 32.2733 19.392C35.45 19.822 37.884 20.897 40.318 22.9395C41.4319 23.8712 42.5458 24.982 44.3197 27.0245C48.3215 31.6469 50.0542 32.9011 53.4371 33.8686C55.4173 34.4419 57.4388 34.6927 60.9867 34.8719C64.9059 35.0511 66.3911 35.3019 67.7937 36.1261C68.5776 36.5919 69.1551 37.1294 69.774 37.9535L70.1452 38.4194L70.0627 37.8819C69.8152 35.8752 68.165 33.0444 66.061 31.0019L65.6897 30.6436L65.4835 31.3961C64.9884 33.2952 63.957 34.6569 62.9669 34.6569C62.5131 34.6569 62.0181 34.4061 61.853 34.0477C61.6468 33.5819 61.6468 33.4386 61.9768 32.9011C62.5956 31.9336 62.7194 30.6794 62.4306 28.9953C62.3481 28.5294 62.2243 28.0636 62.1418 27.992C61.9355 27.777 60.2441 26.917 59.1715 26.487C55.2523 24.9103 50.5492 24.4086 45.9699 25.0536L44.8973 25.197L44.1547 24.4445C41.3081 21.6853 38.6266 20.1087 35.6562 19.4995C34.3773 19.2487 32.5621 19.1054 31.7783 19.2129ZM63.0082 23.9428C63.0907 22.5812 63.297 21.6853 63.7508 20.8612C63.9158 20.5387 64.0808 20.252 64.122 20.252C64.1633 20.252 64.0808 20.5028 63.957 20.7895C63.627 21.5778 63.5857 22.6887 63.792 23.9428C64.0808 25.5553 64.2046 25.7703 66.1848 27.5261C67.0924 28.3503 68.165 29.3894 68.5776 29.8194L69.2789 30.6078L68.5776 30.0344C67.7112 29.3178 65.731 27.9561 65.2772 27.777C64.9884 27.6336 64.9471 27.6336 64.7409 27.8128C64.5759 27.9561 64.5346 28.1711 64.5346 29.2103C64.4933 30.8228 64.2458 31.8261 63.627 32.8652C63.297 33.4027 63.2557 33.2952 63.5445 32.6861C63.7508 32.2202 63.792 32.0053 63.792 30.4644C63.792 27.347 63.3795 26.5945 60.8629 25.3403C60.2441 25.0178 59.1715 24.552 58.5527 24.3011C57.8926 24.0503 57.3975 23.8353 57.4388 23.8353C57.5213 23.7637 59.9553 24.3728 60.9042 24.7311C62.3481 25.2328 62.5956 25.2686 62.7606 25.2328C62.8844 25.1253 62.9669 24.8386 63.0082 23.9428ZM31.3657 21.5778C31.1182 23.9786 32.2321 27.2036 33.9648 29.2819C35.3262 30.8944 37.4302 32.1486 38.9979 32.2919C40.0292 32.3636 40.318 32.0769 39.8642 31.5036C39.2042 30.7153 38.4203 29.4611 38.214 28.9236C38.0903 28.6011 37.8015 27.5978 37.5952 26.7378C36.8939 23.7995 36.1513 22.617 34.5011 21.757C33.8823 21.4345 32.6034 21.0045 31.8608 20.897L31.4483 20.8253L31.3657 21.5778ZM60.9042 44.8693C52.7357 42.0027 49.8479 39.5302 49.8479 35.3377C49.8479 34.7286 49.8891 34.2269 49.8891 34.2269C49.9166 34.2269 50.0542 34.3225 50.2528 34.4605C50.3521 34.5295 50.4669 34.6092 50.5905 34.6927C52.2407 35.8394 54.0971 36.341 59.254 36.986C62.2656 37.3802 63.9983 37.6669 65.566 38.1327C70.5578 39.566 73.6519 42.5043 74.3945 46.4818C74.6008 47.6285 74.477 49.8143 74.147 50.9609C73.8582 51.8568 73.0331 53.5051 72.8268 53.5409C72.7856 53.5409 72.703 53.3617 72.703 53.0751C72.6205 51.5701 71.7542 50.1368 70.3103 49.0259C68.5776 47.736 66.3498 46.7685 60.9042 44.8693ZM54.716 44.5468C54.8397 44.8335 55.046 45.5143 55.1285 46.0518C55.7886 49.4201 53.7671 52.1793 49.6829 53.2901C49.2703 53.4334 47.6201 53.7201 46.0112 53.9351C42.7521 54.4367 41.2669 54.7592 39.823 55.3684C38.7916 55.7984 37.5127 56.4434 37.5952 56.5151C37.6365 56.5509 37.884 56.4792 38.1315 56.4076C39.988 55.8342 42.0507 55.5476 45.1448 55.4042C46.1808 55.3442 47.3324 55.2591 47.9706 55.212L48.2802 55.1892C51.0443 54.8667 52.9833 54.1501 54.4684 52.8242C55.2935 52.0718 55.7886 51.3909 56.2011 50.4234C56.4487 49.8143 56.4899 49.5634 56.4899 48.4885C56.4899 47.3776 56.4899 47.1626 56.2011 46.4818C55.8298 45.586 55.4173 44.941 54.881 44.4035L54.5097 44.0093L54.716 44.5468ZM58.8827 51.8209C57.8101 49.7784 57.5625 47.8435 58.1401 46.016C58.2226 45.8368 58.3051 45.6576 58.3876 45.6576C58.4701 45.6576 58.7177 45.7651 58.9652 45.9085C59.4603 46.1951 60.4916 46.6968 63.1319 47.951C66.4736 49.5276 68.3713 50.7459 69.6914 52.1434C70.8466 53.3617 71.5479 54.7592 71.8779 56.4792C72.0842 57.4467 71.9605 59.7759 71.6717 60.7434C70.7641 63.7892 68.7013 66.2258 65.6897 67.6233C65.2359 67.8383 64.8646 67.9816 64.8234 67.9816C64.7821 67.9816 64.9471 67.6233 65.1947 67.1933C66.1848 65.3658 66.3085 63.61 65.566 61.6392C65.1122 60.4209 64.1633 58.9517 62.2656 56.4792C59.9966 53.6126 59.4603 52.8601 58.8827 51.8209ZM38.4203 58.4859C34.9549 58.9875 31.2007 60.5642 28.1479 62.7858L27.2815 63.5025L28.0654 63.61C32.1908 64.1475 33.3047 64.6491 36.1926 67.2291C37.8427 68.6983 38.4203 69.0208 39.7817 69.3433C41.8032 69.8091 43.7834 68.9849 44.4848 67.4083C44.7736 66.6916 44.7323 65.545 44.4023 64.9716C43.5772 63.5742 41.1431 63.1442 39.988 64.1475C39.0391 64.9716 39.3279 66.2616 40.5243 66.4766C40.7718 66.5125 40.7718 66.5125 40.4418 66.3691C39.9055 66.1541 39.658 65.8675 39.658 65.4016C39.6167 64.2908 41.0606 63.7175 42.3808 64.2192C43.3709 64.6133 43.7422 65.115 43.7422 65.975C43.7422 67.3008 42.422 68.34 40.8956 68.1608C40.0705 68.0533 39.0804 67.6233 38.5441 67.0858C37.2239 65.7958 37.719 63.6817 39.6167 62.8933C41.0606 62.2842 42.9583 62.4633 44.4435 63.2875C46.135 64.255 46.8775 65.115 48.3215 68.0175C48.8165 68.9849 49.3941 70.0241 49.6829 70.3824C51.0443 72.1741 52.7357 73.0699 54.716 73.0699C55.8298 73.0699 56.6549 72.9266 57.6863 72.4607C58.4289 72.1383 59.5428 71.4933 59.4603 71.4216C59.4603 71.3934 59.2553 71.4541 58.9868 71.5337C58.9499 71.5447 58.9116 71.556 58.8726 71.5675C58.8354 71.5785 58.7974 71.5896 58.7589 71.6008C56.5724 72.3174 54.3447 72.2816 53.0658 71.4574C52.2407 70.9199 51.5806 69.9166 51.2506 68.6266C51.2427 68.5854 51.2287 68.5154 51.2101 68.4221C51.1318 68.0286 50.9714 67.223 50.838 66.4408C50.3842 63.9683 49.9304 62.8575 48.9403 61.5675C47.9089 60.2417 45.9287 59.1667 43.7422 58.665C42.3808 58.3425 39.9055 58.2709 38.4203 58.4859ZM33.5935 39.351C33.8823 38.4194 34.8311 37.4877 35.8213 37.2369C36.4813 37.0577 37.7602 37.1652 38.3791 37.4519C39.5755 37.9894 40.4418 39.1719 40.2355 40.0319C40.0293 41.071 38.0903 41.931 35.8213 41.931C34.6661 41.931 34.2536 41.7877 33.7998 41.286C33.511 40.9635 33.4285 39.9244 33.5935 39.351Z" fill="#02050C"/>
<path d="M19.1133 56.0851C19.5671 55.4042 19.3195 54.5442 18.5769 54.1142C17.8756 53.7201 16.803 53.8992 16.803 54.4367C16.803 54.5801 16.8855 54.7234 17.133 54.7951C17.5043 54.9742 17.5456 55.1534 17.2568 55.5476C16.968 55.9417 16.968 56.3001 17.3393 56.5509C17.9169 56.9451 18.7007 56.7301 19.1133 56.0851Z" fill="#02050C"/>
</svg>
